<svg width="622" height="553" viewBox="0 0 622 553" fill="none" xmlns="http://www.w3.org/2000/svg">
<path d="M47.707 132.519H206.434C206.434 189.172 205.594 186.787 230.294 186.787H293.768C345.823 186.787 373.443 218.289 375.568 265.797V397.396C374.081 416.907 394.69 417.974 406.11 417.974C406.11 503.313 415.937 544.475 298.583 544.788C238.496 544.948 65.2141 545.173 47.707 544.788C7.99997 543.916 8 511.374 8 475.075C8 438.776 7.99997 396.467 47.707 396.467C74.3286 396.467 182.697 413.776 197.361 396.467C215.815 374.687 199.111 281.561 187.004 279.157H47.707C11.6097 279.157 8 253.195 8 201.27C8 148.384 29.7336 134.201 47.707 132.519Z" fill="url(#paint0_linear_241_31)"/>
<path d="M573.957 8H299.479C253.603 8.00007 207.434 17.8089 207.434 63.2843C207.434 104.949 208.659 117.718 207.434 134.518C207.434 191.172 206.594 188.786 231.294 188.786H294.768C346.823 188.786 374.443 220.289 376.568 267.797V399.396C375.081 418.907 395.69 419.974 407.11 419.974H450.931L573.957 420.27C613.914 419.397 613.914 411.56 613.914 375.261C613.914 338.962 613.914 326.991 573.957 326.991H481.4C469.368 326.991 473.478 288.629 481.4 280.753C490.042 276.942 552.938 280.753 573.957 280.753C617.755 280.753 613.914 259.206 613.914 240.105C613.914 218.347 617.275 197.424 573.957 197.424C563.741 197.424 484.454 202.932 481.4 197.424C474.169 184.381 476.162 155.672 481.4 154.638H573.957C610.282 154.638 613.914 128.676 613.914 76.7518C613.914 23.8659 592.044 9.68273 573.957 8Z" fill="url(#paint1_linear_241_31)"/>
<path d="M47.707 132.519H206.434C206.434 189.172 205.594 186.787 230.294 186.787H293.768C345.823 186.787 373.443 218.289 375.568 265.797V397.396C374.081 416.907 394.69 417.974 406.11 417.974C406.11 503.313 415.937 544.475 298.583 544.788C238.496 544.948 65.2141 545.173 47.707 544.788C7.99997 543.916 8 511.374 8 475.075C8 438.776 7.99997 396.467 47.707 396.467C74.3286 396.467 182.697 413.776 197.361 396.467C215.815 374.687 199.111 281.561 187.004 279.157H47.707C11.6097 279.157 8 253.195 8 201.27C8 148.384 29.7336 134.201 47.707 132.519Z" stroke="black" stroke-width="16"/>
<path d="M573.957 8H299.479C253.603 8.00007 207.434 17.8089 207.434 63.2843C207.434 104.949 208.659 117.718 207.434 134.518C207.434 191.172 206.594 188.786 231.294 188.786H294.768C346.823 188.786 374.443 220.289 376.568 267.797V399.396C375.081 418.907 395.69 419.974 407.11 419.974H450.931L573.957 420.27C613.914 419.397 613.914 411.56 613.914 375.261C613.914 338.962 613.914 326.991 573.957 326.991H481.4C469.368 326.991 473.478 288.629 481.4 280.753C490.042 276.942 552.938 280.753 573.957 280.753C617.755 280.753 613.914 259.206 613.914 240.105C613.914 218.347 617.275 197.424 573.957 197.424C563.741 197.424 484.454 202.932 481.4 197.424C474.169 184.381 476.162 155.672 481.4 154.638H573.957C610.282 154.638 613.914 128.676 613.914 76.7518C613.914 23.8659 592.044 9.68273 573.957 8Z" stroke="black" stroke-width="16"/>
<defs>
<linearGradient id="paint0_linear_241_31" x1="-202.874" y1="-44.2883" x2="404.955" y2="485.693" gradientUnits="userSpaceOnUse">
<stop offset="0.572115" stop-color="#FFD242"/>
</linearGradient>
<linearGradient id="paint1_linear_241_31" x1="545.916" y1="94.3547" x2="94.1532" y2="431.417" gradientUnits="userSpaceOnUse">
<stop offset="0.490385" stop-color="#3771A1"/>
</linearGradient>
</defs>
</svg>
