<svg width="733" height="559" viewBox="0 0 733 559" fill="none" xmlns="http://www.w3.org/2000/svg">
<mask id="mask0_31_53" style="mask-type:alpha" maskUnits="userSpaceOnUse" x="1" y="1" width="731" height="557">
<path d="M499.996 1.65772C549.346 1.40933 588.395 12.6089 619.231 32.1703C650.068 51.7323 672.725 79.6779 689.254 112.975C722.322 179.589 730.838 267.566 731.265 352.466C731.478 394.747 712.469 428.596 680.703 455.626C648.924 482.667 604.386 502.873 553.601 517.817C452.032 547.706 325.63 556.51 226.788 557.008C177.421 557.256 138.747 548.204 108.487 531.864C78.2318 515.526 56.3564 491.886 40.6079 462.908C9.09566 404.924 2.12032 325.582 1.69291 240.669C1.26725 156.102 76.2371 96.5879 176.309 58.0699C276.332 19.5711 401.182 2.1551 499.996 1.65772Z" fill="#D9D9D9" stroke="black"/>
</mask>
<g mask="url(#mask0_31_53)">
<path d="M-219.633 275.783L872.353 270.287L872.373 274.287L-219.613 279.783L-219.633 275.783Z" fill="#D9D9D9"/>
<path d="M-218.007 598.779L873.979 593.283L873.999 597.283L-217.987 602.779L-218.007 598.779Z" fill="#D9D9D9"/>
<path d="M-219.684 265.783L872.303 260.287L872.328 265.287L-219.658 270.783L-219.684 265.783Z" fill="#D9D9D9"/>
<path d="M-218.058 588.779L873.928 583.283L873.954 588.283L-218.033 593.779L-218.058 588.779Z" fill="#D9D9D9"/>
<path d="M-219.729 256.784L872.257 251.287L872.277 255.287L-219.709 260.784L-219.729 256.784Z" fill="#D9D9D9"/>
<path d="M-218.103 579.779L873.883 574.283L873.903 578.283L-218.083 583.779L-218.103 579.779Z" fill="#D9D9D9"/>
<path d="M-219.774 247.784L872.212 242.287L872.232 246.287L-219.754 251.784L-219.774 247.784Z" fill="#D9D9D9"/>
<path d="M-218.148 570.78L873.838 565.283L873.858 569.283L-218.128 574.78L-218.148 570.78Z" fill="#D9D9D9"/>
<path d="M-219.819 238.784L872.167 233.287L872.187 237.287L-219.799 242.784L-219.819 238.784Z" fill="#D9D9D9"/>
<path d="M-218.194 561.78L873.792 556.283L873.813 560.283L-218.174 565.78L-218.194 561.78Z" fill="#D9D9D9"/>
<path d="M-219.87 228.784L872.116 223.287L872.142 228.287L-219.845 233.784L-219.87 228.784Z" fill="#D9D9D9"/>
<path d="M-218.244 551.78L873.742 546.283L873.767 551.283L-218.219 556.78L-218.244 551.78Z" fill="#D9D9D9"/>
<path d="M-219.915 219.784L872.071 214.288L872.091 218.288L-219.895 223.784L-219.915 219.784Z" fill="#D9D9D9"/>
<path d="M-218.289 542.78L873.697 537.283L873.717 541.283L-218.269 546.78L-218.289 542.78Z" fill="#D9D9D9"/>
<path d="M-219.96 210.784L872.026 205.288L872.046 209.288L-219.94 214.784L-219.96 210.784Z" fill="#D9D9D9"/>
<path d="M-218.335 533.78L873.652 528.284L873.672 532.284L-218.314 537.78L-218.335 533.78Z" fill="#D9D9D9"/>
<path d="M-220.006 201.784L871.98 196.288L872.001 200.288L-219.986 205.784L-220.006 201.784Z" fill="#D9D9D9"/>
<path d="M-218.38 524.78L873.606 519.284L873.626 523.284L-218.36 528.78L-218.38 524.78Z" fill="#D9D9D9"/>
<path d="M-220.056 191.784L871.93 186.288L871.955 191.288L-220.031 196.784L-220.056 191.784Z" fill="#D9D9D9"/>
<path d="M-218.43 514.78L873.556 509.284L873.581 514.284L-218.405 519.78L-218.43 514.78Z" fill="#D9D9D9"/>
<path d="M-220.101 182.785L871.885 177.288L871.905 181.288L-220.081 186.784L-220.101 182.785Z" fill="#D9D9D9"/>
<path d="M-218.476 505.78L873.511 500.284L873.531 504.284L-218.455 509.78L-218.476 505.78Z" fill="#D9D9D9"/>
<path d="M-220.147 173.785L871.84 168.288L871.86 172.288L-220.126 177.785L-220.147 173.785Z" fill="#D9D9D9"/>
<path d="M-218.521 496.781L873.465 491.284L873.485 495.284L-218.501 500.78L-218.521 496.781Z" fill="#D9D9D9"/>
<path d="M-220.192 164.785L871.794 159.288L871.814 163.288L-220.172 168.785L-220.192 164.785Z" fill="#D9D9D9"/>
<path d="M-218.566 487.781L873.42 482.284L873.44 486.284L-218.546 491.781L-218.566 487.781Z" fill="#D9D9D9"/>
<path d="M-220.242 154.785L871.744 149.288L871.769 154.288L-220.217 159.785L-220.242 154.785Z" fill="#D9D9D9"/>
<path d="M-218.616 477.781L873.37 472.284L873.395 477.284L-218.591 482.781L-218.616 477.781Z" fill="#D9D9D9"/>
<path d="M-220.288 145.785L871.699 140.289L871.719 144.288L-220.267 149.785L-220.288 145.785Z" fill="#D9D9D9"/>
<path d="M-218.662 468.781L873.324 463.284L873.344 467.284L-218.642 472.781L-218.662 468.781Z" fill="#D9D9D9"/>
<path d="M-220.333 136.785L871.653 131.289L871.673 135.289L-220.313 140.785L-220.333 136.785Z" fill="#D9D9D9"/>
<path d="M-218.707 459.781L873.279 454.285L873.299 458.284L-218.687 463.781L-218.707 459.781Z" fill="#D9D9D9"/>
<path d="M-220.378 127.785L871.608 122.289L871.628 126.289L-220.358 131.785L-220.378 127.785Z" fill="#D9D9D9"/>
<path d="M-218.752 450.781L873.234 445.285L873.254 449.285L-218.732 454.781L-218.752 450.781Z" fill="#D9D9D9"/>
<path d="M-220.429 117.785L871.558 112.289L871.583 117.289L-220.403 122.785L-220.429 117.785Z" fill="#D9D9D9"/>
<path d="M-218.803 440.781L873.183 435.285L873.209 440.285L-218.778 445.781L-218.803 440.781Z" fill="#D9D9D9"/>
<path d="M-220.474 108.785L871.512 103.289L871.532 107.289L-220.454 112.785L-220.474 108.785Z" fill="#D9D9D9"/>
<path d="M-218.848 431.781L873.138 426.285L873.158 430.285L-218.828 435.781L-218.848 431.781Z" fill="#D9D9D9"/>
<path d="M-220.519 99.7856L871.467 94.2891L871.487 98.289L-220.499 103.786L-220.519 99.7856Z" fill="#D9D9D9"/>
<path d="M-218.893 422.781L873.093 417.285L873.113 421.285L-218.873 426.781L-218.893 422.781Z" fill="#D9D9D9"/>
<path d="M-220.564 90.7857L871.422 85.2892L871.442 89.2892L-220.544 94.7857L-220.564 90.7857Z" fill="#D9D9D9"/>
<path d="M-218.939 413.782L873.048 408.285L873.068 412.285L-218.918 417.782L-218.939 413.782Z" fill="#D9D9D9"/>
<path d="M-220.615 80.7858L871.371 75.2893L871.397 80.2893L-220.59 85.7858L-220.615 80.7858Z" fill="#D9D9D9"/>
<path d="M-218.989 403.782L872.997 398.285L873.022 403.285L-218.964 408.782L-218.989 403.782Z" fill="#D9D9D9"/>
<path d="M-220.66 71.7859L871.326 66.2895L871.346 70.2894L-220.64 75.7859L-220.66 71.7859Z" fill="#D9D9D9"/>
<path d="M-219.034 394.782L872.952 389.285L872.972 393.285L-219.014 398.782L-219.034 394.782Z" fill="#D9D9D9"/>
<path d="M-220.705 62.7861L871.281 57.2896L871.301 61.2895L-220.685 66.786L-220.705 62.7861Z" fill="#D9D9D9"/>
<path d="M-219.08 385.782L872.907 380.285L872.927 384.285L-219.059 389.782L-219.08 385.782Z" fill="#D9D9D9"/>
<path d="M-220.751 53.7862L871.235 48.2897L871.256 52.2896L-220.731 57.7861L-220.751 53.7862Z" fill="#D9D9D9"/>
<path d="M-219.125 376.782L872.861 371.286L872.881 375.286L-219.105 380.782L-219.125 376.782Z" fill="#D9D9D9"/>
<path d="M-220.801 43.7863L871.185 38.2898L871.21 43.2897L-220.776 48.7862L-220.801 43.7863Z" fill="#D9D9D9"/>
<path d="M-219.175 366.782L872.811 361.286L872.836 366.286L-219.15 371.782L-219.175 366.782Z" fill="#D9D9D9"/>
<path d="M-220.846 34.7864L871.14 29.2899L871.16 33.2899L-220.826 38.7864L-220.846 34.7864Z" fill="#D9D9D9"/>
<path d="M-219.22 357.782L872.766 352.286L872.786 356.286L-219.2 361.782L-219.22 357.782Z" fill="#D9D9D9"/>
<path d="M-220.892 25.7865L871.095 20.29L871.115 24.29L-220.871 29.7865L-220.892 25.7865Z" fill="#D9D9D9"/>
<path d="M-219.266 348.782L872.72 343.286L872.74 347.286L-219.246 352.782L-219.266 348.782Z" fill="#D9D9D9"/>
<path d="M-220.937 16.7866L871.049 11.2902L871.069 15.2901L-220.917 20.7866L-220.937 16.7866Z" fill="#D9D9D9"/>
<path d="M-219.311 339.783L872.675 334.286L872.695 338.286L-219.291 343.782L-219.311 339.783Z" fill="#D9D9D9"/>
<path d="M-220.987 6.78677L870.999 1.29028L871.024 6.29022L-220.962 11.7867L-220.987 6.78677Z" fill="#D9D9D9"/>
<path d="M-219.361 329.783L872.625 324.286L872.65 329.286L-219.336 334.783L-219.361 329.783Z" fill="#D9D9D9"/>
<path d="M-221.033 -2.21312L870.954 -7.7096L870.974 -3.70966L-221.012 1.78683L-221.033 -2.21312Z" fill="#D9D9D9"/>
<path d="M-219.407 320.783L872.579 315.286L872.6 319.286L-219.387 324.783L-219.407 320.783Z" fill="#D9D9D9"/>
<path d="M-221.078 -11.213L870.908 -16.7095L870.928 -12.7095L-221.058 -7.21305L-221.078 -11.213Z" fill="#D9D9D9"/>
<path d="M-219.452 311.783L872.534 306.286L872.554 310.286L-219.432 315.783L-219.452 311.783Z" fill="#D9D9D9"/>
<path d="M-221.123 -20.2129L870.863 -25.7094L870.883 -21.7094L-221.103 -16.2129L-221.123 -20.2129Z" fill="#D9D9D9"/>
<path d="M-219.497 302.783L872.489 297.287L872.509 301.286L-219.477 306.783L-219.497 302.783Z" fill="#D9D9D9"/>
<path d="M-221.173 -30.2128L870.813 -35.7092L870.838 -30.7093L-221.148 -25.2128L-221.173 -30.2128Z" fill="#D9D9D9"/>
<path d="M-219.548 292.783L872.438 287.287L872.464 292.287L-219.522 297.783L-219.548 292.783Z" fill="#D9D9D9"/>
<path d="M-221.219 -39.2126L870.767 -44.7091L870.788 -40.7092L-221.199 -35.2127L-221.219 -39.2126Z" fill="#D9D9D9"/>
<path d="M-219.593 283.783L872.393 278.287L872.413 282.287L-219.573 287.783L-219.593 283.783Z" fill="#D9D9D9"/>
</g>
<path d="M165.037 202.367C158.221 209.102 149.182 212.01 143.809 197.276C134.222 170.986 120.751 133.012 148.685 126.001C153.759 125.289 165.913 125.025 174.491 129.545C178.478 127.001 189.545 122.947 201.908 127.086C206.261 123.609 221.082 120.743 236.289 132.094C240.503 135.24 244.595 139.64 239.925 157.883C235.436 175.418 228.531 188.505 224.675 192.78C230.585 192.879 237.621 190.585 240.617 192.169C237.852 204.655 224.538 203.34 218.415 202.367L218.407 202.573C218.371 203.458 218.329 204.466 218.272 205.622C217.941 212.298 215.545 225.429 214.388 231.16C212.845 233.803 207.578 239.089 198.851 239.089C190.123 239.089 184.773 229.308 184.553 225.052V200.778C184.421 204.183 182.224 206.684 180.24 207.602C167.017 212.192 166.359 204.704 165.037 202.367Z" fill="#15304B"/>
<path d="M165.037 202.367L160.116 197.388L160.116 197.388L165.037 202.367ZM143.809 197.276L137.233 199.674L137.233 199.674L143.809 197.276ZM148.685 126.001L147.712 119.069L147.343 119.121L146.981 119.212L148.685 126.001ZM174.884 129.757L179.776 134.763L186.515 128.178L178.264 123.628L174.884 129.757ZM184.553 179.833L191.061 182.41L191.243 181.952L191.358 181.472L184.553 179.833ZM181.082 154.378L184.581 148.315L184.581 148.315L181.082 154.378ZM180.24 207.602L182.536 214.215L182.865 214.101L183.181 213.955L180.24 207.602ZM184.553 200.778L177.558 200.506L177.558 200.506L184.553 200.778ZM184.553 225.052H177.553V225.233L177.562 225.414L184.553 225.052ZM214.388 231.16L220.433 234.689L221.019 233.685L221.249 232.545L214.388 231.16ZM218.272 205.622L225.263 205.968L225.263 205.968L218.272 205.622ZM223.334 192.712L216.566 194.5L217.822 199.252L222.718 199.685L223.334 192.712ZM240.617 192.169L247.452 193.683C248.133 190.607 246.675 187.454 243.89 185.981L240.617 192.169ZM218.407 202.573L211.413 202.286L211.413 202.286L218.407 202.573ZM218.415 202.367L211.421 202.079L211.421 202.079L218.415 202.367ZM221.082 194.939L217.507 188.921L217.507 188.921L221.082 194.939ZM201.908 127.086L199.686 133.724L199.686 133.724L201.908 127.086ZM224.636 153.71L231.599 154.421L231.717 153.269L231.457 152.141L224.636 153.71ZM224.222 178.831L231.2 178.265L231.2 178.265L224.222 178.831ZM210.173 161.555L217.165 161.225L210.173 161.555ZM236.289 132.094L240.476 126.484L240.476 126.484L236.289 132.094ZM239.925 157.883L233.144 156.147L233.144 156.147L239.925 157.883ZM224.222 193.255L219.304 188.274L219.304 188.274L224.222 193.255ZM172.098 192.712L165.87 189.516C164.538 192.112 162.458 195.074 160.116 197.388L165.037 202.367L169.957 207.346C173.441 203.902 176.375 199.709 178.326 195.908L172.098 192.712ZM165.037 202.367L160.116 197.388C158.751 198.737 157.46 199.704 156.353 200.284C155.24 200.866 154.612 200.907 154.386 200.891C154.305 200.885 153.991 200.886 153.362 200.263C152.622 199.53 151.511 197.965 150.385 194.877L143.809 197.276L137.233 199.674C140.301 208.087 145.514 214.287 153.378 214.854C160.299 215.354 166.182 211.076 169.957 207.346L165.037 202.367ZM143.809 197.276L150.385 194.877C145.511 181.51 140.141 166.383 139.155 153.86C138.666 147.647 139.342 142.897 141.033 139.566C142.552 136.572 145.196 134.094 150.389 132.791L148.685 126.001L146.981 119.212C138.207 121.414 132.06 126.312 128.548 133.231C125.207 139.814 124.613 147.515 125.198 154.958C126.362 169.747 132.52 186.751 137.233 199.674L143.809 197.276ZM174.884 129.757L169.991 124.751C167.271 127.409 163.69 132.015 161.034 137.769C158.368 143.545 156.409 150.98 157.728 159.017L164.636 157.883L171.543 156.749C170.813 152.301 171.843 147.759 173.745 143.636C175.658 139.493 178.226 136.278 179.776 134.763L174.884 129.757ZM164.636 157.883L157.64 157.637C157.534 160.645 157.274 164.583 157.029 168.517C156.793 172.313 156.561 176.229 156.561 178.831H163.561H170.561C170.561 176.759 170.757 173.331 171.002 169.387C171.239 165.58 171.517 161.38 171.631 158.129L164.636 157.883ZM163.561 178.831H156.561C156.561 180.961 157.276 183.04 157.836 184.427C158.482 186.03 159.345 187.718 160.307 189.329C162.13 192.381 164.826 196.024 167.916 198.326L172.098 192.712L176.28 187.099C175.336 186.396 173.765 184.559 172.327 182.151C171.659 181.033 171.144 179.997 170.82 179.192C170.409 178.173 170.561 178.162 170.561 178.831H163.561ZM172.098 192.712L168.832 198.903C168.946 198.964 169.054 199.03 169.385 199.251C169.639 199.42 170.331 199.896 171.145 200.3C173.248 201.344 175.42 201.614 177.822 201.388L177.168 194.419L176.513 187.45C176.209 187.478 176.252 187.445 176.5 187.483C176.629 187.503 176.786 187.538 176.957 187.593C177.128 187.649 177.27 187.71 177.372 187.761C177.467 187.808 177.51 187.837 177.472 187.813C177.416 187.779 177.349 187.734 177.152 187.603C176.804 187.371 176.173 186.947 175.364 186.521L172.098 192.712ZM177.168 194.419L184.046 195.716C183.957 196.191 183.855 196.341 184.045 195.884C184.183 195.553 184.399 195.083 184.698 194.475C185.293 193.262 186.084 191.772 186.929 190.216C187.808 188.599 188.576 187.216 189.327 185.839C189.905 184.781 190.696 183.331 191.061 182.41L184.553 179.833L178.045 177.255C178.079 177.169 177.837 177.668 177.037 179.136C176.41 180.285 175.456 182.006 174.626 183.534C173.763 185.125 172.859 186.822 172.131 188.303C171.769 189.041 171.416 189.794 171.124 190.495C170.884 191.071 170.489 192.063 170.289 193.121L177.168 194.419ZM184.553 179.833L191.358 181.472C191.944 179.041 192.471 172.762 192.197 166.84C192.057 163.804 191.691 160.417 190.839 157.392C190.091 154.737 188.491 150.571 184.581 148.315L181.082 154.378L177.583 160.441C176.484 159.806 176.817 159.248 177.363 161.187C177.805 162.756 178.095 164.952 178.212 167.488C178.327 169.964 178.265 172.48 178.13 174.553C178.063 175.584 177.979 176.471 177.898 177.154C177.807 177.908 177.742 178.216 177.748 178.193L184.553 179.833ZM181.082 154.378L184.581 148.315C179.802 145.557 174.232 146.282 170.567 147.279C166.66 148.342 162.723 150.308 160.086 152.563L164.636 157.883L169.185 163.203C169.964 162.537 171.937 161.415 174.242 160.788C175.332 160.491 176.25 160.376 176.924 160.387C177.614 160.398 177.746 160.534 177.583 160.441L181.082 154.378ZM177.168 194.419L171.465 198.478C171.403 198.392 170.799 197.571 170.563 196.23C170.262 194.514 170.704 192.889 171.493 191.689C171.821 191.192 172.148 190.857 172.348 190.671C172.55 190.483 172.701 190.375 172.744 190.345C172.805 190.303 172.726 190.362 172.341 190.571C171.108 191.236 166.96 193.214 161.571 196.285L165.037 202.367L168.503 208.448C174.021 205.303 176.572 204.197 178.995 202.888C179.523 202.603 180.168 202.238 180.781 201.809C181.326 201.426 182.358 200.648 183.188 199.386C184.203 197.844 184.717 195.881 184.352 193.804C184.052 192.1 183.249 190.891 182.871 190.36L177.168 194.419ZM165.037 202.367L158.944 205.814C158.848 205.643 158.838 205.582 159.042 206.085C159.187 206.442 159.454 207.115 159.784 207.813C160.462 209.242 161.64 211.313 163.795 213.042C168.564 216.868 175.024 216.823 182.536 214.215L180.24 207.602L177.945 200.989C172.234 202.972 171.752 201.477 172.556 202.122C172.728 202.26 172.668 202.308 172.437 201.82C172.313 201.558 172.208 201.298 172.013 200.817C171.876 200.481 171.557 199.675 171.129 198.919L165.037 202.367ZM180.24 207.602L183.181 213.955C187.335 212.032 191.305 207.311 191.548 201.049L184.553 200.778L177.558 200.506C177.549 200.74 177.475 200.938 177.351 201.116C177.286 201.209 177.222 201.274 177.18 201.309C177.133 201.35 177.159 201.315 177.3 201.25L180.24 207.602ZM184.553 200.778L191.548 201.049C191.652 198.351 191.372 194.126 188.007 190.928C184.856 187.933 180.604 187.419 177.168 187.419V194.419V201.419C177.724 201.419 178.155 201.443 178.483 201.478C178.813 201.513 179.003 201.555 179.086 201.577C179.244 201.62 178.856 201.545 178.363 201.076C178.123 200.849 177.928 200.592 177.784 200.337C177.644 200.089 177.581 199.894 177.556 199.801C177.533 199.714 177.543 199.716 177.553 199.845C177.563 199.973 177.571 200.186 177.558 200.506L184.553 200.778ZM184.553 200.778H177.553V225.052H184.553H191.553V200.778H184.553ZM184.553 225.052L177.562 225.414C177.771 229.452 180 234.349 183.112 238.121C186.36 242.059 191.678 246.089 198.851 246.089V239.089V232.089C197.295 232.089 195.575 231.229 193.912 229.212C193.113 228.245 192.481 227.177 192.057 226.214C191.593 225.165 191.54 224.618 191.544 224.69L184.553 225.052ZM198.851 239.089V246.089C210.529 246.089 217.887 239.05 220.433 234.689L214.388 231.16L208.342 227.631C207.803 228.556 204.627 232.089 198.851 232.089V239.089ZM214.388 231.16L221.249 232.545C222.391 226.891 224.903 213.253 225.263 205.968L218.272 205.622L211.281 205.275C210.98 211.344 208.699 223.968 207.526 229.775L214.388 231.16ZM223.334 192.712L222.718 199.685C222.855 199.697 222.991 199.708 223.127 199.717L223.623 192.735L224.119 185.753C224.062 185.749 224.005 185.744 223.95 185.739L223.334 192.712ZM223.623 192.735L223.127 199.717C223.611 199.752 224.089 199.771 224.557 199.779L224.675 192.78L224.792 185.781C224.551 185.777 224.327 185.767 224.119 185.753L223.623 192.735ZM224.675 192.78L224.557 199.779C228.17 199.84 232.2 199.168 234.617 198.862C236.011 198.686 236.963 198.605 237.638 198.61C238.428 198.616 238.082 198.747 237.345 198.357L240.617 192.169L243.89 185.981C241.655 184.799 239.306 184.623 237.749 184.61C236.077 184.597 234.339 184.786 232.861 184.973C229.532 185.394 227.09 185.82 224.792 185.781L224.675 192.78ZM218.272 205.622L225.263 205.968C225.322 204.779 225.365 203.744 225.401 202.86L218.407 202.573L211.413 202.286C211.376 203.172 211.336 204.153 211.281 205.275L218.272 205.622ZM218.407 202.573L225.401 202.861L225.41 202.654L218.415 202.367L211.421 202.079L211.413 202.286L218.407 202.573ZM218.415 202.367L225.409 202.654C225.466 201.276 225.505 200.416 225.561 199.778C225.587 199.48 225.61 199.319 225.623 199.246C225.635 199.175 225.627 199.253 225.571 199.419C225.51 199.599 225.403 199.86 225.223 200.154C225.042 200.452 224.841 200.696 224.658 200.88C224.487 201.053 224.366 201.138 224.366 201.139C224.365 201.14 224.385 201.125 224.435 201.093C224.486 201.06 224.557 201.016 224.657 200.957L221.082 194.939L217.507 188.921C215.862 189.898 213.45 191.532 212.298 194.967C211.863 196.262 211.704 197.542 211.615 198.55C211.524 199.582 211.474 200.801 211.421 202.079L218.415 202.367ZM148.685 126.001L149.658 132.933C151.68 132.65 155.458 132.421 159.671 132.785C163.939 133.154 168.089 134.084 171.227 135.738L174.491 129.545L177.754 123.353C172.315 120.486 166.099 119.288 160.876 118.837C155.6 118.381 150.764 118.641 147.712 119.069L148.685 126.001ZM174.491 129.545L171.227 135.738C171.32 135.787 171.412 135.837 171.503 135.887L174.884 129.757L178.264 123.628C178.095 123.534 177.925 123.443 177.754 123.353L174.491 129.545ZM174.491 129.545L178.256 135.446C180.874 133.776 189.749 130.397 199.686 133.724L201.908 127.086L204.131 120.449C189.34 115.496 176.083 120.226 170.725 123.644L174.491 129.545ZM201.908 127.086L199.686 133.724C204.094 135.2 208.244 138.663 211.632 143.1C215.024 147.542 217.121 152.267 217.814 155.279L224.636 153.71L231.457 152.141C230.25 146.891 227.165 140.374 222.759 134.604C218.35 128.829 212.086 123.112 204.131 120.449L201.908 127.086ZM224.636 153.71L217.672 152.999C217.094 158.656 216.51 170.332 217.245 179.397L224.222 178.831L231.2 178.265C230.555 170.326 231.075 159.558 231.599 154.421L224.636 153.71ZM224.222 178.831L217.245 179.397C217.353 180.729 217.083 181.699 216.869 182.198C216.753 182.469 216.703 182.487 216.843 182.31C216.901 182.238 217.13 181.954 217.556 181.617C217.771 181.447 218.157 181.167 218.703 180.906C219.201 180.668 220.215 180.261 221.578 180.261V187.261V194.261C224.157 194.261 225.874 192.887 226.24 192.598C226.923 192.058 227.444 191.474 227.813 191.008C228.576 190.047 229.223 188.912 229.737 187.711C230.784 185.269 231.505 182.025 231.2 178.265L224.222 178.831ZM221.578 187.261L226.134 181.946C224.893 180.882 222.69 178.141 220.714 174.119C218.786 170.195 217.374 165.65 217.165 161.225L210.173 161.555L203.181 161.885C203.501 168.678 205.601 175.107 208.148 180.292C210.648 185.38 213.883 189.883 217.021 192.575L221.578 187.261ZM210.173 161.555L217.165 161.225C217.076 159.342 217.479 159.125 217.211 159.507C216.862 160.006 216.433 160.051 216.728 159.987C217.162 159.894 217.987 159.854 219.358 160.002C220.884 160.165 221.847 160.38 223.636 160.638L224.636 153.71L225.635 146.782C224.821 146.664 222.609 146.27 220.852 146.081C218.941 145.876 216.376 145.742 213.779 146.302C211.042 146.891 207.942 148.337 205.743 151.476C203.627 154.498 203.005 158.16 203.181 161.885L210.173 161.555ZM201.908 127.086L206.278 132.555C206.275 132.557 206.462 132.414 206.92 132.205C207.361 132.004 207.966 131.781 208.734 131.582C210.275 131.182 212.315 130.918 214.724 131.023C219.49 131.231 225.64 132.881 232.101 137.704L236.289 132.094L240.476 126.484C231.73 119.957 222.866 117.364 215.333 117.036C208.156 116.724 201.479 118.47 197.539 121.617L201.908 127.086ZM236.289 132.094L232.101 137.704C233.633 138.847 234.262 139.519 234.657 141.063C235.19 143.145 235.372 147.442 233.144 156.147L239.925 157.883L246.706 159.619C249.148 150.081 249.619 143.056 248.22 137.591C246.683 131.588 243.159 128.487 240.476 126.484L236.289 132.094ZM239.925 157.883L233.144 156.147C231.006 164.498 228.301 171.752 225.707 177.369C223.037 183.152 220.698 186.737 219.477 188.092L224.675 192.78L229.873 197.469C232.507 194.547 235.549 189.452 238.418 183.238C241.363 176.859 244.355 168.803 246.706 159.619L239.925 157.883ZM224.675 192.78L219.477 188.092C219.4 188.177 219.342 188.237 219.304 188.274L224.222 193.255L229.141 198.235C229.394 197.986 229.638 197.729 229.872 197.469L224.675 192.78ZM224.222 193.255L219.304 188.274C219.755 187.829 220.711 187.043 222.213 186.688L223.825 193.5L225.436 200.312C227.195 199.896 228.416 198.952 229.141 198.235L224.222 193.255ZM223.825 193.5L222.213 186.688C224.039 186.256 225.734 186.675 226.956 187.39C228.009 188.005 228.574 188.746 228.78 189.038C229.174 189.599 229.22 189.923 229.099 189.538C228.909 188.929 228.687 187.796 228.531 186.451L221.578 187.261L214.625 188.071C214.824 189.779 215.169 191.896 215.736 193.71C215.993 194.536 216.464 195.864 217.329 197.093C218.005 198.054 220.781 201.413 225.436 200.312L223.825 193.5ZM221.082 194.939L224.657 200.957C224.909 200.808 224.904 200.815 224.825 200.855C224.702 200.917 224.352 201.082 223.849 201.206C222.788 201.468 221.984 201.3 222.394 201.355L223.334 194.419L224.274 187.482C223.621 187.394 222.172 187.2 220.491 187.615C219.001 187.983 217.812 188.739 217.507 188.921L221.082 194.939ZM223.334 194.419L222.394 201.355C223.386 201.49 224.755 201.477 226.218 200.885C227.75 200.265 228.895 199.208 229.642 198.047C230.929 196.047 230.874 194.04 230.841 193.391L223.85 193.742L216.859 194.094C216.847 193.862 216.742 192.222 217.87 190.47C218.537 189.433 219.574 188.47 220.967 187.907C222.292 187.371 223.489 187.376 224.274 187.482L223.334 194.419ZM223.85 193.742L230.841 193.391C230.823 193.034 230.786 192.71 230.743 192.432L223.825 193.5L216.907 194.568C216.889 194.456 216.869 194.295 216.859 194.094L223.85 193.742ZM223.825 193.5L230.743 192.432C230.618 191.623 230.404 190.907 230.213 190.373L223.623 192.735L217.034 195.097C217.017 195.051 216.999 194.995 216.98 194.924C216.962 194.857 216.933 194.737 216.907 194.568L223.825 193.5ZM223.623 192.735L230.213 190.373C230.07 189.975 229.888 189.535 229.666 189.1C229.559 188.89 229.392 188.581 229.163 188.24C229.067 188.096 228.463 187.157 227.354 186.362C226.844 185.996 225.235 184.929 222.888 185.051C219.924 185.205 218.028 187.061 217.163 188.567C216.453 189.803 216.307 190.934 216.263 191.343C216.206 191.872 216.219 192.306 216.233 192.558C216.283 193.416 216.481 194.179 216.566 194.5L223.334 192.712L230.102 190.924C230.042 190.698 230.173 191.102 230.21 191.754C230.222 191.954 230.236 192.345 230.182 192.84C230.142 193.216 230.002 194.323 229.302 195.542C228.446 197.031 226.563 198.879 223.613 199.032C221.282 199.153 219.69 198.093 219.199 197.741C218.128 196.974 217.571 196.09 217.528 196.025C217.352 195.763 217.243 195.556 217.197 195.466C217.098 195.272 217.052 195.147 217.034 195.097L223.623 192.735ZM224.222 193.255L218.659 189.007L218.286 189.495L223.85 193.742L229.414 197.99L229.786 197.503L224.222 193.255ZM223.85 193.742L218.286 189.495L217.77 190.171L223.334 194.419L228.898 198.667L229.414 197.99L223.85 193.742ZM218.415 202.367L217.316 209.28C220.488 209.784 226.561 210.585 232.474 209.106C235.536 208.34 238.813 206.904 241.619 204.284C244.479 201.615 246.483 198.057 247.452 193.683L240.617 192.169L233.783 190.655C233.369 192.524 232.672 193.484 232.066 194.05C231.407 194.665 230.454 195.18 229.077 195.524C226.111 196.266 222.466 195.923 219.515 195.454L218.415 202.367Z" fill="black"/>
<path d="M171.014 190.772C165.919 200.698 153.946 215.666 146.817 196.123C137.907 171.694 125.386 136.407 151.349 129.892C156.065 129.231 167.362 128.985 175.335 133.186C179.041 130.821 189.327 127.054 200.819 130.901C204.864 127.669 218.64 125.007 232.774 135.554C236.692 138.477 240.494 142.566 236.154 159.518C231.813 176.47 224.358 187.333 220.876 190.772C222.025 193.305 227.605 197.921 237.997 193.951C234.495 201.645 221.853 201.758 216.161 200.854L216.153 201.046C216.12 201.867 216.081 202.804 216.028 203.878C215.721 210.082 214.5 221.407 212.418 227.609C209.661 232.031 206.088 234.977 197.976 234.977C189.865 234.977 187.427 227.066 187.222 223.111V198.527C187.099 201.691 185.148 203.025 183.305 203.878C171.014 208.144 167.942 204.886 166.712 202.715C178.619 198.915 180.642 194.83 179.464 193.176C176.821 193.424 172.73 191.676 171.014 190.772Z" fill="#15304B"/>
<path d="M146.817 196.123L144.938 196.808L144.938 196.808L146.817 196.123ZM151.349 129.892L151.071 127.912L150.966 127.927L150.863 127.953L151.349 129.892ZM175.7 133.382L177.098 134.813L179.024 132.931L176.666 131.631L175.7 133.382ZM184.687 179.914L182.743 179.446L182.743 179.446L184.687 179.914ZM181.461 156.261L180.462 157.993L180.462 157.993L181.461 156.261ZM166.712 202.715L166.104 200.809C165.531 200.993 165.07 201.424 164.85 201.985C164.631 202.546 164.675 203.176 164.972 203.7L166.712 202.715ZM183.305 203.878L183.96 205.768L184.054 205.735L184.145 205.693L183.305 203.878ZM187.222 198.527L185.224 198.449L185.224 198.449L187.222 198.527ZM187.222 223.111H185.222V223.163L185.225 223.215L187.222 223.111ZM212.418 227.609L214.115 228.667L214.239 228.468L214.314 228.246L212.418 227.609ZM216.028 203.878L218.026 203.977L218.026 203.977L216.028 203.878ZM216.153 201.046L214.155 200.964L214.155 200.964L216.153 201.046ZM216.161 200.854L214.163 200.771L214.163 200.771L216.161 200.854ZM217.496 192.324L216.475 190.605L216.475 190.605L217.496 192.324ZM200.819 130.901L200.184 132.797L200.184 132.797L200.819 130.901ZM221.943 155.64L223.933 155.843L223.966 155.514L223.892 155.192L221.943 155.64ZM221.559 178.984L219.565 179.145L219.565 179.145L221.559 178.984ZM208.5 162.93L206.502 163.024L206.502 163.024L208.5 162.93ZM232.774 135.554L231.578 137.157L231.578 137.157L232.774 135.554ZM236.154 159.518L234.216 159.022L236.154 159.518ZM237.997 193.951L239.818 194.78C240.154 194.042 240.011 193.173 239.455 192.582C238.899 191.991 238.042 191.793 237.284 192.083L237.997 193.951ZM171.014 190.772L169.235 189.858C168.008 192.249 166.37 194.935 164.511 197.312C162.632 199.714 160.628 201.671 158.699 202.755C156.818 203.811 155.249 203.929 153.839 203.168C152.278 202.325 150.418 200.157 148.696 195.437L146.817 196.123L144.938 196.808C146.781 201.86 149.091 205.15 151.939 206.687C154.938 208.306 158.017 207.726 160.658 206.242C163.25 204.786 165.639 202.362 167.662 199.776C169.703 197.165 171.473 194.258 172.793 191.685L171.014 190.772ZM146.817 196.123L148.696 195.437C144.218 183.159 138.972 168.499 137.999 156.133C137.514 149.964 138.116 144.6 140.218 140.459C142.272 136.414 145.857 133.333 151.836 131.832L151.349 129.892L150.863 127.953C143.86 129.71 139.274 133.482 136.651 138.649C134.077 143.719 133.498 149.926 134.012 156.447C135.036 169.46 140.506 184.657 144.938 196.808L146.817 196.123ZM175.7 133.382L174.302 131.952C172.151 134.054 169.148 137.886 166.919 142.715C164.686 147.55 163.164 153.528 164.201 159.842L166.175 159.518L168.148 159.194C167.28 153.906 168.536 148.754 170.55 144.392C172.568 140.023 175.28 136.588 177.098 134.813L175.7 133.382ZM166.175 159.518L164.176 159.447C164.075 162.321 163.828 166.064 163.603 169.679C163.38 173.254 163.176 176.736 163.176 178.984H165.176H167.176C167.176 176.888 167.369 173.545 167.595 169.928C167.818 166.349 168.07 162.531 168.174 159.588L166.175 159.518ZM165.176 178.984H163.176C163.176 180.714 163.803 183.247 164.858 185.652C165.918 188.068 167.554 190.689 169.82 192.376L171.014 190.772L172.209 189.168C170.725 188.063 169.443 186.146 168.521 184.045C167.594 181.933 167.176 179.968 167.176 178.984H165.176ZM171.014 190.772L170.081 192.541C171.026 193.039 172.579 193.747 174.263 194.305C175.889 194.843 177.9 195.331 179.651 195.167L179.464 193.176L179.277 191.185C178.385 191.268 177.029 191.007 175.52 190.507C174.068 190.027 172.718 189.409 171.947 189.003L171.014 190.772ZM179.464 193.176L181.429 193.547C181.49 193.226 181.758 192.434 182.244 191.209C182.703 190.049 183.288 188.672 183.886 187.274C184.479 185.888 185.086 184.478 185.573 183.293C186.037 182.165 186.467 181.067 186.632 180.383L184.687 179.914L182.743 179.446C182.665 179.77 182.371 180.563 181.874 181.771C181.4 182.923 180.809 184.296 180.208 185.701C179.612 187.095 179.007 188.519 178.525 189.734C178.07 190.883 177.643 192.04 177.499 192.805L179.464 193.176ZM184.687 179.914L186.632 180.383C187.038 178.694 187.535 173.327 187.291 168.049C187.168 165.389 186.852 162.625 186.192 160.283C185.562 158.046 184.483 155.695 182.461 154.528L181.461 156.261L180.462 157.993C181.052 158.334 181.769 159.335 182.342 161.367C182.885 163.294 183.179 165.717 183.295 168.234C183.53 173.312 183.028 178.265 182.743 179.446L184.687 179.914ZM181.461 156.261L182.461 154.528C179.606 152.881 175.917 153.182 172.871 154.011C169.755 154.858 166.728 156.413 164.875 157.998L166.175 159.518L167.474 161.038C168.796 159.908 171.262 158.594 173.92 157.871C176.648 157.129 179.015 157.158 180.462 157.993L181.461 156.261ZM179.464 193.176L177.835 194.336C177.707 194.156 177.79 194.051 177.733 194.236C177.662 194.464 177.405 194.964 176.639 195.67C175.103 197.087 171.939 198.947 166.104 200.809L166.712 202.715L167.321 204.62C173.393 202.682 177.193 200.6 179.351 198.611C180.431 197.615 181.203 196.546 181.552 195.424C181.915 194.259 181.81 193.022 181.093 192.016L179.464 193.176ZM166.712 202.715L164.972 203.7C165.779 205.125 167.263 206.951 170.422 207.662C173.411 208.334 177.672 207.95 183.96 205.768L183.305 203.878L182.649 201.989C176.647 204.072 173.226 204.192 171.299 203.759C169.542 203.364 168.875 202.476 168.453 201.73L166.712 202.715ZM183.305 203.878L184.145 205.693C185.162 205.223 186.406 204.534 187.412 203.389C188.458 202.196 189.142 200.629 189.221 198.605L187.222 198.527L185.224 198.449C185.18 199.589 184.826 200.271 184.406 200.75C183.944 201.276 183.291 201.681 182.465 202.063L183.305 203.878ZM187.222 198.527L189.221 198.605C189.314 196.198 188.643 194.065 186.617 192.707C184.829 191.508 182.32 191.176 179.464 191.176V193.176V195.176C182.215 195.176 183.663 195.542 184.39 196.029C184.88 196.358 185.284 196.9 185.224 198.449L187.222 198.527ZM187.222 198.527H185.222V223.111H187.222H189.222V198.527H187.222ZM187.222 223.111L185.225 223.215C185.341 225.457 186.075 228.796 187.97 231.637C189.924 234.565 193.14 236.977 197.976 236.977V234.977V232.977C194.701 232.977 192.643 231.433 191.298 229.417C189.895 227.315 189.308 224.72 189.22 223.008L187.222 223.111ZM197.976 234.977V236.977C202.273 236.977 205.563 236.196 208.199 234.687C210.838 233.176 212.636 231.04 214.115 228.667L212.418 227.609L210.721 226.551C209.443 228.6 208.076 230.149 206.211 231.216C204.344 232.285 201.791 232.977 197.976 232.977V234.977ZM212.418 227.609L214.314 228.246C216.49 221.765 217.717 210.206 218.026 203.977L216.028 203.878L214.031 203.779C213.725 209.958 212.511 221.048 210.522 226.973L212.418 227.609ZM216.028 203.878L218.026 203.977C218.079 202.894 218.118 201.949 218.152 201.128L216.153 201.046L214.155 200.964C214.121 201.786 214.083 202.715 214.031 203.779L216.028 203.878ZM216.153 201.046L218.152 201.128L218.16 200.936L216.161 200.854L214.163 200.771L214.155 200.964L216.153 201.046ZM216.161 200.854L218.16 200.936C218.214 199.621 218.181 198.49 218.141 197.54C218.1 196.549 218.058 195.868 218.071 195.278C218.084 194.702 218.152 194.453 218.204 194.338C218.228 194.283 218.271 194.19 218.517 194.044L217.496 192.324L216.475 190.605C215.61 191.118 214.956 191.804 214.554 192.701C214.179 193.537 214.09 194.413 214.072 195.187C214.055 195.947 214.109 196.843 214.145 197.707C214.183 198.613 214.21 199.618 214.163 200.771L216.161 200.854ZM151.349 129.892L151.627 131.873C153.838 131.563 157.69 131.34 161.949 131.708C166.223 132.077 170.745 133.028 174.402 134.955L175.335 133.186L176.267 131.416C171.952 129.143 166.84 128.116 162.293 127.723C157.731 127.329 153.577 127.56 151.071 127.912L151.349 129.892ZM175.335 133.186L174.402 134.955C174.514 135.014 174.625 135.073 174.734 135.134L175.7 133.382L176.666 131.631C176.533 131.558 176.401 131.487 176.267 131.416L175.335 133.186ZM175.335 133.186L176.41 134.872C179.726 132.757 189.385 129.183 200.184 132.797L200.819 130.901L201.453 129.004C189.269 124.925 178.357 128.885 174.259 131.499L175.335 133.186ZM200.819 130.901L200.184 132.797C205.423 134.551 209.96 138.495 213.438 143.048C216.917 147.602 219.184 152.569 219.994 156.089L221.943 155.64L223.892 155.192C222.935 151.033 220.386 145.554 216.617 140.62C212.847 135.684 207.706 131.097 201.453 129.004L200.819 130.901ZM221.943 155.64L219.953 155.437C219.434 160.526 218.911 171.084 219.565 179.145L221.559 178.984L223.552 178.822C222.924 171.082 223.428 160.784 223.933 155.843L221.943 155.64ZM221.559 178.984L219.565 179.145C219.735 181.233 219.429 183.135 219.023 184.488C218.819 185.169 218.605 185.658 218.449 185.936C218.367 186.082 218.337 186.106 218.376 186.063C218.396 186.042 218.478 185.955 218.625 185.861C218.76 185.775 219.092 185.593 219.57 185.593V187.593V189.593C220.125 189.593 220.543 189.382 220.77 189.237C221.011 189.084 221.194 188.909 221.319 188.772C221.571 188.499 221.776 188.182 221.939 187.891C222.274 187.294 222.591 186.517 222.855 185.637C223.385 183.868 223.767 181.465 223.552 178.822L221.559 178.984ZM219.57 187.593L220.872 186.075C219.114 184.568 216.615 181.265 214.484 176.973C212.369 172.71 210.727 167.691 210.498 162.836L208.5 162.93L206.502 163.024C206.765 168.592 208.623 174.16 210.901 178.751C213.165 183.312 215.955 187.129 218.268 189.112L219.57 187.593ZM208.5 162.93L210.498 162.836C210.387 160.493 210.832 159.183 211.351 158.443C211.846 157.736 212.584 157.298 213.644 157.07C214.743 156.833 216.07 156.852 217.518 157.008C219.011 157.168 220.308 157.425 221.657 157.62L221.943 155.64L222.228 153.661C221.158 153.506 219.504 153.198 217.945 153.03C216.343 152.859 214.519 152.79 212.801 153.16C211.044 153.538 209.298 154.402 208.075 156.148C206.875 157.861 206.367 160.155 206.502 163.024L208.5 162.93ZM200.819 130.901L202.067 132.463C203.586 131.25 207.503 129.822 212.926 130.058C218.247 130.29 224.837 132.127 231.578 137.157L232.774 135.554L233.97 133.951C226.577 128.434 219.212 126.328 213.1 126.062C207.091 125.801 202.097 127.32 199.57 129.338L200.819 130.901ZM232.774 135.554L231.578 137.157C233.372 138.496 234.888 139.902 235.623 142.771C236.397 145.794 236.356 150.665 234.216 159.022L236.154 159.518L238.091 160.014C240.292 151.419 240.52 145.769 239.498 141.779C238.437 137.635 236.093 135.536 233.97 133.951L232.774 135.554ZM236.154 159.518L234.216 159.022C229.947 175.696 222.646 186.214 219.471 189.348L220.876 190.772L222.281 192.195C226.071 188.453 233.68 177.244 238.091 160.014L236.154 159.518ZM220.876 190.772L221.401 188.842C221.334 188.823 221.273 188.809 221.233 188.799C221.185 188.787 221.169 188.783 221.153 188.779C221.124 188.771 221.197 188.788 221.3 188.837C221.422 188.894 221.556 188.982 221.679 189.104C221.795 189.219 221.857 189.324 221.883 189.373C221.917 189.438 221.872 189.377 221.796 189.002C221.725 188.651 221.647 188.133 221.557 187.362L219.57 187.593L217.584 187.825C217.678 188.636 217.772 189.284 217.876 189.797C217.975 190.286 218.109 190.788 218.34 191.229C218.616 191.757 219.025 192.184 219.585 192.451C219.814 192.559 220.02 192.617 220.134 192.647C220.397 192.716 220.184 192.656 220.351 192.702L220.876 190.772ZM217.496 192.324L218.517 194.044C218.781 193.887 219.092 193.683 219.343 193.522C219.619 193.345 219.876 193.184 220.122 193.047C220.372 192.908 220.56 192.824 220.69 192.78C220.837 192.731 220.784 192.777 220.607 192.754L220.876 190.772L221.145 188.79C220.474 188.699 219.864 188.839 219.424 188.986C218.967 189.138 218.539 189.351 218.18 189.55C217.816 189.752 217.469 189.971 217.181 190.156C216.869 190.357 216.658 190.496 216.475 190.605L217.496 192.324ZM216.161 200.854L215.847 202.829C218.874 203.31 223.705 203.521 228.299 202.587C232.829 201.665 237.666 199.506 239.818 194.78L237.997 193.951L236.177 193.123C234.826 196.09 231.591 197.835 227.501 198.667C223.476 199.486 219.14 199.302 216.475 198.878L216.161 200.854ZM220.876 190.772L219.055 191.598C220.728 195.285 227.54 200.087 238.711 195.82L237.997 193.951L237.284 192.083C227.67 195.755 223.323 191.325 222.697 189.945L220.876 190.772Z" fill="white"/>
<path d="M217.242 159.74C217.242 161.07 215.627 162.306 213.783 161.345C211.477 160.143 217.242 159.4 217.242 159.74Z" fill="#15304B" stroke="white" stroke-width="2"/>
<path d="M176.324 159.74C176.324 161.07 177.94 162.306 179.784 161.345C182.089 160.143 176.324 159.4 176.324 159.74Z" fill="#15304B" stroke="white" stroke-width="2"/>
<path d="M372.621 94.7269C363.224 111.041 357.536 127.216 355.811 140.06C354.947 146.494 355.109 151.86 356.124 155.907C357.134 159.936 358.874 162.283 360.92 163.478C362.966 164.673 365.855 165.028 369.829 163.91C373.822 162.787 378.528 160.264 383.646 156.314C393.862 148.428 404.982 135.426 414.379 119.112C423.777 102.797 429.463 86.6228 431.188 73.7787C432.052 67.3452 431.89 61.9793 430.876 57.9317C429.866 53.9032 428.125 51.5556 426.079 50.3607C424.033 49.166 421.145 48.8104 417.17 49.9284C413.177 51.0517 408.471 53.575 403.354 57.5248C393.138 65.4104 382.019 78.4125 372.621 94.7269Z" stroke="#1E5261" stroke-width="9"/>
<path d="M414.379 94.7269C423.776 111.041 429.464 127.216 431.189 140.06C432.053 146.494 431.891 151.86 430.876 155.907C429.866 159.936 428.126 162.283 426.08 163.478C424.034 164.673 421.145 165.028 417.171 163.91C413.178 162.787 408.472 160.264 403.354 156.314C393.138 148.428 382.018 135.426 372.621 119.112C363.223 102.797 357.537 86.6228 355.812 73.7787C354.948 67.3452 355.11 61.9793 356.124 57.9317C357.134 53.9032 358.875 51.5556 360.921 50.3607C362.967 49.166 365.855 48.8104 369.83 49.9284C373.823 51.0517 378.529 53.575 383.646 57.5248C393.862 65.4104 404.981 78.4125 414.379 94.7269Z" stroke="#1E5261" stroke-width="9"/>
<path d="M393.573 82.5948C374.849 82.5382 358.099 85.6478 346.191 90.5502C340.228 93.0055 335.693 95.8229 332.717 98.7273C329.757 101.616 328.593 104.317 328.586 106.724C328.579 109.13 329.726 111.838 332.669 114.745C335.628 117.667 340.146 120.511 346.095 123.002C357.972 127.976 374.704 131.187 393.428 131.244C412.152 131.301 428.902 128.191 440.809 123.289C446.773 120.833 451.307 118.017 454.283 115.112C457.243 112.223 458.407 109.523 458.414 107.116C458.421 104.71 457.274 102.002 454.331 99.095C451.372 96.1727 446.855 93.3279 440.906 90.8366C429.028 85.8623 412.297 82.6514 393.573 82.5948Z" stroke="#1E5261" stroke-width="9"/>
<mask id="path-12-inside-1_31_53" fill="white">
<ellipse cx="393.38" cy="106.926" rx="13.1232" ry="13.2132"/>
</mask>
<ellipse cx="393.38" cy="106.926" rx="13.1232" ry="13.2132" fill="#1E5261"/>
<path d="M406.503 106.926H386.503C386.503 103.307 389.453 100.139 393.38 100.139V120.139V140.139C411.802 140.139 426.503 125.14 426.503 106.926H406.503ZM393.38 120.139V100.139C397.306 100.139 400.257 103.307 400.257 106.926H380.257H360.257C360.257 125.14 374.958 140.139 393.38 140.139V120.139ZM380.257 106.926H400.257C400.257 110.545 397.306 113.713 393.38 113.713V93.7128V73.7128C374.958 73.7128 360.257 88.7119 360.257 106.926H380.257ZM393.38 93.7128V113.713C389.453 113.713 386.503 110.545 386.503 106.926H406.503H426.503C426.503 88.7119 411.802 73.7128 393.38 73.7128V93.7128Z" fill="#1E5261" mask="url(#path-12-inside-1_31_53)"/>
<ellipse cx="601.735" cy="285.86" rx="8.11708" ry="7.63951" fill="white"/>
<ellipse cx="564.015" cy="192.276" rx="7.63961" ry="7.63951" fill="white"/>
<path d="M617.592 209.309C617.887 209.261 618.051 209.47 618.088 209.524C618.119 209.57 618.137 209.614 618.146 209.642H630.007L630.05 209.65C633.444 210.246 637.52 212.03 640.725 216.695C643.821 221.199 646.073 228.343 646.179 239.591L646.181 240.693C646.146 252.595 643.353 259.608 639.753 263.83C636.152 268.052 631.804 269.408 628.838 270.127L628.779 270.142H584.905V273.227H614.566V289.394L614.56 289.431C614.217 291.715 612.038 294.928 607.317 297.546C602.725 300.093 595.684 302.107 585.408 302.198L584.403 302.201C562.773 302.129 555.303 293.528 554.166 288.127L554.155 288.077V256.956C553.946 254.541 554.796 250.865 557.372 247.714C559.975 244.53 564.323 241.903 571.062 241.613L571.073 241.612H602.078C611.226 241.612 617.119 233.662 617.119 224.706C617.119 219.831 617.136 216.452 617.152 214.161C617.165 212.415 617.175 211.305 617.18 210.642H617.053L617.123 210.081C617.135 209.986 617.145 209.899 617.154 209.835C617.159 209.804 617.164 209.77 617.17 209.741C617.172 209.727 617.177 209.706 617.183 209.683C617.185 209.679 617.203 209.605 617.251 209.531C617.263 209.512 617.367 209.346 617.592 209.309ZM602.58 280.136C599.735 280.136 597.429 282.442 597.429 285.287C597.43 288.131 599.735 290.437 602.58 290.437C605.425 290.437 607.73 288.131 607.73 285.287C607.73 282.442 605.425 280.136 602.58 280.136Z" fill="#816B24"/>
<path d="M549.59 268.892C549.295 268.939 549.13 268.731 549.094 268.677C549.063 268.631 549.045 268.587 549.035 268.559H537.175L537.132 268.551C533.737 267.954 529.662 266.17 526.456 261.506C523.36 257.002 521.108 249.858 521.003 238.609L521 237.508C521.036 225.605 523.829 218.593 527.429 214.371C531.03 210.149 535.377 208.792 538.344 208.073L538.402 208.059H582.276V204.974H552.615V188.807L552.621 188.77C552.964 186.486 555.143 183.272 559.864 180.654C564.456 178.108 571.497 176.094 581.773 176.003L582.778 176C604.409 176.072 611.879 184.673 613.016 190.073L613.026 190.124V221.245C613.235 223.66 612.385 227.336 609.81 230.486C607.206 233.671 602.858 236.298 596.119 236.588L596.108 236.589H565.103C555.955 236.589 550.063 244.539 550.062 253.494C550.062 258.37 550.046 261.749 550.029 264.04C550.017 265.786 550.006 266.896 550.001 267.559H550.129L550.059 268.12C550.047 268.215 550.036 268.301 550.027 268.365C550.023 268.397 550.017 268.431 550.012 268.46C550.009 268.474 550.004 268.495 549.998 268.518C549.996 268.524 549.978 268.597 549.931 268.67C549.918 268.69 549.814 268.855 549.59 268.892ZM564.602 198.065C567.446 198.065 569.753 195.759 569.753 192.914C569.753 190.07 567.446 187.763 564.602 187.763C561.757 187.763 559.451 190.07 559.451 192.914C559.451 195.759 561.757 198.064 564.602 198.065Z" fill="black"/>
<path d="M467 395.157H563.662L554.745 494.016L515.072 505L475.529 494.016L467 395.157Z" fill="#152253"/>
<path d="M548.002 487.864L515.331 497.246L515.544 403.427H555.346L548.002 487.864Z" fill="#213972"/>
<path d="M505.299 387V381.169H496.88V375.085H505.299V369H490.662V387H505.299Z" fill="black"/>
<path d="M522.916 387H508.408V382.31H516.828V379.268H508.408V369H522.916V373.69H514.367V376.606H522.916V387Z" fill="black"/>
<path d="M540.662 387H526.154V382.31H534.574V379.268H526.154V369H540.662V373.69H532.113V376.606H540.662V387Z" fill="black"/>
<path d="M505.299 387V381.169H496.88V375.085H505.299V369H490.662V387H505.299Z" stroke="black"/>
<path d="M522.916 387H508.408V382.31H516.828V379.268H508.408V369H522.916V373.69H514.367V376.606H522.916V387Z" stroke="black"/>
<path d="M540.662 387H526.154V382.31H534.574V379.268H526.154V369H540.662V373.69H532.113V376.606H540.662V387Z" stroke="black"/>
<path d="M540.272 477.087L515.331 483.936V471.272L528.9 467.653L530.321 452.017H515.331V439.74H531.355L532.518 427.593H515.331L515.46 415.316H545.828L540.272 477.087Z" fill="white"/>
<path d="M501.116 457.961L502.021 467.653L515.331 471.272V483.936L490.649 477.087L488.969 457.961H501.116Z" fill="#F2F2F2"/>
<path d="M486.255 427.593L485.092 415.316H515.46L515.331 427.593H486.255Z" fill="#F2F2F2"/>
<path d="M488.452 452.017L487.289 439.74H515.331V452.017H488.452Z" fill="#F2F2F2"/>
<path d="M276 403.157H372.662L363.745 502.016L324.072 513L284.529 502.016L276 403.157Z" fill="#4F1E12"/>
<path d="M357.003 495.864L324.331 505.246L324.544 411.427H364.346L357.003 495.864Z" fill="#7A3E25"/>
<path d="M349.272 485.087L324.331 491.936V479.272L337.9 475.653L339.321 460.017H324.331V447.74H340.355H352.632L349.272 485.087Z" fill="white"/>
<path d="M341.518 435.593H324.331L324.46 423.316H354.829L353.724 435.593H341.518Z" fill="white"/>
<path d="M310.116 465.961L311.021 475.653L324.331 479.272V491.936L299.649 485.087L297.969 465.961H310.116Z" fill="#F2F2F2"/>
<path d="M295.255 435.593L294.092 423.316H324.46L324.331 435.593H309.793L311.021 447.74H324.331V460.017H297.452L296.289 447.74L295.255 435.593Z" fill="#F2F2F2"/>
<path d="M293.138 383.496V378H287.505V395H293.138V389.376H298.515V395H304.148V378H298.515V383.496H293.138Z" fill="black"/>
<path d="M306.965 383.496H311.83V395H317.719V383.496H322.584V378H306.965V383.496Z" fill="black"/>
<path d="M325.401 378V395H331.034V386.692L335.003 392.699L338.972 386.692V395H344.605V378H338.972L335.003 383.496L331.034 378H325.401Z" fill="black"/>
<path d="M347.678 378V395H361.505V389.376H353.183V378H347.678Z" fill="black"/>
<path d="M90 327.157H186.662L177.745 426.016L138.072 437L98.529 426.016L90 327.157Z" fill="#64571D"/>
<path d="M171.002 419.864L138.331 429.246L138.544 335.427H178.346L171.002 419.864Z" fill="#91802A"/>
<path d="M167.665 409.087L142.725 415.936V403.272L156.293 399.653L157.715 384.017H142.725V371.74V359.593L142.854 347.316H173.222L172.118 359.593H159.912H150.737V371.74H171.025L167.665 409.087Z" fill="white"/>
<path d="M134.375 415.936L109.563 408.958L108.224 396.555L123.907 400.426V359.593V347.316H134.504L134.375 359.593V371.74V384.017V403.272V415.936Z" fill="#F2F2F2"/>
<path d="M136.835 319H123V313.294H131.326V302H136.835V319Z" fill="black"/>
<path d="M139.653 314.364V319H154V309.014H145.545V306.28H154V302H139.653V311.51H147.979V314.364H139.653Z" fill="black"/>
<path d="M136.835 319H123V313.294H131.326V302H136.835V319Z" stroke="black"/>
<path d="M139.653 314.364V319H154V309.014H145.545V306.28H154V302H139.653V311.51H147.979V314.364H139.653Z" stroke="black"/>
<path d="M346.762 320.126L361.932 330L414 300.243V243.028L361.932 213L310 243.028V300.243L333.096 312.146C336.604 313.904 343.619 314.31 343.619 301.866C343.619 289.422 343.619 262.956 343.619 251.279M356.465 280.224C356.465 284.553 359.198 293.886 374.778 293.886C389.127 293.886 395.687 289.828 395.551 281.712C395.414 273.597 380.108 272.379 375.325 271.432C370.541 270.486 358.515 272.109 358.515 260.747C358.515 252.009 370.268 250.332 375.325 250.332C379.834 250.332 392.817 250.332 393.364 262.235" stroke="#082512" stroke-width="12"/>
</svg>
