<svg width="83" height="83" viewBox="0 0 83 83" fill="none" xmlns="http://www.w3.org/2000/svg">
<path d="M27.4772 82.59C27.447 82.5696 27.4179 82.5488 27.39 82.5273C27.8354 82.6904 28.2783 82.8447 28.7187 82.9905C28.2396 82.9526 27.795 82.8033 27.4772 82.59ZM55.6099 82.5273C55.486 82.5909 55.3651 82.6449 55.2473 82.6902C55.1024 82.7459 54.9622 82.7883 54.8266 82.8187C55.0926 82.723 55.3538 82.6258 55.6099 82.5273Z" fill="white"/>
<path d="M27.4772 82.59C27.447 82.5696 27.4179 82.5488 27.39 82.5273C27.8354 82.6904 28.2783 82.8447 28.7187 82.9905C30.0049 83.0924 31.5399 82.392 31.5399 79.9749V73.1686C27.6666 74.0194 19.4217 74.3597 17.4297 68.9146C15.4377 63.4695 13.5563 62.3918 12.4496 62.1082C11.0663 61.541 9.29585 59.3856 13.2799 58.705C16.5999 58.705 19.9198 63.2426 20.7499 65.5114C21.5799 67.213 28.2198 68.9146 31.5399 67.213C31.5399 65.5114 32.3699 62.1082 34.0299 61.2574C31.5399 61.2574 21.5799 61.2574 16.5999 50.197C12.4499 38.2859 16.5999 32.3303 19.0899 28.9271C18.2599 26.3747 17.4299 20.4191 19.9199 17.0159C23.7749 17.0159 27.8685 19.7078 30.8703 21.6817C31.1 21.8328 31.3233 21.9796 31.5397 22.1207C34.8598 20.9863 43.6579 19.3982 52.2899 22.1207C56.4399 18.7175 58.0999 17.8667 63.0799 17.0159C64.1866 18.4339 65.9019 23.482 63.9099 28.9271C66.3999 31.1959 70.3839 38.6262 66.3999 50.197C63.0799 59.5558 51.4599 61.2574 48.9699 61.2574C49.1999 61.4931 49.4776 61.7043 49.7734 61.9292C50.9009 62.7867 52.29 63.8431 52.2899 67.213C52.2899 68.5724 52.2616 70.1345 52.2322 71.7605C52.1696 75.2227 52.1017 78.975 52.2899 81.6765C52.7511 82.3857 53.5967 83.0948 54.8266 82.8187C55.0926 82.723 55.3538 82.6258 55.6099 82.5273C55.486 82.5909 55.3651 82.6449 55.2473 82.6902C71.4107 76.8754 83 61.0949 83 42.5399C83 19.0457 64.4198 0 41.5 0C18.5802 0 0 19.0457 0 42.5399C0 60.9893 11.4578 76.6957 27.4772 82.59Z" fill="white"/>
</svg>
