<svg width="752" height="573" viewBox="0 0 752 573" fill="none" xmlns="http://www.w3.org/2000/svg">
<mask id="mask0_63_409" style="mask-type:alpha" maskUnits="userSpaceOnUse" x="0" y="0" width="752" height="573">
<path d="M542.249 32.4161C614.649 70.8161 639.916 137.583 632.749 172.417C634.249 187.25 618.75 231.325 660.249 255.916C692.649 275.116 750.648 302.916 751.749 358.416C755.749 560.016 370.513 602.571 207.25 553.416C36.5115 489.571 -68.7885 311.072 52.0115 157.072C203.012 -35.428 451.749 -15.5839 542.249 32.4161Z" fill="#C5AE66"/>
</mask>
<g mask="url(#mask0_63_409)">
<path d="M719.513 486.54L72.3039 113.697L74.3006 110.231L721.51 483.074L719.513 486.54Z" fill="#C5AE66"/>
<path d="M668.598 84.9517L495.572 -11.6044L497.569 -15.0704L670.594 81.4857L668.598 84.9517Z" fill="#C5AE66"/>
<path d="M714.521 495.205L67.3122 122.362L69.8081 118.03L717.017 490.872L714.521 495.205Z" fill="#C5AE66"/>
<path d="M663.606 93.6167L490.581 -2.93939L493.077 -7.27191L666.102 89.2842L663.606 93.6167Z" fill="#C5AE66"/>
<path d="M710.029 503.003L62.8196 130.161L64.8163 126.695L712.026 499.537L710.029 503.003Z" fill="#C5AE66"/>
<path d="M659.113 101.415L443.577 -20.2694L445.573 -23.7355L661.11 97.9492L659.113 101.415Z" fill="#C5AE66"/>
<path d="M705.536 510.802L58.3271 137.959L60.3238 134.493L707.533 507.336L705.536 510.802Z" fill="#C5AE66"/>
<path d="M654.621 109.214L439.084 -12.4709L441.081 -15.9369L656.617 105.748L654.621 109.214Z" fill="#C5AE66"/>
<path d="M701.044 518.6L53.8346 145.758L55.8312 142.292L703.04 515.134L701.044 518.6Z" fill="#C5AE66"/>
<path d="M650.128 117.012L389.603 -31.534L391.6 -35L652.125 113.546L650.128 117.012Z" fill="#C5AE66"/>
<path d="M696.052 527.265L48.8428 154.423L51.3387 150.09L698.548 522.933L696.052 527.265Z" fill="#C5AE66"/>
<path d="M691.559 151.855L384.611 -22.869L387.107 -27.2015L647.632 121.345L691.559 151.855Z" fill="#C5AE66"/>
<path d="M691.559 535.064L44.3503 162.221L46.347 158.755L693.556 531.598L691.559 535.064Z" fill="#C5AE66"/>
<path d="M687.067 159.653L380.119 -15.0704L382.115 -18.5365L689.064 156.187L687.067 159.653Z" fill="#C5AE66"/>
<path d="M687.067 542.862L39.8577 170.02L41.8544 166.554L689.064 539.396L687.067 542.862Z" fill="#C5AE66"/>
<path d="M682.574 167.452L350.569 -22.869L352.566 -26.335L684.571 163.986L682.574 167.452Z" fill="#C5AE66"/>
<path d="M682.574 550.661L35.3651 177.818L37.3618 174.352L684.571 547.195L682.574 550.661Z" fill="#C5AE66"/>
<path d="M678.082 175.25L346.077 -15.0704L348.073 -18.5365L680.078 171.784L678.082 175.25Z" fill="#C5AE66"/>
<path d="M677.583 559.326L30.3734 186.483L32.8693 182.151L680.078 554.994L677.583 559.326Z" fill="#C5AE66"/>
<path d="M673.09 183.915L341.085 -6.40541L343.581 -10.7379L675.586 179.583L673.09 183.915Z" fill="#C5AE66"/>
<path d="M673.09 567.125L25.8809 194.282L27.8776 190.816L675.087 563.659L673.09 567.125Z" fill="#C5AE66"/>
<path d="M668.598 191.714L314.565 -11.6044L316.562 -15.0704L670.594 188.248L668.598 191.714Z" fill="#C5AE66"/>
<path d="M668.598 574.923L21.3883 202.08L23.385 198.614L670.594 571.457L668.598 574.923Z" fill="#C5AE66"/>
<path d="M664.105 199.512L272.527 -25.81L312.069 -7.27193L666.102 196.046L664.105 199.512Z" fill="#C5AE66"/>
<path d="M664.105 582.722L16.8958 209.879L18.8925 206.413L666.102 579.256L664.105 582.722Z" fill="#C5AE66"/>
<path d="M687.566 223.881L268.034 -18.0114L270.031 -21.4774L661.609 203.845L687.566 223.881Z" fill="#C5AE66"/>
<path d="M659.113 591.387L11.904 218.544L14.3999 214.211L661.609 587.054L659.113 591.387Z" fill="#C5AE66"/>
<path d="M682.574 232.546L263.043 -9.34642L265.539 -13.6789L685.07 228.214L682.574 232.546Z" fill="#C5AE66"/>
<path d="M569.912 550.662L7.41147 226.343L9.40817 222.877L656.617 595.719L569.912 550.662Z" fill="#C5AE66"/>
<path d="M678.082 240.345L258.55 -1.54791L260.547 -5.0139L680.078 236.879L678.082 240.345Z" fill="#C5AE66"/>
<path d="M565.419 558.46L2.91891 234.141L4.91562 230.675L567.416 554.994L565.419 558.46Z" fill="#C5AE66"/>
<path d="M781.411 308.714L254.058 6.25084L256.054 2.78481L675.586 244.678L781.411 308.714Z" fill="#C5AE66"/>
<path d="M560.927 566.259L-1.57364 241.94L0.423065 238.474L562.923 562.793L560.927 566.259Z" fill="#C5AE66"/>
<path d="M776.918 316.512L249.565 14.0494L251.562 10.5834L778.915 313.046L776.918 316.512Z" fill="#C5AE66"/>
<path d="M555.935 574.924L-6.56537 250.605L-4.06949 246.272L558.431 570.591L555.935 574.924Z" fill="#C5AE66"/>
<path d="M771.926 325.177L212.069 4.34479L247.069 18.3819L774.422 320.845L771.926 325.177Z" fill="#C5AE66"/>
<path d="M551.442 582.722L-11.0579 258.403L-9.06122 254.937L553.439 579.256L551.442 582.722Z" fill="#C5AE66"/>
<path d="M797.384 351.365L207.577 12.1433L209.573 8.67729L769.43 329.51L797.384 351.365Z" fill="#C5AE66"/>
<path d="M546.95 590.521L-15.5504 266.202L-13.5538 262.736L548.946 587.055L546.95 590.521Z" fill="#C5AE66"/>
<path d="M792.891 359.164L203.084 19.9418L205.081 16.4758L794.888 355.698L792.891 359.164Z" fill="#C5AE66"/>
<path d="M499.067 574.916L-20.043 274L-18.0463 270.534L544.454 594.853L499.067 574.916Z" fill="#C5AE66"/>
<path d="M788.399 366.962L198.591 27.7404L200.588 24.2743L790.396 363.496L788.399 366.962Z" fill="#C5AE66"/>
<path d="M494.076 583.581L-25.0348 282.665L-22.5388 278.333L496.572 579.248L494.076 583.581Z" fill="#C5AE66"/>
<path d="M783.407 375.627L193.6 36.4054L196.096 32.0729L785.903 371.295L783.407 375.627Z" fill="#C5AE66"/>
<path d="M459.068 574.923L-29.5273 290.464L-27.5306 286.998L491.58 587.913L459.068 574.923Z" fill="#C5AE66"/>
<path d="M778.915 383.426L189.107 44.2039L191.104 40.7379L780.911 379.96L778.915 383.426Z" fill="#C5AE66"/>
<path d="M454.576 582.722L-34.0199 298.262L-32.0232 294.796L456.572 579.256L454.576 582.722Z" fill="#C5AE66"/>
<path d="M774.422 391.224L166.072 39.8714L168.069 36.4054L776.419 387.758L774.422 391.224Z" fill="#C5AE66"/>
<path d="M450.083 590.52L-38.5124 306.061L-36.5157 302.595L452.08 587.054L450.083 590.52Z" fill="#C5AE66"/>
<path d="M769.93 399.023L161.58 47.6699L163.577 44.2039L771.926 395.557L769.93 399.023Z" fill="#C5AE66"/>
<path d="M445.091 599.185L-43.5042 314.726L-41.0083 310.393L447.587 594.853L445.091 599.185Z" fill="#C5AE66"/>
<path d="M764.938 407.688L156.588 56.3349L159.084 52.0024L767.434 403.356L764.938 407.688Z" fill="#C5AE66"/>
<path d="M440.599 606.984L15.0691 359.845L-46 319.058L442.595 603.518L440.599 606.984Z" fill="#C5AE66"/>
<path d="M760.445 415.487L152.096 64.1335L154.092 60.6674L762.442 412.021L760.445 415.487Z" fill="#C5AE66"/>
<path d="M387.57 586.189L10.5765 367.643L12.5732 364.177L389.567 582.723L387.57 586.189Z" fill="#C5AE66"/>
<path d="M755.953 423.285L147.603 71.932L149.6 68.466L757.949 419.819L755.953 423.285Z" fill="#C5AE66"/>
<path d="M383.078 593.987L6.08401 375.442L8.08072 371.976L385.074 590.521L383.078 593.987Z" fill="#C5AE66"/>
<path d="M751.46 431.084L104.251 58.241L145.107 76.2645L753.457 427.618L751.46 431.084Z" fill="#C5AE66"/>
<path d="M378.086 602.652L1.09229 384.107L3.58813 379.774L380.582 598.32L378.086 602.652Z" fill="#C5AE66"/>
<path d="M746.469 439.749L99.2592 66.906L101.755 62.5735L748.964 435.416L746.469 439.749Z" fill="#C5AE66"/>
<path d="M326.574 582.721L-3.40027 391.905L-1.40356 388.439L328.57 579.255L326.574 582.721Z" fill="#C5AE66"/>
<path d="M741.976 447.547L94.7667 74.7045L96.7634 71.2385L743.973 444.081L741.976 447.547Z" fill="#C5AE66"/>
<path d="M322.081 590.519L-7.89282 399.704L-5.89612 396.238L324.078 587.053L322.081 590.519Z" fill="#C5AE66"/>
<path d="M737.483 455.346L90.2741 82.5031L92.2708 79.037L739.48 451.88L737.483 455.346Z" fill="#C5AE66"/>
<path d="M317.588 598.318L-12.3854 407.502L-10.3887 404.036L319.585 594.852L317.588 598.318Z" fill="#C5AE66"/>
<path d="M732.991 463.144L85.7816 90.3016L87.7783 86.8356L734.988 459.678L732.991 463.144Z" fill="#C5AE66"/>
<path d="M248.565 570.584L-17.3771 416.167L-14.8813 411.835L251.061 566.251L248.565 570.584Z" fill="#C5AE66"/>
<path d="M727.999 471.809L80.7899 98.9666L83.2857 94.6341L730.495 467.477L727.999 471.809Z" fill="#C5AE66"/>
<path d="M244.073 578.382L-21.8697 423.966L-19.873 420.5L246.069 574.916L244.073 578.382Z" fill="#C5AE66"/>
<path d="M723.506 479.608L76.2973 106.765L78.294 103.299L725.503 476.142L723.506 479.608Z" fill="#C5AE66"/>
</g>
<path d="M300.214 358.013C301.014 380.413 275.214 410.346 262.213 422.513L424.714 495.013C424.214 478.179 425.814 442.813 436.214 436.013C446.614 429.213 445.881 406.513 444.214 396.013C461.214 404.013 493.714 394.013 507.714 388.013C521.714 382.013 513.214 358.013 510.214 352.013C507.214 346.013 508.214 337.013 510.214 333.013C511.814 329.813 507.547 325.013 505.214 323.013C504.214 323.346 504.414 322.313 513.214 315.513C522.014 308.713 514.881 298.013 510.214 293.513C509.381 292.179 509.914 289.013 518.714 287.013C527.514 285.013 529.381 279.179 529.214 276.513C521.714 255.513 490.714 243.513 493.714 228.013C496.714 212.513 487.714 200.513 486.214 197.513C484.714 194.513 458.214 158.513 458.214 154.513C458.214 150.513 454.714 141.513 458.214 137.513C461.714 133.513 455.714 121.013 458.214 115.013C460.714 109.013 450.714 104.013 447.214 96.5128C443.714 89.0128 434.214 92.5128 433.714 87.0128C433.214 81.5128 417.214 92.5128 407.714 82.5128C398.214 72.5128 389.714 82.5128 386.714 78.5127C384.314 75.3127 370.047 79.8461 363.214 82.5128C357.214 74.5128 345.714 79.1794 340.714 82.5128C337.214 78.0128 329.214 87.5128 319.214 87.0128C309.214 86.5128 312.714 88.5128 300.214 92.5128C290.213 95.7128 282.714 104.513 280.214 108.513C278.214 105.846 271.814 102.113 262.213 108.513C250.213 116.513 249.214 130.513 244.714 131.013C240.214 131.513 232.713 140.513 232.713 146.513C232.713 152.513 228.214 170.013 220.213 177.513C212.213 185.013 214.714 194.013 211.213 203.013C207.713 212.013 214.714 216.013 211.213 228.013C207.713 240.013 220.213 247.013 214.714 249.013C209.214 251.013 213.713 266.513 211.213 270.013C208.713 273.513 219.713 275.513 220.213 293.513C220.613 307.913 228.713 314.179 232.713 315.513C249.713 356.513 255.213 339.513 269.713 349.513C281.313 357.513 294.88 358.513 300.214 358.013Z" fill="url(#paint0_linear_63_409)"/>
<path d="M363.702 249.912L364.702 223.412C403.035 213.245 480.202 192.912 482.202 192.912C484.702 192.912 493.702 211.736 493.702 216.912C493.702 218.609 494.702 227.403 493.702 231.736C495.202 235.56 494.185 237.06 512.185 254.736C534.527 276.676 529.685 277.736 528.185 280.736C526.657 283.793 515.202 288.245 508.702 289.412L363.702 249.912Z" fill="url(#paint1_linear_63_409)"/>
<path d="M364.206 165.415L365.707 198.914C400.366 179.637 455.262 149.8 456.702 148.412C457.596 147.551 456.702 139.235 459.185 133.235C458.962 125.409 456.702 117.235 459.185 112.735C453.363 104.003 446.185 92.7353 436.185 90.2354C434.086 88.9438 433.685 85.7353 429.685 85.7353C425.685 85.7353 421.827 85.909 417.185 87.2354L364.206 165.415Z" fill="url(#paint2_linear_63_409)"/>
<path d="M384.185 335.735L359.685 270.735C398.018 260.568 506.404 344.89 507.702 346.411C509.685 348.735 510.725 355.235 512.702 360.411C515.882 368.735 514.196 383.852 511.185 385.735C496.363 393.186 462.399 404.576 441.185 395.235L384.185 335.735Z" fill="url(#paint3_linear_63_409)"/>
<path d="M385.015 335.025L409.013 360.524C423.93 376.63 451.688 375.736 443.686 422.735C441.472 435.735 436.478 432.202 430.685 442.735C425.185 452.735 424.307 492.207 423.685 494.235L363.265 467.524L385.015 335.025Z" fill="url(#paint4_linear_63_409)"/>
<path d="M362.202 275.912V249.912L511.684 288.735L509.702 292.235C511.684 297.235 518.56 302.735 516.685 310.235C515.685 314.235 508.185 318.902 504.685 322.235C506.852 322.735 512.102 327.135 509.702 332.735C507.302 338.335 508.702 347.069 509.702 351.735L362.202 275.912Z" fill="url(#paint5_linear_63_409)"/>
<path d="M363.202 199.412V225.412L482.685 192.735C484.852 192.235 465.602 170.012 463.202 164.412C460.802 158.812 456.185 152.402 457.185 147.735L363.202 199.412Z" fill="url(#paint6_linear_63_409)"/>
<path d="M361.685 83.7346L363.703 192.911C386.298 160.318 419.023 92.7917 419.703 90.9109C420.553 88.5598 407.639 83.8145 406.703 81.9109C404.048 76.5113 396.685 77.7346 389.185 79.7346C385.185 76.2346 371.685 77.2346 361.685 83.7346Z" fill="url(#paint7_linear_63_409)"/>
<path d="M288.687 98.235L318.186 155.735L338.186 188.735L363.686 217.235C369.58 178.017 365.286 83.1113 363.686 81.9112C361.621 80.3624 352.187 75.735 342.687 81.9112C336.152 82.1599 335.029 81.3252 334.187 81.9112C329.02 85.5055 323.187 86.735 312.687 87.735C303.687 91.7351 294.469 94.1047 288.687 98.235Z" fill="url(#paint8_linear_63_409)"/>
<path d="M300.685 241.236L362.686 210.236C330.804 186.65 296.185 90.2364 290.185 98.2364C284.186 106.236 285.685 101.736 280.685 108.236C279.685 109.537 267.185 91.7364 246.703 130.413C232.185 136.236 232.685 142.236 232.685 150.236C229.185 171.736 217.168 177.961 216.185 182.236C211.703 201.736 211.818 191.931 210.185 207.236C211.948 214.5 212.185 217.386 212.185 224.236C210.185 232.736 212.185 238.236 216.185 247.736C215.165 248.501 212.869 251.819 212.185 255.736C211.471 259.823 212.387 264.562 212.185 267.736C211.79 273.951 211.185 272.236 214.185 275.236L300.685 241.236Z" fill="url(#paint9_linear_63_409)"/>
<path d="M303.685 355.735L363.186 279.736L365.686 229.236L361.33 210.736C321.327 227.733 213.366 272.261 213.687 274.235C213.907 275.593 221.187 284.235 220.046 294.235C223.187 307.735 226.687 313.235 233.187 314.735C241.908 336.988 247.187 342.735 257.187 345.235C262.542 346.574 266.687 348.235 271.134 349.235C280.187 355.735 282.188 355.735 285.687 355.735C291.501 355.735 291.187 361.735 303.685 355.735Z" fill="url(#paint10_linear_63_409)"/>
<path d="M317.683 446.735C312.185 444.235 270.185 426.735 263.185 422.235C263.185 422.235 298.185 388.235 300.685 357.735C302.61 334.256 343.684 302.235 343.684 302.235L364.185 273.235L371.802 291.155C398.749 320.252 376.961 449.166 377.898 450.933C379.07 453.142 378.52 471.707 377.898 473.735L317.683 446.735Z" fill="url(#paint11_linear_63_409)"/>
<g filter="url(#filter0_f_63_409)">
<path d="M364.346 280.517C360.78 284.771 354.159 296.587 343.972 293.751L335.438 258.707C331.95 258.977 324.65 258.788 323.348 255.868C321.72 252.218 313.171 254.55 312.472 246.236C312.13 242.181 302.914 245.932 305.472 235.387C303.301 233.836 301.445 227.305 303.119 223.327C304.793 219.348 303.817 218.894 303.119 219.164C301.802 218.353 296.972 217.736 298.471 212.675C299.776 208.27 298.397 204.942 300.471 202.236C303.972 197.669 300.794 190.939 309.629 190.736C307.382 190.128 304.514 188.536 306.374 181.236C305.909 180.087 304.972 176.236 306.374 173.736C307.28 172.122 310.972 169.077 316.837 169.888C317.224 166.914 319.627 160.844 326.136 160.357C326.911 159.141 329.484 157.032 333.576 158.329C335.436 156.437 340.737 152.53 347.061 152.043C354.966 151.435 353.339 148.666 365.196 153.701C366.054 153.668 366.907 153.658 367.754 153.67L368.712 229.506C367.925 241.842 366.843 261.744 367.521 263.371C367.846 264.151 367.68 264.468 367.306 264.534L364.346 280.517Z" fill="url(#paint12_linear_63_409)" fill-opacity="0.8"/>
<path d="M368.93 226.162C368.861 227.191 368.788 228.313 368.712 229.506M335.438 258.707L343.972 293.751C354.159 296.587 360.78 284.771 364.346 280.517L367.521 263.371M335.438 258.707C331.95 258.977 324.65 258.788 323.348 255.868C321.72 252.218 313.171 254.55 312.472 246.236C312.13 242.181 302.914 245.932 305.472 235.387C303.301 233.836 301.445 227.305 303.119 223.327M335.438 258.707C336.445 261.275 339.249 266.088 342.411 264.79C346.364 263.168 346.829 269.049 351.246 266.615C355.664 264.182 360.466 269.251 362.406 266.615C363.958 264.506 365.068 263.979 365.429 263.979C366.436 264.52 368.265 265.155 367.521 263.371M303.119 223.327C304.793 219.348 303.817 218.894 303.119 219.164C301.802 218.353 296.972 217.736 298.471 212.675C299.776 208.27 298.397 204.942 300.471 202.236C303.972 197.669 300.794 190.939 309.629 190.736M303.119 223.327C304.204 224.237 307.025 226.018 309.629 225.856C312.884 225.653 314.744 229.506 314.512 230.317M309.629 190.736C307.382 190.128 304.514 188.536 306.374 181.236C305.909 180.087 304.972 176.236 306.374 173.736C307.28 172.122 310.972 169.077 316.837 169.888C317.224 166.914 319.627 160.844 326.136 160.357C326.911 159.141 329.484 157.032 333.576 158.329C335.436 156.437 340.737 152.53 347.061 152.043C354.966 151.435 353.339 148.666 365.196 153.701C366.054 153.668 366.907 153.658 367.754 153.67L368.712 229.506M309.629 190.736C312.032 190.736 320.789 191.099 325.439 191.586M367.521 263.371C366.843 261.744 367.925 241.842 368.712 229.506M352.641 256.476C351.944 255.868 341.714 252.623 341.016 249.582C340.458 247.148 336.444 244.918 334.506 244.106M345.201 260.735C349.386 261.073 358.361 260.694 360.779 256.476M349.851 249.582C356.594 248.973 357.524 248.365 357.291 245.323C357.679 246.743 359.43 249.582 363.336 249.582M338.924 257.49C333.886 254.11 325.253 245.567 331.019 238.429C332.724 238.158 336.692 237.78 338.924 238.429C341.714 239.24 348.456 240.254 349.851 238.429M326.834 253.232C326.911 251.812 325.95 249.095 321.487 249.582C315.907 250.19 318.697 241.876 321.487 241.065M323.348 235.387C324.044 234.373 319.394 237.617 317.069 233.765C316.139 232.886 314.326 230.966 314.512 230.317M363.801 241.876C363.569 240.389 361.569 237.212 355.431 236.401C347.759 235.387 346.364 234.279 342.411 230.831C338.924 231.102 328.588 226.954 327.472 222.736M314.512 230.317C315.287 228.763 316.465 224.883 314.977 221.8C313.489 218.718 309.862 219.029 308.234 219.57M306.374 204.767C305.676 207.132 305.211 212.432 308.932 214.703C312.653 216.974 315.907 214.568 317.069 213.081L321.775 213.689M311.472 208.736C312.169 206.371 311.536 201.765 314.512 199.494C317.488 197.223 320.972 198.29 320.972 199.236M356.826 229.506C351.866 227.276 340.737 221.354 335.901 215.514M335.901 215.514C329.856 208.214 323.579 203.956 322.184 203.956M335.901 215.514C334.584 213.554 333.902 208.903 341.714 205.983C349.526 203.063 344.504 196.791 341.016 194.019M347.061 215.514C346.751 214.433 347.898 212.351 354.966 212.675C362.034 213 360.856 207.944 359.384 205.375M356.129 221.395C358.705 224.369 364.829 230.155 368.712 229.506M366.126 199.494C363.879 199.292 359.477 197.913 359.849 194.019M364.964 182.258C362.794 181.176 358.221 178.486 357.291 176.377M357.291 176.377C356.361 174.268 353.029 174.147 351.479 174.349M357.291 176.377C358.299 175.836 360.128 174.268 359.384 172.321M361.709 192.194C362.019 191.315 360.918 189.396 354.036 188.747M354.036 188.747C351.866 188.409 347.852 187.287 349.154 185.502M354.036 188.747C355.586 188.003 358.314 185.665 356.826 182.258M354.036 189.152C354.501 190.572 354.176 193.816 349.154 195.439C351.479 196.588 355.71 200.062 354.036 204.767M331.484 197.669C331.406 195.844 330.089 192.072 325.439 191.586M325.439 191.586C327.996 188.476 334.274 182.582 338.924 183.88M322.649 184.894C323.114 183.001 325.346 178.973 330.554 177.999C337.064 176.783 338.226 169.483 337.296 169.077M316.372 186.46C314.047 185.803 310.513 183.475 314.977 179.419C319.441 175.363 319.627 171.916 319.162 170.699M328.461 169.077C328.771 166.779 331.856 161.939 341.714 160.966M346.131 172.321C349.619 171.037 356.082 167.333 354.036 162.791C351.99 158.248 356.129 156.302 358.454 155.896" stroke="#FFD0DC" stroke-width="3" stroke-linecap="round" stroke-linejoin="round"/>
</g>
<g filter="url(#filter1_f_63_409)">
<path d="M383.788 325.017C383.278 333.052 384.297 333.052 381.241 333.525C378.185 333.997 358.829 333.997 359.338 332.579C359.848 331.161 353.736 324.544 357.301 324.072C346.706 320.668 348.812 315.406 351.189 313.201C347.454 312.255 340.798 309.325 344.058 305.166C345.728 303.035 347.558 302.632 349.152 302.98C346.605 300.872 342.122 296.091 344.567 293.822C345.561 292.9 348.873 292.777 353.082 292.869C354.638 292.064 356.066 290.966 357.369 289.741C360.678 286.628 363.182 282.687 364.942 280.588L367.902 264.605L368.117 263.442C367.439 261.815 368.521 241.913 369.308 229.577L368.349 153.741C397.86 154.157 420.568 180.799 422.499 186.531C425.046 194.093 438.798 221.507 413.84 247.502C408.407 256.01 397.846 274.065 399.068 278.225C400.079 281.663 390.252 286.415 382.595 289.383C389.388 288.834 398.547 294.119 392.447 300.912C387.162 306.797 367.532 305.655 354.632 303.851C355.142 305.899 353.634 311.688 351.189 313.201C361.376 312.098 383.177 310.932 388.882 315.091C394.587 319.251 387.863 323.441 383.788 325.017Z" fill="url(#paint13_linear_63_409)" fill-opacity="0.8"/>
<path d="M383.788 325.017C383.278 333.052 384.297 333.052 381.241 333.525C378.185 333.997 358.829 333.997 359.338 332.579C359.848 331.161 353.736 324.544 357.301 324.072M383.788 325.017C376.147 324.544 360.154 323.693 357.301 324.072M383.788 325.017C387.863 323.441 394.587 319.251 388.882 315.091C383.177 310.932 361.376 312.098 351.189 313.201M357.301 324.072C346.706 320.668 348.812 315.406 351.189 313.201M351.189 313.201C347.454 312.255 340.798 309.325 344.058 305.166C345.728 303.035 347.558 302.632 349.152 302.98M351.189 313.201C353.634 311.688 355.142 305.899 354.632 303.851C353.887 303.006 350.669 303.31 349.152 302.98M349.152 302.98C346.605 300.872 342.122 296.091 344.567 293.822M349.152 302.98C361.037 305.126 386.335 307.718 392.447 300.912C400.087 292.404 383.788 286.26 378.185 290.986M344.567 293.822C347.624 290.986 372.582 295.713 378.185 290.986M344.567 293.822C354.755 296.658 361.376 284.842 364.942 280.588L368.117 263.442M378.185 290.986C377.676 290.986 354.755 286.26 344.058 293.822M378.185 290.986C380.732 289.411 380.894 286.863 379.277 285.139C377.184 282.909 377.521 279.867 378.185 278.225C382.649 267.179 380.743 244.721 385.606 230.902C388.396 225.427 385.693 215.224 392.064 214.774C400.667 214.166 401.132 225.116 398.342 226.941C395.552 228.766 386.252 232.821 385.089 230.388L378.694 211.109C376.249 206.193 371.563 219.144 369.526 226.233C369.457 227.262 369.384 228.384 369.308 229.577M378.185 290.986C385.656 288.465 400.291 282.384 399.068 278.225C397.846 274.065 408.407 256.01 413.84 247.502C438.798 221.507 425.046 194.093 422.499 186.531C420.568 180.799 397.86 154.157 368.349 153.741M365.792 153.771C366.65 153.739 367.502 153.729 368.349 153.741M366.024 264.05C367.032 264.591 368.861 265.226 368.117 263.442M368.117 263.442C367.439 261.815 368.521 241.913 369.308 229.577M369.308 229.577L368.349 153.741" stroke="#FFE799" stroke-width="3" stroke-linecap="round" stroke-linejoin="round"/>
</g>
<g filter="url(#filter2_d_63_409)">
<path d="M383.192 324.946C382.683 332.981 383.701 332.981 380.645 333.454C377.589 333.926 358.233 333.926 358.743 332.508C359.252 331.09 353.14 324.473 356.705 324.001M383.192 324.946C375.552 324.473 359.558 323.623 356.705 324.001M383.192 324.946C387.267 323.37 393.991 319.18 388.286 315.02C382.581 310.861 360.781 312.027 350.594 313.13M356.705 324.001C346.11 320.598 348.216 315.335 350.594 313.13M350.594 313.13C346.858 312.184 340.202 309.254 343.462 305.095C345.132 302.964 346.962 302.562 348.556 302.909M350.594 313.13C353.039 311.617 352.631 307.143 352.121 305.095C351.376 304.249 350.073 303.239 348.556 302.909M348.556 302.909C346.009 300.801 341.527 296.02 343.972 293.751C347.028 290.915 371.987 295.642 377.589 290.915M348.556 302.909C360.441 305.055 385.739 307.647 391.851 300.841C399.492 292.333 383.192 286.189 377.589 290.915M377.589 290.915C377.08 290.915 354.159 286.189 343.462 293.751M377.589 290.915C380.136 289.34 380.298 286.792 378.681 285.069C376.589 282.838 376.926 279.796 377.589 278.154C382.053 267.108 380.147 244.65 385.011 230.831C387.801 225.356 385.097 215.154 391.469 214.703C400.071 214.095 400.536 225.045 397.746 226.87C394.956 228.695 385.656 232.751 384.494 230.317L378.099 211.038C375.654 206.122 370.968 219.073 368.93 226.162C368.862 227.191 368.788 228.313 368.712 229.506M377.589 290.915C385.06 288.394 399.695 282.313 398.473 278.154C397.25 273.994 407.811 255.939 413.244 247.432C438.202 221.436 424.45 194.022 421.903 186.46C419.973 180.728 397.265 154.086 367.754 153.67M335.438 258.707L343.462 285.716C353.65 288.552 360.781 284.771 364.346 280.517L367.521 263.371M335.438 258.707C331.95 258.977 324.65 258.788 323.348 255.868C321.72 252.218 313.171 254.55 312.472 246.236C312.13 242.181 302.914 245.932 305.472 235.387C303.301 233.836 301.446 227.305 303.12 223.327M335.438 258.707C336.445 261.275 339.249 266.088 342.411 264.79C346.364 263.168 346.829 269.049 351.246 266.615C355.664 264.182 360.466 269.251 362.406 266.615C363.958 264.506 365.068 263.979 365.429 263.979C366.436 264.52 368.265 265.155 367.521 263.371M303.12 223.327C304.794 219.348 303.817 218.894 303.12 219.164C301.802 218.353 296.972 217.736 298.471 212.675C299.776 208.27 298.397 204.942 300.471 202.236C303.972 197.669 300.794 190.939 309.629 190.736M303.12 223.327C304.204 224.237 307.025 226.018 309.629 225.856C312.884 225.653 314.744 229.506 314.512 230.317M309.629 190.736C307.382 190.128 304.514 188.536 306.374 181.236C305.909 180.087 304.972 176.236 306.374 173.736C307.28 172.122 310.972 169.077 316.837 169.888C317.224 166.914 319.627 160.844 326.137 160.357C326.912 159.141 329.485 157.032 333.577 158.329C335.437 156.437 340.737 152.53 347.061 152.043C354.966 151.435 353.339 148.666 365.196 153.701C366.054 153.668 366.907 153.658 367.754 153.67M309.629 190.736C312.032 190.736 320.789 191.099 325.439 191.586M367.521 263.371C366.843 261.744 367.925 241.842 368.712 229.506M352.641 256.476C351.944 255.868 341.714 252.623 341.016 249.582C340.458 247.148 336.444 244.918 334.507 244.106M345.201 260.735C349.386 261.073 358.361 260.694 360.779 256.476M349.851 249.582C356.594 248.973 357.524 248.365 357.291 245.323C357.679 246.743 359.43 249.582 363.336 249.582M338.924 257.49C333.887 254.11 325.253 245.567 331.019 238.429C332.724 238.158 336.692 237.78 338.924 238.429C341.714 239.24 348.456 240.254 349.851 238.429M326.834 253.232C326.912 251.812 325.951 249.095 321.487 249.582C315.907 250.19 318.697 241.876 321.487 241.065M323.348 235.387C324.044 234.373 319.394 237.617 317.069 233.765C316.139 232.886 314.326 230.966 314.512 230.317M363.801 241.876C363.569 240.389 361.569 237.212 355.431 236.401C347.759 235.387 346.364 234.279 342.411 230.831C338.924 231.102 328.588 226.954 327.472 222.736M314.512 230.317C315.287 228.763 316.465 224.883 314.977 221.8C313.489 218.718 309.862 219.029 308.234 219.57M306.374 204.767C305.676 207.132 305.211 212.432 308.932 214.703C312.653 216.974 315.907 214.568 317.069 213.081L321.775 213.689M311.472 208.736C312.169 206.371 311.536 201.765 314.512 199.494C317.488 197.223 320.972 198.29 320.972 199.236M356.826 229.506C351.866 227.276 340.737 221.354 335.902 215.514M335.902 215.514C329.857 208.214 323.579 203.956 322.184 203.956M335.902 215.514C334.584 213.554 333.902 208.903 341.714 205.983C349.526 203.063 344.504 196.791 341.016 194.019M347.061 215.514C346.751 214.433 347.898 212.351 354.966 212.675C362.034 213 360.856 207.944 359.384 205.375M356.129 221.395C358.705 224.369 364.829 230.155 368.712 229.506M368.712 229.506L367.754 153.67M366.126 199.494C363.879 199.292 359.477 197.913 359.849 194.019M364.964 182.258C362.794 181.176 358.221 178.486 357.291 176.377M357.291 176.377C356.361 174.268 353.029 174.147 351.479 174.349M357.291 176.377C358.299 175.836 360.128 174.268 359.384 172.321M361.709 192.194C362.019 191.315 360.918 189.396 354.036 188.747M354.036 188.747C351.866 188.409 347.852 187.287 349.154 185.502M354.036 188.747C355.586 188.003 358.314 185.665 356.826 182.258M354.036 189.152C354.501 190.572 354.176 193.816 349.154 195.439C351.479 196.588 355.71 200.062 354.036 204.767M331.484 197.669C331.407 195.844 330.089 192.072 325.439 191.586M325.439 191.586C327.997 188.476 334.274 182.582 338.924 183.88M322.649 184.894C323.114 183.001 325.346 178.973 330.554 177.999C337.064 176.783 338.226 169.483 337.297 169.077M316.372 186.46C314.047 185.803 310.513 183.475 314.977 179.419C319.441 175.363 319.627 171.916 319.162 170.699M328.462 169.077C328.772 166.779 331.856 161.939 341.714 160.966M346.131 172.321C349.619 171.037 356.082 167.333 354.036 162.791C351.99 158.248 356.129 156.302 358.454 155.896" stroke="black" stroke-width="2" stroke-linecap="round" stroke-linejoin="round" shape-rendering="crispEdges"/>
</g>
<path d="M300.214 358.013C301.014 380.413 275.214 410.346 262.213 422.513L424.714 495.013C424.214 478.179 425.814 442.813 436.214 436.013C446.614 429.213 445.881 406.513 444.214 396.013C461.214 404.013 493.714 394.013 507.714 388.013C521.714 382.013 513.214 358.013 510.214 352.013C507.214 346.013 508.214 337.013 510.214 333.013C511.814 329.813 507.547 325.013 505.214 323.013C504.214 323.346 504.414 322.313 513.214 315.513C522.014 308.713 514.881 298.013 510.214 293.513C509.381 292.179 509.914 289.013 518.714 287.013C527.514 285.013 529.381 279.179 529.214 276.513C521.714 255.513 490.714 243.513 493.714 228.013C496.714 212.513 487.714 200.513 486.214 197.513C484.714 194.513 458.214 158.513 458.214 154.513C458.214 150.513 454.714 141.513 458.214 137.513C461.714 133.513 455.714 121.013 458.214 115.013C460.714 109.013 450.714 104.013 447.214 96.5128C443.714 89.0128 434.214 92.5128 433.714 87.0128C433.214 81.5128 417.214 92.5128 407.714 82.5128C398.214 72.5128 389.714 82.5128 386.714 78.5127C384.314 75.3127 370.047 79.8461 363.214 82.5128C357.214 74.5128 345.714 79.1794 340.714 82.5128C337.214 78.0128 329.214 87.5128 319.214 87.0128C309.214 86.5128 312.714 88.5128 300.214 92.5128C290.213 95.7128 282.714 104.513 280.214 108.513C278.214 105.846 271.814 102.113 262.213 108.513C250.213 116.513 249.214 130.513 244.714 131.013C240.214 131.513 232.713 140.513 232.713 146.513C232.713 152.513 228.214 170.013 220.213 177.513C212.213 185.013 214.714 194.013 211.213 203.013C207.713 212.013 214.714 216.013 211.213 228.013C207.713 240.013 220.213 247.013 214.714 249.013C209.214 251.013 213.713 266.513 211.213 270.013C208.713 273.513 219.713 275.513 220.213 293.513C220.613 307.913 228.713 314.179 232.713 315.513C249.713 356.513 255.213 339.513 269.713 349.513C281.313 357.513 294.88 358.513 300.214 358.013Z" stroke="black" stroke-width="2"/>
<defs>
<filter id="filter0_f_63_409" x="292.686" y="145.237" width="81.7451" height="154.451" filterUnits="userSpaceOnUse" color-interpolation-filters="sRGB">
<feFlood flood-opacity="0" result="BackgroundImageFix"/>
<feBlend mode="normal" in="SourceGraphic" in2="BackgroundImageFix" result="shape"/>
<feGaussianBlur stdDeviation="2" result="effect1_foregroundBlur_63_409"/>
</filter>
<filter id="filter1_f_63_409" x="337.685" y="148.236" width="96.3828" height="191.071" filterUnits="userSpaceOnUse" color-interpolation-filters="sRGB">
<feFlood flood-opacity="0" result="BackgroundImageFix"/>
<feBlend mode="normal" in="SourceGraphic" in2="BackgroundImageFix" result="shape"/>
<feGaussianBlur stdDeviation="2" result="effect1_foregroundBlur_63_409"/>
</filter>
<filter id="filter2_d_63_409" x="293.186" y="149.736" width="139.786" height="193" filterUnits="userSpaceOnUse" color-interpolation-filters="sRGB">
<feFlood flood-opacity="0" result="BackgroundImageFix"/>
<feColorMatrix in="SourceAlpha" type="matrix" values="0 0 0 0 0 0 0 0 0 0 0 0 0 0 0 0 0 0 127 0" result="hardAlpha"/>
<feOffset dy="4"/>
<feGaussianBlur stdDeviation="2"/>
<feComposite in2="hardAlpha" operator="out"/>
<feColorMatrix type="matrix" values="0 0 0 0 0 0 0 0 0 0 0 0 0 0 0 0 0 0 0.25 0"/>
<feBlend mode="normal" in2="BackgroundImageFix" result="effect1_dropShadow_63_409"/>
<feBlend mode="normal" in="SourceGraphic" in2="effect1_dropShadow_63_409" result="shape"/>
</filter>
<linearGradient id="paint0_linear_63_409" x1="230.703" y1="251.912" x2="493.703" y2="265.912" gradientUnits="userSpaceOnUse">
<stop stop-color="#BB7C4D"/>
<stop offset="0.360577" stop-color="#FDDEE6"/>
<stop offset="0.658654" stop-color="#FFF1C4"/>
<stop offset="0.980769" stop-color="white"/>
</linearGradient>
<linearGradient id="paint1_linear_63_409" x1="394.684" y1="240.736" x2="493.684" y2="226.236" gradientUnits="userSpaceOnUse">
<stop stop-color="#FFE799"/>
<stop offset="1" stop-color="#D4A079"/>
</linearGradient>
<linearGradient id="paint2_linear_63_409" x1="386.702" y1="172.912" x2="445.702" y2="129.912" gradientUnits="userSpaceOnUse">
<stop stop-color="#FFE799"/>
<stop offset="1" stop-color="#D4A079"/>
</linearGradient>
<linearGradient id="paint3_linear_63_409" x1="382.702" y1="303.911" x2="486.202" y2="357.911" gradientUnits="userSpaceOnUse">
<stop stop-color="#FFE799"/>
<stop offset="1" stop-color="#D3A078"/>
</linearGradient>
<linearGradient id="paint4_linear_63_409" x1="406.268" y1="311.525" x2="383.268" y2="400.525" gradientUnits="userSpaceOnUse">
<stop stop-color="#FFE799"/>
<stop offset="1" stop-color="#D3A078"/>
</linearGradient>
<linearGradient id="paint5_linear_63_409" x1="398.684" y1="274.235" x2="500.684" y2="311.235" gradientUnits="userSpaceOnUse">
<stop stop-color="#FFE799"/>
<stop offset="1" stop-color="#D4A079"/>
</linearGradient>
<linearGradient id="paint6_linear_63_409" x1="386.684" y1="203.235" x2="471.684" y2="163.235" gradientUnits="userSpaceOnUse">
<stop stop-color="#FFE799"/>
<stop offset="1" stop-color="#D4A079"/>
</linearGradient>
<linearGradient id="paint7_linear_63_409" x1="371.703" y1="162.911" x2="377.203" y2="83.9109" gradientUnits="userSpaceOnUse">
<stop stop-color="#FFE799"/>
<stop offset="1" stop-color="#D4A079"/>
</linearGradient>
<linearGradient id="paint8_linear_63_409" x1="339.704" y1="172.411" x2="327.704" y2="89.9113" gradientUnits="userSpaceOnUse">
<stop stop-color="#FFE799"/>
<stop offset="1" stop-color="#D4A079"/>
</linearGradient>
<linearGradient id="paint9_linear_63_409" x1="315.203" y1="209.913" x2="249.703" y2="191.413" gradientUnits="userSpaceOnUse">
<stop stop-color="#FFE799"/>
<stop offset="1" stop-color="#D4A079"/>
</linearGradient>
<linearGradient id="paint10_linear_63_409" x1="328.686" y1="272.236" x2="276.186" y2="319.736" gradientUnits="userSpaceOnUse">
<stop stop-color="#FFE799"/>
<stop offset="1" stop-color="#D4A079"/>
</linearGradient>
<linearGradient id="paint11_linear_63_409" x1="373.769" y1="288.818" x2="321.098" y2="373.152" gradientUnits="userSpaceOnUse">
<stop stop-color="#FFE799"/>
<stop offset="1" stop-color="#D3A078"/>
</linearGradient>
<linearGradient id="paint12_linear_63_409" x1="371.686" y1="222.236" x2="355.186" y2="220.736" gradientUnits="userSpaceOnUse">
<stop stop-color="#FFE799"/>
<stop offset="1" stop-color="#FFD0DC"/>
</linearGradient>
<linearGradient id="paint13_linear_63_409" x1="386.186" y1="202.736" x2="384.186" y2="298.736" gradientUnits="userSpaceOnUse">
<stop stop-color="#FFE799"/>
<stop offset="0.5" stop-color="#FFD892"/>
<stop offset="1" stop-color="#D8D8D8"/>
</linearGradient>
</defs>
</svg>
