<svg width="1988" height="1988" viewBox="0 0 1988 1988" fill="none" xmlns="http://www.w3.org/2000/svg">
<path fill-rule="evenodd" clip-rule="evenodd" d="M1988 994C1988 1542.97 1542.97 1988 994 1988C445.029 1988 0 1542.97 0 994C0 445.029 445.029 0 994 0C1542.97 0 1988 445.029 1988 994ZM865.568 933.022V1417.07H1072.79C1072.79 1386.39 1072.67 1347.17 1072.55 1305.35V1305.33V1305.32C1072.2 1184.59 1071.79 1042.26 1073.87 1021.52C1083.58 924.387 1251.4 849.378 1283.24 1024.76V1417.07H1489.92V1014.51C1481.29 662.127 1118.12 723.644 1051.74 863.951L1039.87 770.595L856.394 770.595L865.568 933.022ZM650.255 696.124C708.967 696.124 756.562 648.528 756.562 589.816C756.562 531.105 708.967 483.509 650.255 483.509C591.543 483.509 543.948 531.105 543.948 589.816C543.948 648.528 591.543 696.124 650.255 696.124ZM756.562 767.355H543.948V1417.07H756.562V767.355Z" fill="white"/>
</svg>
