<svg width="2225" height="2225" viewBox="0 0 2225 2225" fill="none" xmlns="http://www.w3.org/2000/svg">
<path fill-rule="evenodd" clip-rule="evenodd" d="M576.654 1404.09L576.656 1404.09H576.657L576.654 1404.09Z" fill="white"/>
<path fill-rule="evenodd" clip-rule="evenodd" d="M2224 1112.5C2224 1726.36 1726.36 2224 1112.5 2224C498.635 2224 1 1726.36 1 1112.5C1 498.635 498.635 1 1112.5 1C1726.36 1 2224 498.635 2224 1112.5ZM1084.1 477.356H1732.45C1775.17 481.322 1826.83 514.748 1826.83 639.386C1826.83 761.759 1818.25 822.945 1732.45 822.945H1513.82C1501.45 825.381 1496.74 893.041 1513.82 923.78C1519.39 933.799 1632.23 928.352 1694.53 925.345L1694.53 925.344C1712.94 924.455 1726.94 923.78 1732.45 923.78C1827.85 923.78 1827.4 966.647 1826.9 1014.01C1826.87 1017.44 1826.83 1020.9 1826.83 1024.37C1826.83 1027.72 1826.88 1031.1 1826.93 1034.49C1827.56 1076.66 1828.2 1120.17 1732.45 1120.17C1717.9 1120.17 1694.85 1119.39 1669.02 1118.53L1669.01 1118.53C1606.71 1116.44 1528.25 1113.82 1513.82 1120.17C1495.11 1138.73 1485.4 1229.14 1513.82 1229.14H1732.45C1826.83 1229.14 1826.83 1257.35 1826.83 1342.9C1826.83 1428.44 1826.83 1446.91 1732.45 1448.97L1441.85 1448.27H1338.34C1338.34 1463.26 1338.47 1477.68 1338.59 1491.51L1338.59 1491.54C1340.13 1663.33 1340.87 1746.46 1084.35 1747.14C942.417 1747.52 533.108 1748.05 491.754 1747.14C397.963 1745.08 397.963 1668.39 397.963 1582.84C397.963 1497.3 397.963 1397.59 491.754 1397.59C508.715 1397.59 539.723 1400.55 576.646 1404.09L576.654 1404.09L576.656 1404.09H576.657H576.659C676.631 1413.66 819.958 1427.37 845.253 1397.59C888.843 1346.26 849.386 1126.78 820.787 1121.12H491.754C406.489 1121.12 397.963 1059.93 397.963 937.557C397.963 812.919 449.299 779.493 491.754 775.527H866.683C868.409 751.9 868.076 731.657 867.525 698.309C867.153 675.77 866.683 647.247 866.683 607.647C866.683 500.473 975.739 477.356 1084.1 477.356Z" fill="url(#paint0_linear_258_54)"/>
<path d="M1732.45 477.356H1084.1C975.739 477.356 866.683 500.473 866.683 607.647C866.683 647.247 867.153 675.77 867.525 698.309C868.076 731.657 868.409 751.9 866.683 775.527C866.683 779.92 866.68 784.163 866.678 788.261C866.641 861.737 866.628 888.423 879.44 898.063C886.747 903.561 898.226 903.514 916.253 903.441C918.42 903.432 920.682 903.423 923.042 903.423H1072.98C1195.93 903.423 1261.18 977.666 1266.19 1089.63V1399.78C1262.68 1445.76 1311.36 1448.27 1338.34 1448.27H1441.85L1732.45 1448.97C1826.83 1446.91 1826.83 1428.44 1826.83 1342.9C1826.83 1257.35 1826.83 1229.14 1732.45 1229.14H1513.82C1485.4 1229.14 1495.11 1138.73 1513.82 1120.17C1528.25 1113.82 1606.71 1116.44 1669.01 1118.53L1669.02 1118.53C1694.85 1119.39 1717.9 1120.17 1732.45 1120.17C1828.2 1120.17 1827.56 1076.66 1826.93 1034.49C1826.88 1031.1 1826.83 1027.72 1826.83 1024.37C1826.83 1020.9 1826.87 1017.44 1826.9 1014.01C1827.4 966.647 1827.85 923.78 1732.45 923.78C1726.94 923.78 1712.94 924.455 1694.53 925.344L1694.53 925.345C1632.23 928.352 1519.39 933.799 1513.82 923.78C1496.74 893.041 1501.45 825.381 1513.82 822.945H1732.45C1818.25 822.945 1826.83 761.759 1826.83 639.386C1826.83 514.748 1775.17 481.322 1732.45 477.356Z" fill="url(#paint1_linear_258_54)"/>
<path d="M866.683 775.527H491.754C449.299 779.493 397.963 812.919 397.963 937.557C397.963 1059.93 406.489 1121.12 491.754 1121.12H820.787C849.386 1126.78 888.843 1346.26 845.253 1397.59C819.958 1427.37 676.631 1413.66 576.659 1404.09H576.657H576.656L576.654 1404.09L576.646 1404.09C539.723 1400.55 508.715 1397.59 491.754 1397.59C397.963 1397.59 397.963 1497.3 397.963 1582.84C397.963 1668.39 397.963 1745.08 491.754 1747.14C533.108 1748.05 942.417 1747.52 1084.35 1747.14C1340.87 1746.46 1340.13 1663.33 1338.59 1491.54L1338.59 1491.51C1338.47 1477.68 1338.34 1463.26 1338.34 1448.27C1311.36 1448.27 1262.68 1445.76 1266.19 1399.78V1089.63C1261.18 977.666 1195.93 903.423 1072.98 903.423H923.042C920.682 903.423 918.42 903.432 916.253 903.441C898.226 903.514 886.747 903.561 879.44 898.063C866.628 888.423 866.641 861.737 866.678 788.261C866.68 784.163 866.683 779.92 866.683 775.527Z" fill="url(#paint2_linear_258_54)"/>
<path d="M866.683 775.527H491.754C449.299 779.493 397.963 812.919 397.963 937.557C397.963 1059.93 406.489 1121.12 491.754 1121.12H820.787C849.386 1126.78 888.843 1346.26 845.253 1397.59C819.958 1427.37 676.631 1413.66 576.659 1404.09H576.657M866.683 775.527C868.409 751.9 868.076 731.657 867.525 698.309C867.153 675.77 866.683 647.247 866.683 607.647C866.683 500.473 975.739 477.356 1084.1 477.356H1732.45C1775.17 481.322 1826.83 514.748 1826.83 639.386C1826.83 761.759 1818.25 822.945 1732.45 822.945H1513.82C1501.45 825.381 1496.74 893.041 1513.82 923.78C1519.39 933.799 1632.23 928.352 1694.53 925.345L1694.53 925.344C1712.94 924.455 1726.94 923.78 1732.45 923.78C1827.85 923.78 1827.4 966.647 1826.9 1014.01C1826.87 1017.44 1826.83 1020.9 1826.83 1024.37C1826.83 1027.72 1826.88 1031.1 1826.93 1034.49C1827.56 1076.66 1828.2 1120.17 1732.45 1120.17C1717.9 1120.17 1694.85 1119.39 1669.02 1118.53M866.683 775.527C866.683 779.92 866.68 784.163 866.678 788.261C866.641 861.737 866.628 888.423 879.44 898.063C886.747 903.561 898.226 903.514 916.253 903.441C918.42 903.432 920.682 903.423 923.042 903.423H1072.98C1195.93 903.423 1261.18 977.666 1266.19 1089.63V1399.78C1262.68 1445.76 1311.36 1448.27 1338.34 1448.27M1338.34 1448.27H1441.85L1732.45 1448.97C1826.83 1446.91 1826.83 1428.44 1826.83 1342.9C1826.83 1257.35 1826.83 1229.14 1732.45 1229.14H1513.82C1485.4 1229.14 1495.11 1138.73 1513.82 1120.17C1528.25 1113.82 1606.71 1116.44 1669.01 1118.53M1338.34 1448.27C1338.34 1463.26 1338.47 1477.68 1338.59 1491.51M1669.01 1118.53L1669.02 1118.53M1669.01 1118.53C1669.01 1118.53 1669.01 1118.53 1669.02 1118.53M1338.59 1491.54C1340.13 1663.33 1340.87 1746.46 1084.35 1747.14C942.417 1747.52 533.108 1748.05 491.754 1747.14C397.963 1745.08 397.963 1668.39 397.963 1582.84C397.963 1497.3 397.963 1397.59 491.754 1397.59C508.715 1397.59 539.723 1400.55 576.646 1404.09M1338.59 1491.54L1338.59 1491.51M1338.59 1491.54C1338.59 1491.53 1338.59 1491.52 1338.59 1491.51M576.654 1404.09L576.656 1404.09H576.657M576.654 1404.09L576.657 1404.09M576.654 1404.09L576.646 1404.09M576.654 1404.09C576.651 1404.09 576.648 1404.09 576.646 1404.09M2224 1112.5C2224 1726.36 1726.36 2224 1112.5 2224C498.635 2224 1 1726.36 1 1112.5C1 498.635 498.635 1 1112.5 1C1726.36 1 2224 498.635 2224 1112.5Z" stroke="white"/>
<defs>
<linearGradient id="paint0_linear_258_54" x1="1827.03" y1="970.453" x2="501.331" y2="1296.16" gradientUnits="userSpaceOnUse">
<stop offset="1" stop-color="white"/>
</linearGradient>
<linearGradient id="paint1_linear_258_54" x1="1588" y1="782.5" x2="1188.14" y2="1069.13" gradientUnits="userSpaceOnUse">
<stop offset="0.0528846"/>
<stop offset="1" stop-color="#373737"/>
</linearGradient>
<linearGradient id="paint2_linear_258_54" x1="1827.03" y1="970.453" x2="501.331" y2="1296.16" gradientUnits="userSpaceOnUse">
<stop offset="0.0880982"/>
<stop offset="1" stop-color="#373737"/>
</linearGradient>
</defs>
</svg>
