<svg width="730" height="555" viewBox="0 0 730 555" fill="none" xmlns="http://www.w3.org/2000/svg">
<mask id="mask0_58_51" style="mask-type:alpha" maskUnits="userSpaceOnUse" x="0" y="0" width="730" height="555">
<path d="M730 352.468C730 522.295 421.718 554.968 224 554.968C26.2821 554.968 0 406.828 0 237C0 67.1724 302.282 0 500 0C697.718 0 730 182.64 730 352.468Z" fill="#D9D9D9"/>
</mask>
<g mask="url(#mask0_58_51)">
<path d="M181.479 779.658L457.074 -276.993L460.944 -275.984L185.349 780.667L181.479 779.658Z" fill="#C5AE66"/>
<path d="M494.023 861.175L769.618 -195.476L773.488 -194.466L497.894 862.185L494.023 861.175Z" fill="#C5AE66"/>
<path d="M171.803 777.134L447.397 -279.517L452.236 -278.255L176.641 778.396L171.803 777.134Z" fill="#C5AE66"/>
<path d="M484.347 858.651L759.942 -198L764.78 -196.738L489.185 859.913L484.347 858.651Z" fill="#C5AE66"/>
<path d="M163.094 774.863L438.689 -281.789L442.559 -280.779L166.965 775.872L163.094 774.863Z" fill="#C5AE66"/>
<path d="M475.638 856.38L751.233 -200.271L755.104 -199.262L479.509 857.39L475.638 856.38Z" fill="#C5AE66"/>
<path d="M154.385 772.591L429.98 -284.06L433.851 -283.05L158.256 773.601L154.385 772.591Z" fill="#C5AE66"/>
<path d="M466.93 854.109L742.524 -202.542L746.395 -201.533L470.8 855.118L466.93 854.109Z" fill="#C5AE66"/>
<path d="M145.677 770.32L421.271 -286.331L425.142 -285.322L149.547 771.329L145.677 770.32Z" fill="#C5AE66"/>
<path d="M458.221 851.837L733.816 -204.814L737.686 -203.804L462.091 852.847L458.221 851.837Z" fill="#C5AE66"/>
<path d="M136 767.796L411.595 -288.855L416.433 -287.593L140.839 769.058L136 767.796Z" fill="#C5AE66"/>
<path d="M448.545 849.313L724.139 -207.338L728.978 -206.076L453.383 850.575L448.545 849.313Z" fill="#C5AE66"/>
<path d="M127.292 765.525L402.886 -291.126L406.757 -290.117L131.162 766.534L127.292 765.525Z" fill="#C5AE66"/>
<path d="M439.836 847.042L715.431 -209.609L719.301 -208.599L443.706 848.052L439.836 847.042Z" fill="#C5AE66"/>
<path d="M118.583 763.253L394.178 -293.398L398.048 -292.388L122.454 764.263L118.583 763.253Z" fill="#C5AE66"/>
<path d="M431.127 844.771L706.722 -211.88L710.593 -210.871L434.998 845.78L431.127 844.771Z" fill="#C5AE66"/>
<path d="M109.874 760.982L385.469 -295.669L389.34 -294.66L113.745 761.991L109.874 760.982Z" fill="#C5AE66"/>
<path d="M422.419 842.499L698.013 -214.152L701.884 -213.142L426.289 843.509L422.419 842.499Z" fill="#C5AE66"/>
<path d="M100.198 758.458L375.793 -298.193L380.631 -296.931L105.036 759.72L100.198 758.458Z" fill="#C5AE66"/>
<path d="M412.742 839.976L688.337 -216.676L693.175 -215.414L417.581 841.237L412.742 839.976Z" fill="#C5AE66"/>
<path d="M91.4895 756.187L367.084 -300.464L370.955 -299.455L95.36 757.196L91.4895 756.187Z" fill="#C5AE66"/>
<path d="M404.034 837.704L679.628 -218.947L683.499 -217.937L407.904 838.714L404.034 837.704Z" fill="#C5AE66"/>
<path d="M82.7808 753.915L358.376 -302.736L362.246 -301.726L86.6513 754.925L82.7808 753.915Z" fill="#C5AE66"/>
<path d="M395.325 835.433L670.92 -221.218L674.79 -220.209L399.196 836.442L395.325 835.433Z" fill="#C5AE66"/>
<path d="M74.0721 751.644L349.667 -305.007L353.537 -303.998L77.9427 752.653L74.0721 751.644Z" fill="#C5AE66"/>
<path d="M386.616 833.161L662.211 -223.49L666.082 -222.48L390.487 834.171L386.616 833.161Z" fill="#C5AE66"/>
<path d="M64.3958 749.12L339.991 -307.531L344.829 -306.269L69.234 750.382L64.3958 749.12Z" fill="#C5AE66"/>
<path d="M376.94 830.638L652.535 -226.013L657.373 -224.752L381.778 831.9L376.94 830.638Z" fill="#C5AE66"/>
<path d="M55.6872 746.849L331.282 -309.802L335.152 -308.793L59.5577 747.858L55.6872 746.849Z" fill="#C5AE66"/>
<path d="M368.231 828.366L643.826 -228.285L647.697 -227.275L372.102 829.376L368.231 828.366Z" fill="#C5AE66"/>
<path d="M46.9785 744.577L322.573 -312.074L326.444 -311.064L50.849 745.587L46.9785 744.577Z" fill="#C5AE66"/>
<path d="M359.523 826.095L635.117 -230.556L638.988 -229.547L363.393 827.104L359.523 826.095Z" fill="#C5AE66"/>
<path d="M38.2699 742.306L313.865 -314.345L317.735 -313.336L42.1404 743.315L38.2699 742.306Z" fill="#C5AE66"/>
<path d="M350.814 823.823L626.409 -232.828L630.279 -231.818L354.685 824.833L350.814 823.823Z" fill="#C5AE66"/>
<path d="M28.5936 739.782L304.188 -316.869L309.026 -315.607L33.4317 741.044L28.5936 739.782Z" fill="#C5AE66"/>
<path d="M341.138 821.3L616.733 -235.351L621.571 -234.089L345.976 822.562L341.138 821.3Z" fill="#C5AE66"/>
<path d="M19.8849 737.511L295.48 -319.14L299.35 -318.131L23.7554 738.52L19.8849 737.511Z" fill="#C5AE66"/>
<path d="M332.429 819.028L608.024 -237.623L611.894 -236.613L336.3 820.038L332.429 819.028Z" fill="#C5AE66"/>
<path d="M11.1762 735.239L286.771 -321.412L290.641 -320.402L15.0468 736.249L11.1762 735.239Z" fill="#C5AE66"/>
<path d="M323.72 816.757L599.315 -239.894L603.186 -238.885L327.591 817.766L323.72 816.757Z" fill="#C5AE66"/>
<path d="M2.46758 732.968L278.062 -323.683L281.933 -322.673L6.33809 733.978L2.46758 732.968Z" fill="#C5AE66"/>
<path d="M315.012 814.486L590.607 -242.166L594.477 -241.156L318.882 815.495L315.012 814.486Z" fill="#C5AE66"/>
<path d="M-7.20872 730.444L268.386 -326.207L273.224 -324.945L-2.37057 731.706L-7.20872 730.444Z" fill="#C5AE66"/>
<path d="M305.336 811.962L580.93 -244.689L585.768 -243.427L310.174 813.224L305.336 811.962Z" fill="#C5AE66"/>
<path d="M-15.9174 728.173L259.677 -328.478L263.548 -327.469L-12.0469 729.182L-15.9174 728.173Z" fill="#C5AE66"/>
<path d="M296.627 809.69L572.222 -246.961L576.092 -245.951L300.497 810.7L296.627 809.69Z" fill="#C5AE66"/>
<path d="M-24.626 725.902L250.969 -330.75L254.839 -329.74L-20.7555 726.911L-24.626 725.902Z" fill="#C5AE66"/>
<path d="M287.918 807.419L563.513 -249.232L567.383 -248.223L291.789 808.429L287.918 807.419Z" fill="#C5AE66"/>
<path d="M-33.3347 723.63L242.26 -333.021L246.131 -332.011L-29.4642 724.64L-33.3347 723.63Z" fill="#C5AE66"/>
<path d="M279.21 805.148L554.804 -251.503L558.675 -250.494L283.08 806.157L279.21 805.148Z" fill="#C5AE66"/>
<path d="M-43.011 721.106L232.584 -335.545L237.422 -334.283L-38.1728 722.368L-43.011 721.106Z" fill="#C5AE66"/>
<path d="M269.533 802.624L545.128 -254.027L549.966 -252.765L274.371 803.886L269.533 802.624Z" fill="#C5AE66"/>
<path d="M-51.7197 718.835L223.875 -337.816L227.746 -336.807L-47.8491 719.845L-51.7197 718.835Z" fill="#C5AE66"/>
<path d="M260.825 800.353L536.419 -256.299L540.29 -255.289L264.695 801.362L260.825 800.353Z" fill="#C5AE66"/>
<path d="M-60.4283 716.564L215.166 -340.087L219.037 -339.078L-56.5578 717.573L-60.4283 716.564Z" fill="#C5AE66"/>
<path d="M252.116 798.081L527.711 -258.57L531.581 -257.56L255.986 799.091L252.116 798.081Z" fill="#C5AE66"/>
<path d="M-69.137 714.292L206.458 -342.359L210.328 -341.349L-65.2665 715.302L-69.137 714.292Z" fill="#C5AE66"/>
<path d="M243.407 795.81L519.002 -260.841L522.873 -259.832L247.278 796.819L243.407 795.81Z" fill="#C5AE66"/>
<path d="M-78.8133 711.768L196.781 -344.883L201.62 -343.621L-73.9751 713.03L-78.8133 711.768Z" fill="#C5AE66"/>
<path d="M233.731 793.286L509.326 -263.365L514.164 -262.103L238.569 794.548L233.731 793.286Z" fill="#C5AE66"/>
<path d="M-87.5219 709.497L188.073 -347.154L191.943 -346.144L-83.6514 710.507L-87.5219 709.497Z" fill="#C5AE66"/>
<path d="M225.022 791.015L500.617 -265.636L504.488 -264.627L228.893 792.024L225.022 791.015Z" fill="#C5AE66"/>
<path d="M-96.2306 707.226L179.364 -349.425L183.235 -348.416L-92.3601 708.235L-96.2306 707.226Z" fill="#C5AE66"/>
<path d="M216.314 788.743L491.908 -267.908L495.779 -266.898L220.184 789.753L216.314 788.743Z" fill="#C5AE66"/>
<path d="M-104.939 704.954L170.655 -351.697L174.526 -350.687L-101.069 705.964L-104.939 704.954Z" fill="#C5AE66"/>
<path d="M207.605 786.472L483.2 -270.179L487.07 -269.17L211.475 787.481L207.605 786.472Z" fill="#C5AE66"/>
<path d="M-114.616 702.431L160.979 -354.221L165.817 -352.959L-109.777 703.692L-114.616 702.431Z" fill="#C5AE66"/>
<path d="M197.929 783.948L473.523 -272.703L478.362 -271.441L202.767 785.21L197.929 783.948Z" fill="#C5AE66"/>
<path d="M-123.324 700.159L152.271 -356.492L156.141 -355.482L-119.454 701.169L-123.324 700.159Z" fill="#C5AE66"/>
<path d="M189.22 781.677L464.815 -274.974L468.685 -273.965L193.091 782.686L189.22 781.677Z" fill="#C5AE66"/>
<path d="M605.297 910.115L880.892 -146.536L885.73 -145.274L610.135 911.377L605.297 910.115Z" fill="#C5AE66"/>
<path d="M596.588 907.844L872.183 -148.807L876.054 -147.798L600.459 908.853L596.588 907.844Z" fill="#C5AE66"/>
<path d="M587.88 905.572L863.475 -151.079L867.345 -150.069L591.75 906.582L587.88 905.572Z" fill="#C5AE66"/>
<path d="M579.171 903.301L854.766 -153.35L858.636 -152.341L583.042 904.311L579.171 903.301Z" fill="#C5AE66"/>
<path d="M569.495 900.777L845.09 -155.874L849.928 -154.612L574.333 902.039L569.495 900.777Z" fill="#C5AE66"/>
<path d="M560.786 898.506L836.381 -158.145L840.251 -157.136L564.657 899.515L560.786 898.506Z" fill="#C5AE66"/>
<path d="M552.078 896.235L827.672 -160.417L831.543 -159.407L555.948 897.244L552.078 896.235Z" fill="#C5AE66"/>
<path d="M543.369 893.963L818.964 -162.688L822.834 -161.678L547.239 894.973L543.369 893.963Z" fill="#C5AE66"/>
<path d="M533.693 891.439L809.287 -165.212L814.125 -163.95L538.531 892.701L533.693 891.439Z" fill="#C5AE66"/>
<path d="M524.984 889.168L800.579 -167.483L804.449 -166.474L528.854 890.177L524.984 889.168Z" fill="#C5AE66"/>
<path d="M516.275 886.897L791.87 -169.754L795.741 -168.745L520.146 887.906L516.275 886.897Z" fill="#C5AE66"/>
<path d="M507.567 884.625L783.161 -172.026L787.032 -171.016L511.437 885.635L507.567 884.625Z" fill="#C5AE66"/>
<path d="M497.89 882.101L773.485 -174.55L778.323 -173.288L502.728 883.363L497.89 882.101Z" fill="#C5AE66"/>
<path d="M489.182 879.83L764.776 -176.821L768.647 -175.811L493.052 880.84L489.182 879.83Z" fill="#C5AE66"/>
</g>
<path d="M453.258 86.9779C451.356 84.4665 445.45 79.2609 437.048 78.5303L434.537 81.4984M453.258 86.9779L451.204 92.6858M453.258 86.9779C454.704 88.3478 454.27 93.2036 453.943 94.7406M434.537 81.4984C438.418 83.6293 447.185 88.8501 451.204 92.6858M434.537 81.4984C429.285 84.9992 418.966 96.4758 419.696 114.376C419.696 115.746 416.5 143.372 418.555 148.166C419.59 150.583 420.522 156.19 421.294 162.093M434.537 81.4984C412.801 95.9278 414.825 140.784 418.555 161.408M451.204 92.6858C452.573 93.2185 453.604 96.3388 453.943 94.7406M451.204 92.6858C459.423 100.532 461.63 144.894 460.793 163.235M453.943 94.7406C461.478 123.965 460.565 143.828 461.478 165.975C465.66 160.398 466 147.137 464.122 132.869M453.943 94.7406C455.639 98.3865 457.248 102.756 458.692 107.526M442.299 105.928C441.462 112.016 439.057 125.289 436.135 129.673C433.65 133.4 432.685 151.273 432.71 163.235M422.436 171.911L433.167 170.998M422.436 171.911C421.827 173.814 420.975 177.71 422.436 178.075C423.897 178.441 431.112 177.467 434.537 176.934C434.689 175.488 434.628 172.276 433.167 170.998M422.436 171.911C422.319 170.694 421.48 168.294 421.294 166.66M433.167 170.998V168.486C433.161 168.19 433.155 167.886 433.15 167.573M432.71 163.235C438.134 164.148 449.834 164.833 460.793 163.235M432.71 163.235C432.714 164.967 433.125 166.128 433.15 167.573M460.793 163.235C461.097 164.3 460.839 166.477 460.108 168.486M460.108 168.486C453.628 168.486 439.163 168.304 433.15 167.573M460.108 168.486C460.184 170.237 461.478 174.925 466.044 179.674C469.469 182.718 476.387 190.907 481.113 195.427C486.364 200.45 489.713 205.549 491.615 207.3C493.67 210.953 496.775 219.492 492.757 224.423C487.734 230.588 470.839 264.607 469.241 272.369C466.316 272.47 460.452 272.137 454.172 270.572M444.583 206.386C451.736 209.355 466.683 215.747 469.241 217.574C471.798 219.4 470.306 222.901 469.241 224.423C460.656 233.921 449.225 256.844 444.583 267.118C444.81 267.232 445.038 267.343 445.267 267.452M444.583 206.386C450.747 199.215 461.752 182.783 456.455 174.422M444.583 206.386C436.591 226.098 420.198 273.465 418.555 305.247M418.555 305.247C415.663 307.073 407.733 309.63 399.148 305.247M418.555 305.247C420.077 308.367 425.769 314.562 436.363 314.379C437.885 315.216 440.473 317.073 438.646 317.804C436.363 318.717 427.231 325.11 410.107 316.891C408.052 317.195 404.445 318.215 406.454 319.859H395.952C395.343 314.988 395.13 305.247 399.148 305.247M399.148 305.247C399.833 301.061 401.128 287.963 401.659 284.698C403.258 274.881 403.486 252.963 407.595 247.026C410.564 237.057 417.824 212.505 417.641 194.057C415.447 189.463 412.61 177.913 416.879 165.518M418.555 161.408L421.294 162.093M418.555 161.408C417.903 162.783 417.348 164.156 416.879 165.518M421.294 162.093C421.512 163.754 421.123 165.155 421.294 166.66M421.294 166.66L416.879 165.518M458.692 107.526C464.035 113.006 475.862 123.965 480.428 123.965C484.994 123.965 495.877 122.595 500.748 121.91M458.692 107.526C461.067 115.374 462.994 124.303 464.122 132.869M500.748 121.91C500.672 125.487 500.702 132.869 501.433 133.782M500.748 121.91C500.764 120.997 505.086 120.768 505.771 121.225C506.456 121.682 507.141 132.869 506.684 133.782C506.319 134.513 503.031 134.087 501.433 133.782M501.433 133.782C502.346 134.924 479.637 142.687 471.98 138.577C465.855 135.289 464.189 133.402 464.122 132.869M454.172 273.409C454.58 273.118 454.963 272.774 455.313 272.369C456.455 271.684 457.444 270.467 460.108 272.369C462.772 274.272 469.926 278.077 477.232 278.077C484.538 278.077 482.863 280.817 481.113 282.187C477.308 283.633 466.957 286.982 454.172 283.328C452.954 282.872 450.61 282.507 450.062 284.698C449.514 286.89 441.386 285.612 437.505 284.698C437.124 281.121 437.185 273.648 440.473 272.369C440.794 272.53 441.179 272.711 441.614 272.901M454.172 273.409V270.572M454.172 273.409C450.495 276.024 444.746 274.261 441.614 272.901M454.172 270.572C451.208 269.834 448.152 268.822 445.267 267.452M445.267 267.452L441.614 272.901" stroke="black"/>
<path d="M432.945 167.801C438.959 168.532 453.423 168.714 459.903 168.714C459.979 170.465 461.273 175.153 465.839 179.902C469.264 182.946 476.182 191.135 480.908 195.655C486.159 200.678 489.508 205.777 491.41 207.528C493.465 211.181 496.57 219.72 492.552 224.651C487.529 230.816 470.634 264.835 469.036 272.597C466.111 272.698 460.247 272.365 453.967 270.8C451.003 270.062 447.947 269.05 445.062 267.68C444.833 267.571 444.605 267.46 444.378 267.346C449.02 257.072 460.451 234.149 469.036 224.651C470.101 223.129 471.593 219.628 469.036 217.802C466.478 215.975 451.531 209.583 444.378 206.614C436.387 226.326 419.993 273.693 418.35 305.475C415.458 307.301 407.528 309.858 398.943 305.475C399.628 301.289 400.923 288.191 401.455 284.926C403.053 275.109 403.281 253.191 407.391 247.254C410.359 237.285 417.619 212.733 417.437 194.285C415.242 189.691 412.406 178.141 416.674 165.746L421.089 166.888L432.945 167.801Z" fill="#A6A6A6"/>
<path d="M444.378 206.614C451.531 209.583 466.478 215.975 469.036 217.802C471.593 219.628 470.101 223.129 469.036 224.651C460.451 234.149 449.02 257.072 444.378 267.346C444.605 267.46 444.833 267.571 445.062 267.68C447.947 269.05 451.003 270.062 453.967 270.8C460.247 272.365 466.111 272.698 469.036 272.597C470.634 264.835 487.529 230.816 492.552 224.651C496.57 219.72 493.465 211.181 491.41 207.528C489.508 205.777 486.159 200.678 480.908 195.655C476.182 191.135 469.264 182.946 465.839 179.902C461.273 175.153 459.979 170.465 459.903 168.714C453.423 168.714 438.959 168.532 432.945 167.801L421.089 166.888L416.674 165.746C412.406 178.141 415.242 189.691 417.437 194.285C417.619 212.733 410.359 237.285 407.391 247.254C403.281 253.191 403.053 275.109 401.455 284.926C400.923 288.191 399.628 301.289 398.943 305.475C407.528 309.858 415.458 307.301 418.35 305.475C419.993 273.693 436.387 226.326 444.378 206.614ZM444.378 206.614C450.542 199.443 461.547 183.011 456.25 174.65" stroke="black"/>
<path d="M455.699 207.985L456.375 196.341C456.375 195.428 456.822 192.46 452.95 192.003C451.454 191.827 445.511 191.675 437.89 191.211C437.291 191.175 436.682 191.137 436.064 191.099C430.25 190.742 423.639 190.32 417.342 189.91C416.498 189.855 415.66 189.8 414.83 189.746C409.544 189.4 404.595 189.07 400.675 188.807C399.762 188.807 397.935 189.446 397.935 192.003C397.935 194.56 397.478 200.375 397.25 202.962C397.242 203.038 397.238 203.121 397.239 203.21C397.073 206.766 396.544 214.635 395.652 219.629C394.739 224.743 394.358 228.762 394.282 230.132C394.282 231.349 395.332 233.876 399.533 234.241C405.241 234.47 418.246 235.171 425.561 236.296C434.465 237.666 450.219 238.141 449.534 238.123C448.621 238.099 453.196 238.808 453.644 233.328C453.948 229.599 454.603 221.045 454.785 216.661C454.968 212.277 455.47 209.051 455.699 207.985Z" fill="#6D5039"/>
<path d="M455.699 207.985L456.375 196.341C456.375 195.428 456.822 192.46 452.95 192.003C451.454 191.827 445.511 191.675 437.89 191.211C437.291 191.175 436.682 191.137 436.064 191.099C430.25 190.742 423.639 190.32 417.342 189.91C416.498 189.855 415.66 189.8 414.83 189.746C409.544 189.4 404.595 189.07 400.675 188.807C399.762 188.807 397.935 189.446 397.935 192.003C397.935 194.56 397.478 200.375 397.25 202.962M455.699 207.985C452.411 211.455 449.297 211.866 446.338 212.323C443.589 212.323 413.451 210.497 405.926 209.583C398.401 208.67 397.098 204.484 397.25 202.962M455.699 207.985C455.47 209.051 454.968 212.277 454.785 216.661C454.603 221.045 453.948 229.599 453.644 233.328C453.196 238.808 448.621 238.099 449.534 238.123C450.219 238.141 434.465 237.666 425.561 236.296C418.246 235.171 405.241 234.47 399.533 234.241C395.332 233.876 394.282 231.349 394.282 230.132C394.358 228.762 394.739 224.743 395.652 219.629C396.565 214.515 397.098 206.387 397.25 202.962M426.922 204.789C425.552 204.56 423.726 207.3 425.552 208.442C426.931 208.898 428.749 208.898 428.977 207.757C429.29 206.19 428.977 205.131 426.922 204.789Z" stroke="black" stroke-width="2"/>
<path d="M439.309 186.032L439.024 190.94C438.428 190.869 437.816 190.908 437.201 190.834L437.446 186.61C437.467 186.245 436.828 185.431 435.917 185.378C430.987 184.939 421.329 184.531 420.417 184.478C419.506 184.425 418.925 185.23 418.756 185.525L418.51 189.749C417.671 189.645 417.512 189.745 416.687 189.643C416.812 188.803 416.886 186.205 416.972 184.735C417.078 182.912 418.624 182.544 419.384 182.588L437.618 183.647C439.441 183.753 439.344 185.424 439.309 186.032Z" fill="#6D5039" stroke="black" stroke-width="2"/>
<path d="M432.151 175.285C431.305 172.736 431.332 170.448 431.451 169.623L423.755 170.408L424.634 173.947C423.286 175.573 422.057 182.17 421.611 185.266C421.486 187.741 423.161 187.98 423.92 187.893C425.29 189.057 426.17 188.464 426.888 188.099C427.373 188.667 428.943 189.035 429.628 188.35C430.313 189.035 431.843 188.859 432.402 187.436C433.052 185.782 432.859 184.012 432.63 182.413L433.772 185.61C434 186.066 434.685 186.98 435.827 185.266C436.284 181.957 433.208 178.471 432.151 175.285Z" fill="#C79167" stroke="black"/>
<path d="M504.845 123.93C502.53 125.292 500.288 125.746 499.455 125.803L501.839 133.163L505.115 131.56C506.988 132.536 513.696 132.353 516.816 132.14C519.714 131.733 525.771 130.7 526.815 129.827C528.119 128.734 520.673 129.87 519.142 129.473C518.234 129.033 518.432 128.267 519.297 128.083C522.465 127.95 528.803 127.359 528.814 126.054C528.828 124.423 520.701 126.608 519.311 126.452C518.199 126.327 518.571 125.423 518.985 125.346C522.493 124.688 528.369 123.2 528.8 122.168C529.338 120.877 520.772 123.97 518.616 123.616C517.85 123.417 517.841 122.666 518.531 122.368C520.919 121.828 525.339 120.699 526.417 120.324C527.494 119.95 527.721 119.231 527.196 118.891C524.237 119.01 519.126 120.069 516.673 120.864C515.123 121.366 512.763 121.759 511.581 121.589L514.332 119.645C515.779 118.793 518.173 117.126 515.212 117.83C511.51 118.71 507.738 122.228 504.845 123.93Z" fill="#C79167" stroke="black"/>
<path d="M446.558 285.84H494.504V511.871H446.558V285.84Z" fill="url(#paint0_linear_58_51)"/>
<path d="M387.196 322.142V511.871H437.197H439.252V319.402H390.164L387.196 322.142Z" fill="url(#paint1_linear_58_51)"/>
<path d="M379.433 511.871V352.051H334.912L326.693 355.932V511.871H373.497H379.433Z" fill="url(#paint2_linear_58_51)"/>
<path d="M320.756 511.871V386.07H278.975L267.103 389.951L265.733 511.871H310.939H320.756Z" fill="url(#paint3_linear_58_51)"/>
<path d="M260.025 511.871V416.207H218.243L205.001 423.97V511.871H247.467H260.025Z" fill="url(#paint4_linear_58_51)"/>
<path d="M437.197 322.142H387.196M437.197 322.142C437.197 384.624 437.197 510.045 437.197 511.871M437.197 322.142L439.252 319.402M387.196 322.142V511.871C404.548 511.871 401.352 511.871 437.197 511.871M387.196 322.142L390.164 319.402H439.252M437.197 511.871H439.252V319.402M379.433 352.051V511.871H373.497M379.433 352.051L373.497 355.932M379.433 352.051H334.912L326.693 355.932M373.497 511.871V355.932M373.497 511.871H326.693V355.932M373.497 355.932H326.693M320.756 386.07V511.871H310.939M320.756 386.07L310.939 389.951M320.756 386.07H278.975L267.103 389.951M310.939 511.871V389.951M310.939 511.871H265.733L267.103 389.951M310.939 389.951H267.103M260.025 416.207V511.871H247.468M260.025 416.207L247.468 423.97M260.025 416.207H218.243L205.001 423.97M247.468 511.871V423.97M247.468 511.871H205.001V423.97M247.468 423.97H205.001M494.504 285.84H446.558V511.871H494.504V285.84Z" stroke="#423200" stroke-width="2"/>
<path d="M399.158 305.581C407.742 309.965 415.673 307.408 418.564 305.581C420.087 308.701 425.779 314.896 436.373 314.714C437.895 315.551 440.483 317.408 438.656 318.138C436.373 319.052 427.241 325.444 410.117 317.225C408.062 317.53 404.455 318.549 406.464 320.193H395.961C395.353 315.323 395.14 305.581 399.158 305.581Z" fill="black"/>
<path d="M477.241 278.412C469.935 278.412 462.781 274.606 460.118 272.704C457.454 270.801 456.465 272.019 455.323 272.704C454.973 273.108 454.59 273.453 454.182 273.743C450.504 276.358 444.756 274.596 441.624 273.235C441.189 273.046 440.804 272.865 440.483 272.704C437.195 273.982 437.134 281.456 437.515 285.033C441.396 285.946 449.524 287.225 450.072 285.033C450.62 282.841 452.964 283.206 454.182 283.663C466.967 287.316 477.317 283.967 481.123 282.521C482.873 281.151 484.548 278.412 477.241 278.412Z" fill="black"/>
<path d="M399.158 305.581C407.742 309.965 415.673 307.408 418.564 305.581C420.087 308.701 425.779 314.896 436.373 314.714C437.895 315.551 440.483 317.408 438.656 318.138C436.373 319.052 427.241 325.444 410.117 317.225C408.062 317.53 404.455 318.549 406.464 320.193H395.961C395.353 315.323 395.14 305.581 399.158 305.581Z" stroke="black"/>
<path d="M477.241 278.412C469.935 278.412 462.781 274.606 460.118 272.704C457.454 270.801 456.465 272.019 455.323 272.704C454.973 273.108 454.59 273.453 454.182 273.743C450.504 276.358 444.756 274.596 441.624 273.235C441.189 273.046 440.804 272.865 440.483 272.704C437.195 273.982 437.134 281.456 437.515 285.033C441.396 285.946 449.524 287.225 450.072 285.033C450.62 282.841 452.964 283.206 454.182 283.663C466.967 287.316 477.317 283.967 481.123 282.521C482.873 281.151 484.548 278.412 477.241 278.412Z" stroke="black"/>
<path d="M440.242 77.0261C440.181 79.7059 437.469 81.1452 435.934 82.6672L451.897 92.6858C451.955 90.6727 454.198 89.6189 454.639 87.975C455.361 85.2795 457.499 83.9323 457.374 82.6672C459.34 83.7402 465.245 81.7644 466.951 81.1452C468.658 80.526 467.814 77.6018 467.499 76.8647C467.184 76.1275 467.641 73.9711 467.907 73.5074C469.642 73.5074 468.43 70.4502 467.907 69.8805C467.817 69.7156 467.902 69.3412 468.963 69.1635C470.023 68.9857 470.286 68.3023 470.284 67.9828C469.539 65.4236 465.936 63.7759 466.401 61.9463C466.866 60.1166 465.879 58.6215 465.722 58.2529C465.564 57.8844 462.664 53.4026 462.692 52.9251C462.719 52.4475 462.366 51.3488 462.81 50.8955C463.254 50.4423 462.628 48.9083 462.967 48.2093C463.306 47.5103 462.151 46.844 461.788 45.9244C461.424 45.0047 460.27 45.3567 460.248 44.6966C460.227 44.0365 458.248 45.2387 457.188 43.979C456.128 42.7192 455.048 43.8541 454.719 43.3558C454.456 42.9571 452.728 43.3993 451.897 43.6703C451.239 42.6736 449.839 43.151 449.221 43.5142C448.837 42.9527 447.819 44.0314 446.634 43.9023C445.448 43.7733 445.85 44.0363 444.336 44.4272C443.125 44.7398 442.172 45.7384 441.846 46.1986C441.627 45.8664 440.892 45.3763 439.706 46.0738C438.223 46.9456 438.007 48.6101 437.469 48.6386C436.93 48.6671 435.975 49.6895 435.934 50.4058C435.892 51.1222 435.235 53.1802 434.231 54.0201C433.228 54.86 433.463 55.9519 432.984 57.0021C432.505 58.0523 433.309 58.5784 432.81 59.9867C432.31 61.3951 433.747 62.3175 433.08 62.5181C432.412 62.7187 432.839 64.6004 432.517 65.001C432.195 65.4015 433.489 65.7165 433.424 67.869C433.371 69.5909 434.29 70.3953 434.757 70.5822C436.493 75.595 436.391 74.6583 438.046 75.9527C439.369 76.9883 439.604 77.0488 440.242 77.0261Z" fill="#C79167"/>
<path d="M467.907 73.5074C469.642 73.5074 468.43 70.4502 467.907 69.8805C467.817 69.7156 467.902 69.3412 468.963 69.1635C470.023 68.9857 470.286 68.3023 470.284 67.9828C469.539 65.4236 465.936 63.7759 466.401 61.9463C466.866 60.1166 465.879 58.6215 465.722 58.2529C465.564 57.8844 462.664 53.4026 462.692 52.9251C462.719 52.4475 462.366 51.3488 462.81 50.8955C463.254 50.4423 462.628 48.9083 462.967 48.2093C463.306 47.5103 462.151 46.844 461.788 45.9244C461.424 45.0047 460.27 45.3567 460.248 44.6966C460.227 44.0365 458.248 45.2387 457.188 43.979C456.128 42.7192 455.048 43.8541 454.719 43.3558C454.456 42.9571 452.728 43.3993 451.897 43.6703C451.239 42.6736 449.839 43.151 449.221 43.5142C448.837 42.9527 447.819 44.0314 446.634 43.9023C445.448 43.7733 445.85 44.0363 444.336 44.4272C443.125 44.7398 442.172 45.7384 441.846 46.1986C441.627 45.8664 440.892 45.3763 439.706 46.0738C438.223 46.9456 438.007 48.6101 437.469 48.6386C436.93 48.6671 435.975 49.6895 435.934 50.4058C435.892 51.1222 435.235 53.1802 434.231 54.0201C433.228 54.86 433.463 55.9519 432.984 57.0021C432.505 58.0523 433.309 58.5784 432.81 59.9867C432.31 61.3951 433.747 62.3175 433.08 62.5181C432.412 62.7187 432.839 64.6004 432.517 65.001C432.195 65.4015 433.489 65.7165 433.424 67.869C433.371 69.5909 434.29 70.3953 434.757 70.5822C436.493 75.595 436.391 74.6583 438.046 75.9527C439.369 76.9883 439.604 77.0488 440.242 77.0261C440.181 79.7059 437.469 81.1452 435.934 82.6672L451.897 92.6858C451.955 90.6727 454.198 89.6189 454.639 87.975C455.361 85.2795 457.499 83.9323 457.374 82.6672C459.34 83.7402 465.245 81.7644 466.951 81.1452C468.658 80.526 467.814 77.6018 467.499 76.8647C467.184 76.1275 467.641 73.9711 467.907 73.5074ZM467.907 73.5074C467.267 73.3552 466.951 73.5074 465.736 72.8225" stroke="black" stroke-linecap="round"/>
<path d="M438.046 75.9527C439.369 76.9883 439.604 77.0488 440.242 77.0261C441.175 76.9258 443.184 76.1861 443.762 74.0297C444.34 71.8733 447.465 71.0823 448.956 70.9564C450.057 70.1133 452.316 68.0221 452.54 66.4013C452.82 64.3752 453.094 63.3547 453.949 63.1019C454.805 62.849 458.908 61.9256 458.413 61.1462C457.918 60.3668 455.913 56.5512 456.685 55.8317C457.303 55.256 460.947 53.6541 462.692 52.9251C462.719 52.4475 462.366 51.3488 462.81 50.8955C463.254 50.4423 462.628 48.9083 462.967 48.2093C463.306 47.5103 462.151 46.844 461.788 45.9244C461.424 45.0047 460.27 45.3567 460.248 44.6966C460.227 44.0365 458.248 45.2387 457.188 43.979C456.128 42.7192 455.048 43.8541 454.719 43.3558C454.456 42.9571 452.728 43.3993 451.897 43.6703C451.239 42.6736 449.839 43.151 449.221 43.5142C448.837 42.9527 447.819 44.0314 446.634 43.9023C445.448 43.7733 445.85 44.0363 444.336 44.4272C443.125 44.7398 442.172 45.7384 441.846 46.1986C441.627 45.8664 440.892 45.3763 439.706 46.0738C438.223 46.9456 438.007 48.6101 437.469 48.6386C436.93 48.6671 435.975 49.6895 435.934 50.4058C435.892 51.1222 435.235 53.1802 434.231 54.0201C433.228 54.86 433.463 55.9519 432.984 57.0021C432.505 58.0523 433.309 58.5784 432.81 59.9867C432.31 61.3951 433.747 62.3175 433.08 62.5181C432.412 62.7187 432.839 64.6004 432.517 65.001C432.195 65.4015 433.489 65.7165 433.424 67.869C433.371 69.5909 434.29 70.3953 434.757 70.5822C436.493 75.595 436.391 74.6583 438.046 75.9527Z" fill="black" stroke="black"/>
<path d="M454.32 270.696V273.532C450.643 276.147 444.894 274.385 441.763 273.024L445.416 267.575C448.3 268.945 451.357 269.958 454.32 270.696Z" fill="white" stroke="black"/>
<path d="M460.588 163.463C449.628 165.061 437.929 164.376 432.505 163.463C429.665 163.463 423.711 162.702 421.089 162.322L418.349 161.637C417.698 163.011 417.143 164.384 416.674 165.746L421.089 166.888C423.852 167.268 430.091 167.984 432.944 167.801C438.958 168.532 453.422 168.714 459.903 168.714C460.633 166.705 460.892 164.529 460.588 163.463Z" fill="black" stroke="black"/>
<path d="M453.258 86.9779C451.356 84.4665 445.45 79.2609 437.048 78.5303L434.537 81.4984C412.801 95.9278 414.825 140.784 418.555 161.408L421.294 162.093C421.512 163.754 421.123 165.155 421.294 166.66C421.48 168.294 422.319 170.694 422.436 171.911C421.827 173.814 420.975 177.71 422.436 178.075C423.897 178.441 431.112 177.467 434.537 176.934C434.689 175.488 434.628 172.276 433.167 170.998V168.486C433.161 168.19 433.155 167.886 433.15 167.573C433.125 166.128 432.714 164.967 432.71 163.235C438.134 164.148 449.834 164.833 460.793 163.235C461.182 154.714 460.914 140.577 459.691 127.094C461.035 140.829 460.943 153.011 461.478 165.975C465.66 160.398 466 147.137 464.122 132.869C464.189 133.402 465.855 135.289 471.98 138.577C479.637 142.687 502.346 134.924 501.433 133.782C503.031 134.087 506.319 134.513 506.684 133.782C507.141 132.869 506.456 121.682 505.771 121.225C505.086 120.768 500.764 120.997 500.748 121.91C495.877 122.595 484.994 123.965 480.428 123.965C475.862 123.965 464.035 113.006 458.692 107.526C457.248 102.756 455.639 98.3865 453.943 94.7406C454.27 93.2036 454.704 88.3478 453.258 86.9779Z" fill="#6B6570"/>
<path d="M453.258 86.9779C451.356 84.4665 445.45 79.2609 437.048 78.5303L434.537 81.4984M453.258 86.9779L451.204 92.6858M453.258 86.9779C454.704 88.3478 454.27 93.2036 453.943 94.7406M434.537 81.4984C438.418 83.6293 447.185 88.8501 451.204 92.6858M434.537 81.4984C429.285 84.9992 418.966 96.4758 419.696 114.376C419.696 115.746 416.5 143.372 418.555 148.166C419.59 150.583 420.522 156.19 421.294 162.093M434.537 81.4984C412.801 95.9278 414.825 140.784 418.555 161.408L421.294 162.093M451.204 92.6858C452.573 93.2185 453.604 96.3388 453.943 94.7406M451.204 92.6858C459.423 100.532 461.63 144.894 460.793 163.235C449.834 164.833 438.134 164.148 432.71 163.235M453.943 94.7406C461.478 123.965 460.565 143.828 461.478 165.975C465.66 160.398 466 147.137 464.122 132.869M453.943 94.7406C455.639 98.3865 457.248 102.756 458.692 107.526M442.299 105.928C441.462 112.016 439.057 125.289 436.135 129.673C433.65 133.4 432.685 151.273 432.71 163.235M422.436 171.911L433.167 170.998M422.436 171.911C421.827 173.814 420.975 177.71 422.436 178.075C423.897 178.441 431.112 177.467 434.537 176.934C434.689 175.488 434.628 172.276 433.167 170.998M422.436 171.911C422.319 170.694 421.48 168.294 421.294 166.66C421.123 165.155 421.512 163.754 421.294 162.093M433.167 170.998V168.486C433.161 168.19 433.155 167.886 433.15 167.573C433.125 166.128 432.714 164.967 432.71 163.235M458.692 107.526C464.035 113.006 475.862 123.965 480.428 123.965C484.994 123.965 495.877 122.595 500.748 121.91M458.692 107.526C461.067 115.374 462.994 124.303 464.122 132.869M500.748 121.91C500.672 125.487 500.702 132.869 501.433 133.782M500.748 121.91C500.764 120.997 505.086 120.768 505.771 121.225C506.456 121.682 507.141 132.869 506.684 133.782C506.319 134.513 503.031 134.087 501.433 133.782M501.433 133.782C502.346 134.924 479.637 142.687 471.98 138.577C465.855 135.289 464.189 133.402 464.122 132.869" stroke="black"/>
<path d="M453.179 86.9775L451.269 92.4571C452.639 92.9898 453.67 96.1101 454.009 94.5119C461.544 123.736 460.63 143.6 461.544 165.746C465.726 160.17 466.066 146.909 464.188 132.64C463.06 124.074 461.133 115.145 458.758 107.298C457.314 102.528 455.705 98.1578 454.009 94.5119C454.336 92.975 454.625 88.3474 453.179 86.9775Z" fill="#821F1F"/>
<path d="M454.009 94.5119C454.336 92.975 454.625 88.3474 453.179 86.9775L451.269 92.4571C452.639 92.9898 453.67 96.1101 454.009 94.5119ZM454.009 94.5119C461.544 123.736 460.63 143.6 461.544 165.746C465.726 160.17 466.066 146.909 464.188 132.64C463.06 124.074 461.133 115.145 458.758 107.298C457.314 102.528 455.705 98.1578 454.009 94.5119Z" stroke="black"/>
<defs>
<linearGradient id="paint0_linear_58_51" x1="453.407" y1="351.594" x2="280.573" y2="505.25" gradientUnits="userSpaceOnUse">
<stop stop-color="#FFE17E"/>
<stop offset="1" stop-color="#DD9F73"/>
</linearGradient>
<linearGradient id="paint1_linear_58_51" x1="453.407" y1="351.594" x2="280.573" y2="505.25" gradientUnits="userSpaceOnUse">
<stop stop-color="#FFE17E"/>
<stop offset="1" stop-color="#DD9F73"/>
</linearGradient>
<linearGradient id="paint2_linear_58_51" x1="453.407" y1="351.594" x2="280.573" y2="505.25" gradientUnits="userSpaceOnUse">
<stop stop-color="#FFE17E"/>
<stop offset="1" stop-color="#DD9F73"/>
</linearGradient>
<linearGradient id="paint3_linear_58_51" x1="453.407" y1="351.594" x2="280.573" y2="505.25" gradientUnits="userSpaceOnUse">
<stop stop-color="#FFE17E"/>
<stop offset="1" stop-color="#DD9F73"/>
</linearGradient>
<linearGradient id="paint4_linear_58_51" x1="453.407" y1="351.594" x2="280.573" y2="505.25" gradientUnits="userSpaceOnUse">
<stop stop-color="#FFE17E"/>
<stop offset="1" stop-color="#DD9F73"/>
</linearGradient>
</defs>
</svg>
