<svg width="717" height="585" viewBox="0 0 717 585" fill="none" xmlns="http://www.w3.org/2000/svg">
<mask id="mask0_62_254" style="mask-type:alpha" maskUnits="userSpaceOnUse" x="0" y="0" width="717" height="585">
<path d="M311 585L311 -4.10028e-05H315L315 585H311Z" fill="#C5AE66"/>
<path d="M634 585V-4.10028e-05H638V585H634Z" fill="#C5AE66"/>
<path d="M301 585L301 -4.10028e-05H306L306 585H301Z" fill="#C5AE66"/>
<path d="M624 585V-4.10028e-05H629V585H624Z" fill="#C5AE66"/>
<path d="M292 585L292 -4.10028e-05H296L296 585H292Z" fill="#C5AE66"/>
<path d="M615 585V-4.10028e-05H619V585H615Z" fill="#C5AE66"/>
<path d="M283 585L283 -4.10028e-05H287L287 585H283Z" fill="#C5AE66"/>
<path d="M606 585V-4.10028e-05H610V585H606Z" fill="#C5AE66"/>
<path d="M274 585L274 -4.10028e-05H278L278 585H274Z" fill="#C5AE66"/>
<path d="M597 585V-4.10028e-05H601V585H597Z" fill="#C5AE66"/>
<path d="M264 585L264 -4.10028e-05H269L269 585H264Z" fill="#C5AE66"/>
<path d="M587 585V-4.10028e-05H592V585H587Z" fill="#C5AE66"/>
<path d="M255 585L255 -4.10028e-05H259L259 585H255Z" fill="#C5AE66"/>
<path d="M578 585V-4.10028e-05H582V585H578Z" fill="#C5AE66"/>
<path d="M246 585L246 -4.10028e-05H250L250 585H246Z" fill="#C5AE66"/>
<path d="M569 585V-4.10028e-05H573V585H569Z" fill="#C5AE66"/>
<path d="M237 585L237 -4.10028e-05H241L241 585H237Z" fill="#C5AE66"/>
<path d="M560 585V-4.10028e-05H564V585H560Z" fill="#C5AE66"/>
<path d="M227 585L227 -4.10028e-05H232L232 585H227Z" fill="#C5AE66"/>
<path d="M550 585V-4.10028e-05H555V585H550Z" fill="#C5AE66"/>
<path d="M218 585L218 -4.10028e-05H222L222 585H218Z" fill="#C5AE66"/>
<path d="M541 585V-4.10028e-05H545V585H541Z" fill="#C5AE66"/>
<path d="M209 585L209 -4.10028e-05H213L213 585H209Z" fill="#C5AE66"/>
<path d="M532 585V-4.10028e-05H536V585H532Z" fill="#C5AE66"/>
<path d="M200 585L200 -4.10028e-05H204L204 585H200Z" fill="#C5AE66"/>
<path d="M523 585V-4.10028e-05H527V585H523Z" fill="#C5AE66"/>
<path d="M190 585L190 -4.10028e-05H195L195 585H190Z" fill="#C5AE66"/>
<path d="M513 585V-4.10028e-05H518V585H513Z" fill="#C5AE66"/>
<path d="M181 585L181 -4.10028e-05H185L185 585H181Z" fill="#C5AE66"/>
<path d="M504 585L504 -4.10028e-05H508L508 585H504Z" fill="#C5AE66"/>
<path d="M172 585L172 -4.10028e-05H176L176 585H172Z" fill="#C5AE66"/>
<path d="M495 585L495 -4.10028e-05H499L499 585H495Z" fill="#C5AE66"/>
<path d="M163 585L163 -4.10028e-05H167L167 585H163Z" fill="#C5AE66"/>
<path d="M486 585L486 -4.10028e-05H490L490 585H486Z" fill="#C5AE66"/>
<path d="M153 585L153 -4.10028e-05H158L158 585H153Z" fill="#C5AE66"/>
<path d="M476 585L476 -4.10028e-05H481L481 585H476Z" fill="#C5AE66"/>
<path d="M144 585L144 -4.10028e-05H148L148 585H144Z" fill="#C5AE66"/>
<path d="M467 585L467 -4.10028e-05H471L471 585H467Z" fill="#C5AE66"/>
<path d="M135 585L135 -4.10028e-05H139L139 585H135Z" fill="#C5AE66"/>
<path d="M458 585L458 -4.10028e-05H462L462 585H458Z" fill="#C5AE66"/>
<path d="M126 585L126 -4.10028e-05H130L130 585H126Z" fill="#C5AE66"/>
<path d="M449 585L449 -4.10028e-05H453L453 585H449Z" fill="#C5AE66"/>
<path d="M116 585L116 -4.10028e-05H121L121 585H116Z" fill="#C5AE66"/>
<path d="M439 585L439 -4.10028e-05H444L444 585H439Z" fill="#C5AE66"/>
<path d="M107 585L107 -4.10028e-05H111L111 585H107Z" fill="#C5AE66"/>
<path d="M430 585L430 -4.10028e-05H434L434 585H430Z" fill="#C5AE66"/>
<path d="M98 585L98 -4.10028e-05H102L102 585H98Z" fill="#C5AE66"/>
<path d="M421 585L421 -4.10028e-05H425L425 585H421Z" fill="#C5AE66"/>
<path d="M89 585L89 -4.10028e-05H93L93 585H89Z" fill="#C5AE66"/>
<path d="M412 585L412 -4.10028e-05H416L416 585H412Z" fill="#C5AE66"/>
<path d="M79 585L79 -4.10028e-05H84L84 585H79Z" fill="#C5AE66"/>
<path d="M402 585L402 -4.10028e-05H407L407 585H402Z" fill="#C5AE66"/>
<path d="M70 585L70 -4.10028e-05H74L74 585H70Z" fill="#C5AE66"/>
<path d="M393 585L393 -4.10028e-05H397L397 585H393Z" fill="#C5AE66"/>
<path d="M61 585L61 -4.10028e-05H65L65 585H61Z" fill="#C5AE66"/>
<path d="M384 585L384 -4.10028e-05H388L388 585H384Z" fill="#C5AE66"/>
<path d="M52 585L52 -4.10028e-05H56L56 585H52Z" fill="#C5AE66"/>
<path d="M375 585L375 -4.10028e-05H379L379 585H375Z" fill="#C5AE66"/>
<path d="M42 585L42 -4.10028e-05H47L47 585H42Z" fill="#C5AE66"/>
<path d="M365 585L365 -4.10028e-05H370L370 585H365Z" fill="#C5AE66"/>
<path d="M33 585L33 -4.10028e-05H37L37 585H33Z" fill="#C5AE66"/>
<path d="M356 585L356 -4.10028e-05H360L360 585H356Z" fill="#C5AE66"/>
<path d="M24 585L24 -4.10028e-05H28L28 585H24Z" fill="#C5AE66"/>
<path d="M347 585L347 -4.10028e-05H351L351 585H347Z" fill="#C5AE66"/>
<path d="M15 585L15 -4.10028e-05H19L19 585H15Z" fill="#C5AE66"/>
<path d="M338 585L338 -4.10028e-05H342L342 585H338Z" fill="#C5AE66"/>
<path d="M5 585L5 -4.10028e-05H10L10 585H5Z" fill="#C5AE66"/>
<path d="M328 585L328 -4.10028e-05H333L333 585H328Z" fill="#C5AE66"/>
<path d="M319 585L319 -4.10028e-05H323L323 585H319Z" fill="#C5AE66"/>
<path d="M708 585V-4.10028e-05H712V585H708Z" fill="#C5AE66"/>
<path d="M699 585V-4.10028e-05H703V585H699Z" fill="#C5AE66"/>
<path d="M689 585V-4.10028e-05H694V585H689Z" fill="#C5AE66"/>
<path d="M680 585V-4.10028e-05H684V585H680Z" fill="#C5AE66"/>
<path d="M671 585V-4.10028e-05H675V585H671Z" fill="#C5AE66"/>
<path d="M662 585V-4.10028e-05H666V585H662Z" fill="#C5AE66"/>
<path d="M652 585V-4.10028e-05H657V585H652Z" fill="#C5AE66"/>
<path d="M643 585V-4.10028e-05H647V585H643Z" fill="#C5AE66"/>
</mask>
<g mask="url(#mask0_62_254)">
<path d="M338.182 37.2742C405.488 -11.5558 557.608 -12.9415 585.599 46.7653C647.204 78.6228 591.511 126.329 644.853 143.871C686.501 157.568 743.756 246.382 693.226 363.036C697.969 533.057 563.379 603.891 360.287 558.712C141.635 621.277 -54.7149 495.931 24.2915 300.273C-38.5574 15.5211 221.242 7.05589 338.182 37.2742Z" fill="#C5AE66"/>
</g>
<path d="M436.122 85.347C441.994 87.4106 446.911 91.0258 450.247 96.4196C450.848 97.058 451.429 97.755 451.988 98.5028C456.653 97.1374 461.43 96.6426 466.117 97.2932C493.556 101.102 480.681 136.755 461.005 128.285C461.007 129.045 460.99 129.781 460.953 130.496C470.127 134.839 477.378 145.729 473.235 170.242C471.458 180.757 468.167 187.832 464.054 192.363C469.032 206.588 458.449 223.956 445.831 225.9C443.19 226.978 441.05 227.583 439.318 227.833C436.781 229.987 433.073 231.817 428.307 232.892C410.492 236.909 399.337 219.243 391.824 209.988L346.804 223.024C343.864 221.809 340.351 220.193 336.677 218.274C330.706 224.076 324.485 228.254 319.471 228.43C306.477 228.887 293.45 217.32 303.72 190.331C299.759 181.024 298.761 169.595 302.664 157.798C287.407 152.81 278.494 141.228 305.416 120.8C318.802 75.121 360.397 73.6587 379.522 78.6374C392.585 77.6887 402.813 78.923 410.74 81.6677C410.977 78.3632 414.385 76.8447 423.452 79.2027C429.69 80.8249 433.706 82.9706 436.122 85.347Z" fill="black"/>
<path d="M431.448 79.8235C437.321 81.8872 442.237 85.5024 445.573 90.8961C446.174 91.5346 446.755 92.2315 447.315 92.9794C451.979 91.6139 456.756 91.1192 461.443 91.7697C488.882 95.5782 476.007 131.232 456.331 122.762C456.333 123.522 456.316 124.258 456.279 124.973C465.453 129.315 472.704 140.206 468.561 164.719C466.784 175.234 463.494 182.308 459.38 186.84C464.358 201.064 453.776 218.433 441.157 220.376C438.517 221.454 436.376 222.06 434.645 222.31C432.108 224.464 428.399 226.294 423.633 227.369C405.818 231.385 394.663 213.719 387.15 204.464L342.13 217.5C339.19 216.286 335.677 214.669 332.004 212.751C326.032 218.552 319.812 222.73 314.798 222.906C301.804 223.363 288.776 211.796 299.046 184.808C295.086 175.5 294.087 164.071 297.99 152.275C282.733 147.287 273.82 135.704 300.742 115.277C314.128 69.5976 355.724 68.1353 374.848 73.114C387.912 72.1652 398.139 73.3996 406.066 76.1443C406.303 72.8397 409.711 71.3212 418.779 73.6793C425.016 75.3014 429.032 77.4471 431.448 79.8235Z" fill="white"/>
<path d="M387.15 204.465C394.663 213.719 405.818 231.385 423.633 227.369C436.263 224.521 441.468 216.367 437.121 210.944C432.775 205.521 428.529 211.879 428.07 213.791C427.707 215.304 424.588 227.14 441.157 220.376C456.331 218.039 468.561 193.397 454.328 178.739M411.55 173.618C409.218 175.747 408.341 180.294 419.515 183.85M339.44 203.429C307.07 221.668 264.822 157.453 328.834 115.871C367.28 70.7004 397.2 76.4835 417.99 96.0099M454.328 178.739C451.562 184.973 441.199 194.865 435.532 200.051C414.381 219.406 402.274 210.865 400.541 190.582C399.025 172.826 415.792 184.997 434.683 175.894C441.792 172.468 452.392 172.264 454.328 178.739ZM454.328 178.739C466.219 158.101 450.679 139.57 428.07 137.247C426.423 137.078 424.88 137.005 423.436 137.017M454.328 178.739C450.296 176.487 437.517 174.875 443.214 170.998C455.783 165.023 477.483 144.56 448.592 145.24M419.515 183.85C421.694 184.543 424.33 185.199 427.503 185.791C451.813 190.332 463.812 187.692 463.038 168.543C462.188 147.512 417.393 163.618 409.913 162.75C402.851 161.932 399.003 137.221 423.436 137.017M419.515 183.85C431.436 194.318 461.603 205.892 468.561 164.719C477.259 113.252 435.732 121.838 431.638 124.991C427.774 127.968 424.3 132.599 423.436 137.017M335.408 166.801C335.196 172.786 331.518 184.027 318.503 181.109C302.235 177.461 297.134 137.421 298.957 133.649M298.957 133.649C298.753 127.857 302.327 121.202 307.913 116.607M298.957 133.649C303.118 153.877 315.534 144.971 321.222 137.99M325.926 111.227C319.172 110.166 312.779 112.604 307.913 116.607M325.926 111.227C321.335 116.302 315.815 127.175 321.222 137.99M325.926 111.227C340.16 98.4626 372.631 79.5011 398.887 94.4663M329.964 148.017C321.066 152.12 312.169 159.401 305.31 171.627C284.871 208.06 299.857 223.432 314.798 222.906C325.683 222.524 342.257 203.28 349.614 189.509L361.521 144.56C354.599 142.747 342.28 142.338 329.964 148.017ZM329.964 148.017C325.717 144.803 322.927 141.399 321.222 137.99M413.368 154.476C423.318 148.299 435.073 127.221 407.746 101.117C404.902 98.4004 401.937 96.2045 398.887 94.4663M417.299 151.284C393.14 136.425 429.394 87.3214 461.443 91.7697C488.882 95.5782 476.007 131.232 456.331 122.762M456.331 122.762C456.302 111.793 452.131 97.8616 445.573 90.8961C421.13 51.3691 311.755 107.355 363.733 169.573C410.169 177.175 436.792 163.687 448.592 145.24M456.331 122.762C456.354 131.538 453.832 137.049 448.592 145.24M342.13 217.5C328.232 211.76 301.499 197.017 305.744 183.969C311.052 167.658 315.178 160.128 327.569 157.96C337.482 156.225 355.491 181.215 363.256 193.927L344.91 207.381C332.454 196.531 315.27 169.506 339.729 135.459C333.846 122.523 358.315 131.097 358.33 120.712C354.689 107.097 338.073 86.9502 300.742 115.277M376.393 117.063C373.216 104.742 371.933 61.6499 336.822 83.1556C300.404 109.477 345.301 124.929 369.372 136.038C380.429 138.589 332.341 79.5813 374.848 73.114M431.507 155.3C435.132 145.387 458.124 107.038 428.61 98.0477M374.848 73.114C408.727 70.6535 423.529 82.876 428.61 98.0477M374.848 73.114C355.724 68.1353 314.128 69.5976 300.742 115.277M300.742 115.277C254.077 150.685 315.079 159.517 330.157 153.499C342.22 148.684 345.173 153.151 345.142 155.986M307.913 116.607C314.866 115.785 327.264 118.91 321.222 137.99M428.529 153.361C419.457 155.095 371.175 113.108 412.598 98.6106C421.674 95.4341 427.188 97.3442 428.61 98.0477M428.61 98.0477C434.776 92.3808 441.443 79.5734 418.779 73.6793C396.114 67.7852 408.809 86.1105 417.99 96.0099M417.99 96.0099C432.835 109.953 443.279 130.83 448.592 145.24M382.87 133.532C389.772 103.31 441.077 113.708 448.592 145.24M398.887 94.4663C387.787 99.1614 367.881 114.047 377.06 136.027" stroke="url(#paint0_linear_62_254)" stroke-width="2"/>
<path d="M458.216 193.178L460.744 194.456L463.459 193.329L462.05 195.909L463.052 198.558L460.524 197.281L457.809 198.407L459.218 195.827L458.216 193.178Z" fill="#FFE17E"/>
<path d="M440.777 126.182L442.313 128.261L444.932 127.61L443.307 129.704L444.699 131.877L442.159 131.092L440.401 133.086L440.456 130.507L437.977 129.567L440.551 128.757L440.777 126.182Z" fill="#FFE17E"/>
<path d="M304.225 191.209L305.505 193.728L307.583 191.676L306.608 194.364L309.56 194.289L306.9 195.572L308.996 197.516L306.21 196.642L306.223 199.468L304.943 196.949L302.864 199L303.84 196.312L300.888 196.387L303.548 195.105L301.451 193.16L304.237 194.034L304.225 191.209Z" fill="#FFE17E"/>
<path d="M381.241 100.308L383.014 102.508L384.624 100.072L384.224 102.904L387.097 102.22L384.759 104.024L387.212 105.495L384.305 105.214L384.901 107.976L383.128 105.776L381.518 108.212L381.918 105.381L379.045 106.064L381.383 104.26L378.93 102.79L381.837 103.07L381.241 100.308Z" fill="#FFE17E"/>
<path d="M448.407 89.1506L448.451 91.9759L451.219 91.046L449.162 93.0324L451.847 94.2614L448.894 94.2452L449.923 96.9131L447.804 94.9039L446.574 97.4479L446.53 94.6227L443.762 95.5525L445.819 93.5662L443.134 92.3372L446.087 92.3533L445.058 89.6854L447.177 91.6946L448.407 89.1506Z" fill="#FFE17E"/>
<path d="M378.746 70.0991L380.449 72.363L383.382 72.5526L380.978 74.244L380.706 77.0636L379.003 74.7997L376.07 74.6101L378.474 72.9187L378.746 70.0991Z" fill="#FFE17E"/>
<path d="M330.45 110.082L331.318 112.779L334.027 113.918L331.202 114.729L330.022 117.304L329.154 114.608L326.444 113.469L329.269 112.657L330.45 110.082Z" fill="#FFE17E"/>
<path d="M300.57 110.886L302.068 113.061L304.725 112.314L302.994 114.406L304.492 116.581L301.924 115.699L300.194 117.79L300.338 115.153L297.77 114.271L300.427 113.523L300.57 110.886Z" fill="#FFE17E"/>
<path d="M464.793 456.21C460.699 459.565 440.08 462.355 427.983 462.965L424.799 490.424C440.516 497.502 456.477 491.047 460.479 487.983C467.204 489.367 478.585 489.998 480.084 490.837C482.267 492.057 486.792 491.339 487.338 487.983C487.884 484.627 478.694 484.856 477.34 483.953L477.31 483.933C474.341 481.955 471.481 480.05 468.129 480.05C470.316 477.487 473.223 478.53 475.183 479.364C477.889 480.516 487.276 485.666 493.808 490.424C498.383 493.757 503.806 491.045 501.257 487.499C503.359 490.424 504.394 492.505 509.491 490.837C519.49 491.876 505.973 475.505 505.7 471.844C505.428 468.183 501.257 465.742 499.297 463.8C497.235 461.756 495.247 459.64 493.541 458.725C493.04 458.456 488.78 457.502 484.876 456.391C481.914 455.548 478.965 454.573 475.9 454.272C471.719 453.861 467.357 454.107 464.793 456.21Z" fill="#A96836"/>
<path d="M509.491 490.837C519.49 491.876 505.973 475.505 505.7 471.844C505.428 468.183 501.257 465.742 499.297 463.8C497.235 461.756 495.247 459.64 493.541 458.725C493.04 458.456 488.78 457.502 484.876 456.391C481.914 455.548 478.965 454.573 475.9 454.272C471.719 453.861 467.357 454.107 464.793 456.21C460.699 459.565 440.08 462.355 427.983 462.965L424.799 490.424C440.516 497.502 456.477 491.047 460.479 487.983M509.491 490.837C509.491 489.006 507.972 482.491 505.57 480.05C504.011 478.465 500.928 476.495 498.435 474.444C496.051 472.484 494.557 469.675 492.539 467.341C491.637 466.298 490.573 465.468 489.328 465.468C485.781 465.468 476.042 460.555 475.77 459.64M509.491 490.837C504.394 492.505 503.359 490.424 501.257 487.499M468.129 465.742C470.858 466.556 476.36 468.183 478.106 468.183C480.289 468.183 482.472 470.624 483.018 471.844C483.311 472.499 494.981 481.194 501.257 487.499M501.257 487.499C503.806 491.045 498.383 493.757 493.808 490.424C487.276 485.666 477.889 480.516 475.183 479.364C473.223 478.53 470.316 477.487 468.129 480.05M468.129 480.05C465.728 476.389 458.699 478.326 455.97 478.53M468.129 480.05C471.493 480.05 474.36 481.968 477.34 483.953C478.694 484.856 487.884 484.627 487.338 487.983C486.792 491.339 482.267 492.057 480.084 490.837C478.585 489.998 467.204 489.367 460.479 487.983M453.633 487.983C454.06 487.983 457.309 486.754 460.479 487.983" stroke="black" stroke-width="2" stroke-linecap="round"/>
<path d="M473.277 425.78C470.444 431.304 470.515 448.723 444.598 459.132C439.863 461.55 435.252 462.302 430.79 461.66L426.966 490.997H269.554C225.793 433.641 271.041 315.103 274.652 304.056C279.099 290.456 305.242 278.352 333.921 271.129C338.553 269.963 342.47 268.612 345.77 267.149C356.332 260.482 360.535 255.195 361.817 251.932C362.079 250.893 362.186 249.919 362.176 249.036C377.896 246.7 409.548 244.66 409.548 255.197C409.606 256.18 410.184 257.735 411.657 259.508C414.041 262.049 418.286 264.595 423.559 267.059C423.976 267.214 424.404 267.367 424.844 267.518C424.831 267.556 424.819 267.594 424.807 267.632C438.676 273.894 458.832 279.577 471.365 283.238C501.615 297.853 502.38 333.514 498.981 349.517L473.277 425.78Z" fill="url(#paint1_linear_62_254)"/>
<path d="M440.775 334.647L433.552 352.703L405.511 304.056L364.936 324.237C371.692 371.842 396.983 456.791 430.79 461.66M409.548 255.197C409.548 265.734 450.759 277.219 471.365 283.238C501.615 297.853 502.38 333.514 498.981 349.517L473.277 425.78C470.444 431.304 470.515 448.723 444.598 459.132C439.863 461.55 435.252 462.302 430.79 461.66M409.548 255.197C409.548 244.66 377.896 246.7 362.176 249.036M409.548 255.197C409.69 257.604 412.947 263.439 424.844 267.518C410.908 310.515 365.929 285.433 345.181 267.518C360.476 258.001 362.884 251.232 362.176 249.036M362.176 249.036C362.247 255.055 356.864 265.351 333.921 271.129C305.242 278.352 279.099 290.456 274.652 304.056C271.041 315.103 225.793 433.641 269.554 490.997H426.966L430.79 461.66M430.79 461.66C414.773 455.743 380.742 441.147 372.754 430.1" stroke="black" stroke-width="2"/>
<path d="M424.842 267.52C410.906 310.516 365.927 285.435 345.18 267.52C360.475 258.003 362.882 251.233 362.174 249.038V234.168C374.566 233.885 399.392 233.403 402.281 237.141C405.17 240.88 408.201 248.684 409.547 255.198C409.688 257.606 412.946 263.441 424.842 267.52Z" fill="#A96836" stroke="black" stroke-width="3"/>
<path d="M329.672 272.193C354.739 356.954 434.303 308.989 444.5 275C440.5 273.5 431 269 426.5 267.5C412.564 310.496 365.927 285.435 345.179 267.52L329.672 272.193Z" fill="white"/>
<path d="M410.821 490.787H427.179L430.578 461.471C427.009 461.471 419.177 457.081 415.707 454.885L410.821 490.787Z" fill="white"/>
<path d="M329.672 272.193C354.739 356.954 434.303 308.989 444.5 275C440.5 273.5 431 269 426.5 267.5C412.564 310.496 365.927 285.435 345.179 267.52L329.672 272.193Z" stroke="black" stroke-width="2"/>
<path d="M410.821 490.787H427.179L430.578 461.471C427.009 461.471 419.177 457.081 415.707 454.885L410.821 490.787Z" stroke="black" stroke-width="2"/>
<path d="M426.168 201.395C425.777 174.135 405.358 161.413 383.43 161.783C363.286 156.651 341.859 164.307 335.388 190.79C323.743 180.06 322.227 222.106 332.511 222.717C338.218 250.832 337.148 263.832 369.676 269.621C399.617 269.691 406.546 255.268 418.926 229.493L419.14 229.049C435.236 230.004 443.551 193.118 426.168 201.395Z" fill="#A96836" stroke="black" stroke-width="2"/>
<path d="M386.089 182.101C384.814 187.264 385.448 185.817 384.645 188.421L397.477 185.987C399.827 185.541 402.269 185.952 404.359 187.145L409.805 190.252L404.718 184.04C402.386 181.193 398.695 179.826 395.095 180.476L386.089 182.101Z" fill="black" fill-opacity="0.6" stroke="black" stroke-opacity="0.6"/>
<path d="M366.786 185.935C367.077 190.892 366.741 189.457 367.036 191.984L355.893 187.696C353.658 186.836 351.177 186.804 348.899 187.606L343.604 189.469L349.035 184.866C351.848 182.481 355.733 181.796 359.162 183.08L366.786 185.935Z" fill="black" fill-opacity="0.6" stroke="black" stroke-opacity="0.6"/>
<ellipse cx="12.3304" cy="8.87225" rx="12.3304" ry="8.87225" transform="matrix(0.92671 -0.375777 0.397954 0.917406 339.402 201.602)" fill="black" fill-opacity="0.21"/>
<ellipse cx="3.62706" cy="4.78497" rx="3.62706" ry="4.78497" transform="matrix(-0.991013 -0.133764 -0.138392 0.990378 396.338 194.424)" fill="black"/>
<path d="M392.674 194.434C391.871 194.325 391.047 194.651 390.361 195.336C389.675 196.021 389.152 197.049 388.982 198.26C388.813 199.47 389.036 200.597 389.508 201.439C389.981 202.281 390.684 202.813 391.488 202.922C392.292 203.03 393.116 202.704 393.801 202.019C394.488 201.333 395.011 200.307 395.18 199.096C395.349 197.885 395.127 196.757 394.654 195.915C394.182 195.074 393.478 194.542 392.674 194.434Z" stroke="black" stroke-opacity="0.6"/>
<path d="M413.234 172.759C389.036 166.48 362.202 168.512 350.05 168.519L344.97 175.921C341.21 179.485 337.847 182.416 335.796 192.24L324.867 163.401L324.019 154.303L327.464 144.813L333.147 139.024L340.778 134.47L347.651 130.784L355.547 130.393L363.301 129.497L370.482 131.195L378.653 130.355L386.39 132.613L394.045 132.433L401.683 135.406L409.271 135.702L416.493 138.619L423.99 141.088L430.013 146.514L436.07 151.702L439.581 159.946L438.882 164.951L437.592 169.633L436.359 178.45L435.161 187.03L425.105 203.012C425.824 193.008 419.491 186.099 414.836 181.955L413.234 172.759Z" fill="black" stroke="black" stroke-opacity="0.6"/>
<path d="M334.186 226.544C338.196 236.128 334.948 241.508 350.635 250.734C355.047 255.285 359.214 259.899 358.633 260.828C357.908 261.988 368.028 254.389 381.82 261.1C381.353 260.109 392.902 254.826 397.821 250.831C414.486 243.531 413.526 237.684 418.64 228.644L419.277 229.281C418.817 230.407 418.062 232.373 417.707 233.647C417.616 234.045 417.551 234.433 417.534 234.805C417.288 240.222 415.244 245.733 410.779 252.542C397.07 273.455 386.722 273.526 380.925 276.264C377.774 277.216 368.267 278.124 357.804 274.882C352.371 271.476 347.115 270.569 337.582 250.831C332.503 240.316 331.15 235.095 334.186 226.544Z" fill="black"/>
<path d="M418.64 228.644C413.526 237.684 414.486 243.531 397.821 250.831C392.902 254.826 381.353 260.109 381.82 261.1C368.028 254.389 357.908 261.988 358.633 260.828C359.214 259.899 355.047 255.285 350.635 250.734C334.948 241.508 338.196 236.128 334.186 226.544C331.15 235.095 332.503 240.316 337.582 250.831C347.115 270.569 352.371 271.476 357.804 274.882C368.267 278.124 377.774 277.216 380.925 276.264C386.722 273.526 397.07 273.455 410.779 252.542C415.244 245.733 417.288 240.222 417.534 234.805M418.64 228.644L419.277 229.281C418.611 230.91 417.329 234.295 417.534 234.805M418.64 228.644C418.972 230.579 417.621 232.898 417.534 234.805" stroke="black" stroke-opacity="0.6"/>
<path d="M376.883 200.588C373.99 206.058 367.715 217.435 365.75 219.184C363.294 221.371 368.737 224.462 380.838 224.078" stroke="#54260A" stroke-width="2" stroke-linecap="round"/>
<path d="M401.857 491.705C406.244 470.805 463.785 452.227 473.332 491.705H401.857Z" fill="#D9D9D9" stroke="black" stroke-width="2" stroke-linecap="round"/>
<path d="M430.691 475.967C425.581 475.967 417.027 480.248 411.405 487.837H437.079L436.434 480.87L430.691 475.967Z" fill="#606060"/>
<path d="M411.405 487.837C417.027 480.248 425.581 475.967 430.691 475.967M411.405 487.837H437.079L436.434 480.87L430.691 475.967M411.405 487.837H403.406M430.691 475.967L422.759 472.871" stroke="black" stroke-width="2" stroke-linecap="round"/>
<path d="M365.214 320.247C371.456 322.518 375.645 328.485 379.763 334.878C390.948 331.355 411.047 324.299 407.804 320.247C404.562 316.195 404.423 317.421 401.226 315.349C395.6 311.278 385.932 301.576 392.263 295.336C400.178 287.536 400.221 275.732 398.803 270.473C397.669 266.266 400.096 261.373 401.452 259.453L406.886 253.689C415.222 238.933 392.864 247.896 393.64 253.495C392.22 254.48 389.695 264.481 388.506 270.16C384.679 278.439 377.662 273.983 376.867 272.481C376.071 270.979 372.542 267.11 369.781 264.77C361.642 257.874 344.927 246.782 341.952 248.14C335.784 253.026 342.233 260.862 347.863 264.77C347.032 264.441 344.67 263.737 343.593 263.426C335.173 263.657 337.208 270.496 339.278 273.887C330.432 277.036 334.357 283.547 337.425 286.409C334.705 285.927 329.882 286.848 332.345 294.39C335.424 303.817 357.413 317.409 365.214 320.247Z" fill="#A96836" stroke="black" stroke-width="2" stroke-linecap="round"/>
<path d="M415.921 321.478L368.336 342.721L364.725 324.452L405.937 304.695L415.921 321.478Z" fill="white" stroke="black" stroke-width="2"/>
<path d="M257.189 442.635C266.112 454.106 270.36 477.049 262.288 485.546H285.549H308.811C291.136 469.911 291.958 450.424 295.215 442.635H273.653H257.189Z" fill="#D9D9D9" stroke="black" stroke-width="2" stroke-linecap="round"/>
<path d="M218.551 486.121H347.665C351.014 486.121 354.101 487.787 355.952 490.494H215.188C214.606 488.346 216.216 486.121 218.551 486.121Z" fill="#606060" stroke="black" stroke-width="2"/>
<rect x="108" y="491.645" width="473" height="24.3417" fill="#78423D" stroke="black" stroke-width="2"/>
<path d="M124.496 290.475C123.038 284.205 127.798 278.211 134.236 278.211H361.085C365.735 278.211 369.772 281.417 370.825 285.947L401.039 415.91L403.092 424.739C406.153 437.907 396.156 450.494 382.637 450.494H178.375C168.609 450.494 160.132 443.762 157.92 434.25L153.657 415.91L124.496 290.475Z" fill="url(#paint2_linear_62_254)"/>
<path d="M397.497 416.91L399.369 424.966C402.284 437.506 392.763 449.494 379.888 449.494H175.626C166.326 449.494 158.252 443.083 156.146 434.023L152.167 416.91H397.497ZM131.488 279.211H358.336C362.391 279.211 365.928 281.918 367.006 285.794L367.103 286.173L397.032 414.91H151.703L122.721 290.249C121.409 284.606 125.694 279.211 131.488 279.211Z" fill="#D9D9D9" stroke="black" stroke-width="2"/>
<path d="M397.26 416.697L399.133 424.752C402.048 437.293 392.527 449.281 379.652 449.281H175.39C166.234 449.281 158.268 443.068 156.013 434.232L155.909 433.811L151.931 416.697H397.26Z" fill="#606060" stroke="black" stroke-width="2"/>
<path d="M255.047 340.317C259.672 340.634 262.544 341.63 264.165 342.914C265.748 344.168 266.17 345.721 265.846 347.34C265.513 348.997 264.387 350.751 262.807 352.273C261.232 353.791 259.249 355.037 257.276 355.701L255.898 356.165L257.271 356.646C259.639 357.478 261.848 358.724 263.583 360.167C265.325 361.616 266.551 363.232 267.02 364.789C267.478 366.312 267.222 367.802 265.947 369.121C264.643 370.471 262.236 371.677 258.322 372.465C253.489 373.199 248.785 372.972 245.137 371.079C241.526 369.205 238.869 365.656 238.18 359.544C238.182 354.82 238.742 350.02 241.104 346.405C243.439 342.831 247.601 340.322 255.047 340.317Z" fill="#606060" stroke="black"/>
<path d="M363.541 240.766C363.665 240.714 363.849 240.738 363.984 240.781C364.026 240.795 364.014 240.876 364.043 240.889C364.101 240.914 364.148 240.87 364.206 240.901C364.225 240.911 364.216 241.039 364.236 241.047C364.346 241.091 364.443 241.049 364.554 241.064C365.085 241.139 365.605 241.127 366.143 241.12C366.317 241.118 366.543 241.206 366.72 241.134C366.741 241.125 366.715 241.017 366.717 241.007C366.764 240.861 366.77 241.085 366.814 241.11C366.989 241.206 367.17 241.193 367.323 241.131C367.323 241.13 367.324 241.13 367.325 241.13C367.385 241.098 367.293 240.896 367.375 241.008C367.381 241.016 367.379 241.135 367.399 241.145C367.444 241.167 367.521 241.136 367.555 241.141C367.618 241.152 367.628 241.149 367.686 241.143C367.766 241.135 367.868 241.181 367.95 241.143C367.968 241.135 367.928 241.019 367.954 240.995C367.981 240.97 368.06 240.97 368.09 240.995C368.12 241.02 368.121 241.115 368.129 241.136C368.191 241.312 368.248 241.049 368.258 241.041C368.455 240.907 368.65 241.026 368.848 240.998C368.997 240.977 369.154 240.907 369.294 240.894C369.464 240.878 369.616 240.923 369.78 240.888C369.797 240.884 369.757 240.747 369.778 240.742C370.003 240.693 370.224 240.677 370.463 240.737C370.487 240.744 370.476 240.871 370.501 240.885C370.653 240.965 370.911 241.174 370.91 240.627C371.005 240.634 371.121 240.639 371.221 240.733C371.276 240.786 371.261 240.897 371.291 240.886C371.296 240.884 371.303 240.879 371.311 240.869C371.324 240.854 371.286 240.74 371.307 240.726C371.394 240.669 371.503 240.691 371.587 240.616C371.604 240.6 371.582 240.496 371.585 240.476C371.606 240.316 371.72 240.558 371.739 240.573C371.885 240.691 371.967 240.622 372.083 240.607C372.11 240.604 372.055 240.468 372.081 240.46C372.211 240.418 372.352 240.408 372.493 240.449C372.525 240.458 372.518 240.582 372.534 240.593C372.604 240.639 372.581 240.41 372.647 240.449C372.661 240.457 372.671 240.561 372.676 240.572C372.74 240.743 372.73 240.487 372.738 240.48C372.84 240.385 372.958 240.635 373.063 240.579C373.075 240.572 373.024 240.447 373.06 240.436C373.304 240.358 373.573 240.349 373.838 240.409C373.879 240.418 373.869 240.521 373.873 240.532C373.946 240.713 373.927 240.457 373.938 240.446C374.025 240.36 374.154 240.555 374.168 240.243C374.518 240.267 374.835 240.115 375.185 240.152C375.272 240.161 375.361 240.181 375.452 240.219C375.458 240.221 375.472 240.346 375.484 240.35C375.623 240.395 375.563 240.208 375.601 239.957C375.611 239.894 375.729 240.165 375.739 240.185C375.774 240.258 375.788 240.445 375.798 240.459C375.878 240.564 375.751 239.959 375.828 239.944C375.831 239.944 375.842 240.058 375.851 240.068C375.878 240.099 375.889 240.051 375.916 240.085C375.978 240.166 376.051 240.457 376.087 240.272C376.091 240.248 376.011 239.907 376.083 239.909C376.112 239.911 376.232 239.881 376.271 239.897C376.309 239.912 376.308 240.028 376.311 240.032C376.432 240.16 376.409 240.228 376.498 240.436C376.587 240.643 376.472 240.13 376.479 240.069C376.486 240.007 376.578 240.115 376.603 240.154C376.627 240.192 376.621 240.267 376.64 240.288C376.769 240.424 376.632 240.023 376.647 239.935C376.683 239.726 376.819 240.097 376.895 240.12C376.916 240.126 376.883 240.042 376.898 240.031C376.958 239.986 377.023 240.097 377.075 239.972C377.084 239.952 377.097 239.71 377.171 239.87C377.182 239.893 377.186 239.992 377.218 240.007C377.267 240.03 377.347 240.035 377.386 239.994C377.414 239.964 377.343 239.815 377.395 239.855C377.418 239.873 377.403 239.971 377.445 239.997C377.487 240.023 377.574 240 377.607 239.99C377.64 239.98 377.597 239.865 377.598 239.856C377.604 239.807 377.656 239.736 377.662 239.735C377.949 239.658 378.259 239.799 378.522 239.671C378.543 239.661 378.5 239.539 378.503 239.536C378.567 239.467 378.582 239.812 378.661 239.911C378.596 239.66 378.637 239.699 378.684 239.659C378.707 239.639 378.671 239.544 378.671 239.534C378.675 239.376 378.745 239.562 378.761 239.6C378.819 239.739 378.808 239.562 378.847 239.655C378.886 239.747 378.88 239.898 378.93 239.884C378.924 239.791 378.831 239.562 378.861 239.515C378.907 239.441 378.987 239.419 379.074 239.417C379.198 239.415 379.333 239.455 379.407 239.45C379.529 239.441 379.563 239.415 379.639 239.431C379.776 239.46 379.688 239.296 379.744 239.197C379.8 239.098 379.87 239.538 379.904 239.628C379.937 239.718 379.926 239.62 379.952 239.667C379.978 239.715 379.964 239.785 380 239.796C380.037 239.807 380.081 239.621 380.068 239.522C380.04 239.311 379.948 239.106 380.048 239.16C380.054 239.164 380.068 239.281 380.088 239.288C380.256 239.338 380.41 239.304 380.575 239.343C380.598 239.349 380.613 239.479 380.626 239.484C380.768 239.532 380.669 239.332 380.673 239.08C380.741 239.396 380.828 239.578 380.92 239.556C380.975 239.542 380.929 239.408 380.938 239.303C380.941 239.271 381.006 239.354 380.996 239.288C380.962 239.071 380.862 238.847 380.982 238.914C380.987 238.918 381.005 239.036 381.022 239.039C381.127 239.059 381.078 238.837 381.17 238.783C381.241 238.741 381.416 238.836 381.509 238.833C381.607 239.183 381.666 239.08 381.632 238.828C381.693 238.821 381.752 238.79 381.817 238.806C381.84 238.812 381.857 238.917 381.862 238.927C381.95 239.088 381.906 238.846 381.916 238.833C382.023 238.704 382.185 238.849 382.257 238.638C382.26 238.63 382.193 238.386 382.28 238.552C382.286 238.564 382.278 238.687 382.341 238.676C382.405 238.666 382.56 238.76 382.608 238.621C382.619 238.588 382.607 238.377 382.697 238.516C382.709 238.535 382.725 238.606 382.745 238.642C382.81 238.756 382.745 238.509 382.842 238.705C382.919 238.863 383.007 238.98 383.057 238.934C383.07 238.922 383.08 238.9 383.087 238.867C383.088 238.862 383.043 238.663 383.071 238.657C383.116 238.648 383.19 238.667 383.234 238.651C383.255 238.643 383.201 238.529 383.204 238.525C383.323 238.41 383.458 238.482 383.622 238.475C383.652 238.474 383.672 238.284 383.773 238.391C383.884 238.509 384.036 239.111 384.124 238.921C384.161 238.845 383.95 238.087 384.191 238.429C384.333 238.266 384.6 238.382 384.726 238.172C384.732 238.163 384.671 237.951 384.691 237.946C384.722 237.938 384.778 238.025 384.8 238.022C384.898 238.013 384.947 237.896 385.034 237.871C385.068 237.861 385.101 237.961 385.141 237.949C385.181 237.937 385.146 237.8 385.225 237.837C385.284 237.865 385.446 238.103 385.511 238.108C385.389 237.855 385.428 237.842 385.457 237.745C385.463 237.726 385.406 237.645 385.406 237.632C385.406 237.575 385.464 237.637 385.46 237.577C385.459 237.563 385.416 237.477 385.413 237.461C385.383 237.318 385.54 237.478 385.568 237.506C385.673 237.611 385.632 237.492 385.687 237.525C385.743 237.559 385.733 237.644 385.784 237.655C385.883 237.681 385.979 237.609 386.053 237.57C386.083 237.553 385.997 237.456 386 237.451C386.042 237.388 386.173 237.467 386.067 237.232C386.461 237.762 386.064 237.159 386.218 237.215C386.23 237.22 386.412 237.472 386.411 237.529C386.406 237.586 386.318 237.527 386.321 237.61C386.322 237.629 386.428 237.907 386.429 237.927C386.446 238.079 386.196 237.686 386.181 237.666C386.007 237.449 386.108 237.754 386.101 237.783C386.074 237.914 385.976 237.894 385.951 237.989C385.932 238.051 386.073 238.321 386.035 238.331C385.908 238.364 385.677 238.005 385.736 238.388C385.749 238.469 385.919 238.757 385.719 238.563C385.707 238.551 385.544 238.364 385.576 238.517C385.58 238.536 385.622 238.624 385.62 238.634C385.604 238.7 385.545 238.642 385.518 238.695C385.492 238.749 385.463 238.823 385.4 238.816C385.361 238.811 385.249 238.664 385.216 238.63C385.125 238.531 385.164 238.742 385.08 238.611C384.994 238.479 384.945 238.243 384.844 238.177C384.942 238.409 385.04 238.649 385.137 238.884C384.994 238.936 384.822 238.919 384.681 238.988C384.663 238.997 384.732 239.115 384.715 239.128C384.637 239.183 384.538 239.118 384.468 239.186C384.415 239.239 384.395 239.4 384.338 239.46C384.195 239.206 384.128 239.335 384.044 239.338C384.014 239.339 383.989 239.266 383.963 239.248C383.865 239.185 383.982 239.414 383.977 239.458C383.955 239.648 383.755 239.107 383.667 239.153C383.662 239.155 383.702 239.467 383.7 239.488C383.686 239.625 383.656 239.39 383.614 239.38C383.539 239.362 383.472 239.307 383.428 239.417C383.415 239.45 383.424 239.649 383.335 239.523C383.324 239.506 383.295 239.408 383.289 239.404C383.24 239.373 383.233 239.417 383.239 239.486C383.247 239.57 383.274 239.692 383.268 239.757C383.257 239.874 383.119 239.687 383.086 239.631C382.999 239.487 383.092 239.555 383.089 239.539C383.053 239.349 383.014 239.397 382.97 239.394C382.869 239.097 382.821 239.132 382.926 239.392C382.937 239.42 382.958 239.382 382.97 239.394C383.031 239.697 382.983 239.754 382.83 239.501C382.758 239.382 382.74 239.223 382.664 239.307C382.629 239.346 382.71 239.546 382.69 239.614C382.64 239.77 382.476 239.61 382.397 239.667C382.368 239.688 382.433 239.791 382.415 239.809C382.367 239.858 382.29 239.788 382.245 239.849C382.241 239.854 382.289 239.969 382.271 239.976C382.137 240.03 381.989 239.991 381.848 240.029C381.779 240.048 381.674 240.148 381.598 240.155C381.466 240.168 381.264 240.037 381.167 240.108C381.105 240.154 381.153 240.269 381.145 240.358C381.13 240.531 380.953 240.276 380.928 240.235C380.927 240.234 380.979 240.19 380.931 240.137C380.879 240.014 380.929 240.235 380.928 240.235C380.912 240.209 380.785 240.214 380.767 240.243C380.758 240.258 380.794 240.37 380.789 240.376C380.655 240.519 380.495 240.591 380.322 240.578C380.319 240.576 380.291 240.448 380.284 240.446C380.176 240.413 380.155 240.583 380.1 240.695C380.044 240.806 379.974 240.79 379.875 240.583C379.823 240.625 379.714 240.549 379.651 240.502C379.589 240.455 379.641 240.705 379.638 240.71C379.568 240.849 379.49 240.819 379.398 240.797C379.364 240.789 379.328 240.782 379.29 240.785C379.222 240.789 379.099 240.856 379.034 240.899C378.982 240.934 378.935 240.884 378.891 240.933C378.885 240.939 378.917 241.049 378.916 241.053C378.888 241.199 378.855 240.922 378.832 240.876C378.748 240.71 378.701 240.622 378.646 240.722C378.634 240.744 378.671 241.146 378.645 241.175C378.611 241.213 378.595 241.07 378.56 241.113C378.557 241.117 378.577 241.203 378.55 241.205C378.425 241.216 378.281 241.194 378.155 241.231C378.138 241.235 378.19 241.368 378.166 241.376C378.05 241.419 377.922 241.44 377.794 241.4C377.762 241.39 377.76 241.29 377.748 241.263C377.674 241.099 377.674 241.36 377.666 241.367C377.482 241.531 377.273 241.338 377.082 241.489C377.072 241.498 377.037 241.785 376.95 241.562C376.945 241.548 376.858 241.319 376.855 241.488C376.855 241.498 376.904 241.615 376.859 241.611C376.813 241.608 376.76 241.703 376.675 241.581C376.647 241.542 376.557 241.315 376.538 241.514C376.537 241.528 376.534 241.97 376.446 241.683C376.431 241.636 376.376 241.324 376.34 241.496C376.333 241.53 376.37 241.594 376.345 241.644C376.306 241.721 376.223 241.651 376.186 241.802C376.18 241.828 376.174 242.048 376.105 241.895C376.095 241.871 376.086 241.765 376.064 241.758C375.959 241.72 375.873 241.808 375.764 241.755C375.725 241.736 375.71 241.565 375.667 241.527C375.623 241.488 375.543 241.458 375.521 241.542C375.498 241.626 375.589 241.886 375.537 241.917C375.53 241.922 375.524 241.925 375.517 241.929C375.297 242.049 375.037 241.943 374.799 241.963C374.763 241.966 374.81 242.056 374.757 242.068C374.564 242.11 374.244 242.259 374.039 242.084C373.876 241.945 374.024 241.791 373.91 241.742C373.855 241.719 373.855 242.04 373.844 242.052C373.744 242.172 373.638 242.048 373.54 242.108C373.519 242.121 373.562 242.243 373.545 242.253C373.485 242.285 373.408 242.24 373.349 242.261C373.323 242.27 373.344 242.366 373.318 242.363C373.255 242.356 373.195 242.324 373.122 242.243C373.115 242.236 373.131 242.11 373.086 242.113C373.013 242.118 372.909 242.043 372.842 242.149C372.822 242.181 372.858 242.402 372.78 242.258C372.763 242.228 372.734 241.96 372.71 242.2C372.706 242.239 372.653 242.565 372.57 242.374C372.548 242.324 372.479 242.112 372.455 242.151C372.452 242.157 372.487 242.273 372.464 242.289C372.384 242.342 372.292 242.343 372.21 242.395C372.188 242.409 372.242 242.526 372.209 242.543C372.117 242.589 371.992 242.577 371.89 242.553C371.853 242.544 371.861 242.439 371.857 242.428C371.788 242.254 371.801 242.501 371.79 242.518C371.719 242.616 371.636 242.511 371.563 242.554C371.543 242.565 371.576 242.679 371.573 242.69C371.573 242.693 371.572 242.696 371.571 242.699C371.545 242.785 371.545 242.584 371.514 242.566C371.425 242.513 371.339 242.535 371.262 242.562C371.234 242.572 371.287 242.702 371.262 242.709C371.112 242.756 370.946 242.768 370.783 242.716C370.753 242.706 370.755 242.6 370.746 242.577C370.68 242.417 370.654 242.652 370.643 242.676C370.595 242.784 370.557 242.695 370.504 242.721C370.25 242.845 369.899 242.834 369.64 242.832C369.304 242.83 369.024 242.768 368.713 242.836C368.693 242.841 368.732 242.976 368.716 242.981C368.497 243.045 368.263 243.021 368.044 243.09C368.026 243.096 368.07 243.223 368.041 243.237C367.983 243.264 367.906 243.267 367.84 243.233C367.807 243.217 367.832 243.099 367.8 243.085C367.723 243.052 367.646 243.053 367.575 243.083C367.575 243.083 367.575 243.083 367.575 243.083C367.546 243.098 367.609 243.224 367.569 243.231C367.295 243.28 367.039 243.335 366.734 243.196C366.714 243.186 366.664 242.916 366.63 242.973C366.636 243.049 366.647 243.138 366.656 243.219C366.272 243.31 365.852 243.263 365.459 243.293C365.442 243.295 365.488 243.436 365.454 243.439C365.262 243.459 365.083 243.519 364.879 243.396C364.858 243.384 364.841 243.128 364.787 243.173C364.778 243.181 364.695 243.224 364.678 243.282C364.676 243.291 364.705 243.408 364.677 243.414C364.518 243.45 364.349 243.44 364.186 243.384C364.159 243.374 364.174 243.245 364.154 243.237C364.013 243.184 363.881 243.294 363.747 243.191C363.658 243.122 363.666 242.9 363.602 242.689C363.593 242.659 363.542 242.659 363.528 242.534C363.49 242.219 363.48 241.871 363.437 241.536C363.428 241.463 363.37 241.548 363.392 241.369C363.393 241.357 363.435 241.294 363.441 241.234C363.445 241.192 363.418 241.066 363.43 241.011C363.441 240.957 363.47 241.062 363.492 240.998C363.513 240.933 363.487 240.789 363.541 240.766ZM379.372 240.291C379.3 240.182 379.396 240.621 379.42 240.505C379.421 240.499 379.376 240.296 379.372 240.291ZM384.693 238.606C384.561 238.446 384.632 238.731 384.73 238.856C384.829 238.981 384.734 238.654 384.693 238.606ZM385.216 238.22C385.087 238.108 385.339 238.692 385.358 238.542C385.359 238.534 385.224 238.227 385.216 238.22ZM363.797 242.607C363.795 242.601 363.758 242.599 363.758 242.605C363.753 242.749 363.827 242.753 363.797 242.607ZM385.708 237.802C385.648 237.736 385.638 237.854 385.712 237.936C385.772 238.002 385.782 237.884 385.708 237.802ZM376.941 240.334C376.939 240.328 376.912 240.327 376.92 240.364C376.946 240.483 376.975 240.442 376.941 240.334ZM386.606 237.233C386.463 237.31 386.092 236.927 386.253 236.885C386.283 236.877 386.301 237.057 386.359 237.074C386.466 237.103 386.303 236.813 386.461 236.914C386.492 236.931 386.616 237.229 386.606 237.234C386.606 237.234 386.606 237.234 386.606 237.233ZM379.223 239.773C379.221 239.767 379.184 239.77 379.185 239.776C379.198 239.919 379.272 239.913 379.223 239.773ZM375.379 240.357C375.375 240.345 375.289 240.349 375.289 240.361C375.288 240.598 375.461 240.591 375.379 240.357ZM381.513 238.842C381.512 238.693 381.55 238.664 381.632 238.828C381.59 238.83 381.554 238.839 381.513 238.842Z" fill="black"/>
<ellipse cx="3.62706" cy="4.78497" rx="3.62706" ry="4.78497" transform="matrix(-0.991013 -0.133764 -0.138392 0.990378 364.1 192.51)" fill="black"/>
<path d="M360.436 192.52C359.632 192.411 358.809 192.736 358.123 193.422C357.437 194.107 356.913 195.135 356.744 196.345C356.575 197.556 356.797 198.683 357.27 199.525C357.743 200.367 358.446 200.899 359.25 201.008C360.054 201.116 360.877 200.79 361.563 200.105C362.249 199.419 362.773 198.392 362.942 197.182C363.111 195.971 362.889 194.843 362.416 194.001C361.944 193.16 361.24 192.628 360.436 192.52Z" stroke="black" stroke-opacity="0.6"/>
<defs>
<linearGradient id="paint0_linear_62_254" x1="381.464" y1="42.3575" x2="383.163" y2="183.413" gradientUnits="userSpaceOnUse">
<stop stop-color="#D5D5D5"/>
<stop offset="1"/>
</linearGradient>
<linearGradient id="paint1_linear_62_254" x1="375.482" y1="247.158" x2="375.482" y2="490.997" gradientUnits="userSpaceOnUse">
<stop stop-color="#AA2828"/>
<stop offset="1" stop-color="#5F1919"/>
</linearGradient>
<linearGradient id="paint2_linear_62_254" x1="353.635" y1="294.143" x2="391.66" y2="445.396" gradientUnits="userSpaceOnUse">
<stop stop-color="#FFE856"/>
<stop offset="1" stop-color="#00C8FF"/>
</linearGradient>
</defs>
</svg>
