<svg width="422" height="397" viewBox="0 0 422 397" fill="none" xmlns="http://www.w3.org/2000/svg">
<path d="M278.531 286.538C291.737 311.197 328.858 320.489 331 320.847C287.454 357.657 261.755 359.086 210 357.657C158.245 359.086 132.546 357.657 89 320.847C91.1416 320.489 128.263 311.197 141.469 286.538L152.177 229H209.643H267.823L278.531 286.538Z" fill="#A65E26"/>
<path d="M122 307.5L136.5 297.5C139.3 295.569 145 298.695 147.5 300.5L174.5 323L190.5 336H225.5L243 327.5L271 298.5C274.5 295.5 282.2 290.6 285 295C287.8 299.4 296.833 305.167 301 307.5C243 426.5 134 373 122 307.5Z" fill="white" stroke="black" stroke-width="3" stroke-linejoin="round"/>
<path d="M210.365 31.7657C170.019 25.7351 129.49 54.5533 122.91 112.103C91.7962 93.9443 86.7193 176.555 130.778 170.968C148.253 229.055 152.535 247.613 210.365 265.738C268.195 247.613 272.108 229.055 289.583 170.968C333.641 176.555 328.565 93.9444 297.451 112.103C290.871 54.5533 250.711 25.7351 210.365 31.7657Z" fill="#A65E26"/>
<ellipse cx="173.843" cy="134.17" rx="24.9825" ry="21.7705" transform="rotate(-28.7281 173.843 134.17)" fill="black" fill-opacity="0.21"/>
<path d="M165.913 221.649C138.242 208.896 132.831 181.325 132.452 165.171C128.029 178.41 132.369 207.76 144.704 221.649C171.237 251.528 179.328 262.459 188.931 267.196C207.125 271.277 222.287 268.897 227.594 267.196V240.961C207.504 226.751 186.761 244.241 187.898 242.419C188.808 240.961 173.873 228.208 165.913 221.649Z" fill="black" stroke="black"/>
<path d="M254.078 220.936C281.749 208.182 287.16 180.611 287.539 164.457C291.961 177.696 287.622 207.046 275.287 220.936C248.753 250.814 240.663 261.746 231.06 266.483C212.866 270.564 197.704 268.183 192.397 266.483V240.247C212.487 226.037 233.23 243.527 232.093 241.705C231.183 240.247 246.118 227.494 254.078 220.936Z" fill="black" stroke="black"/>
<path d="M191.08 87.7251C195.363 95.5768 193.578 93.4354 196.076 97.3612L167.589 96.2217C162.884 96.0335 158.221 97.1783 154.137 99.5241L143.613 105.57L152.384 94.7596C156.526 89.6541 162.82 86.7831 169.391 87.0021L191.08 87.7251Z" fill="black" stroke="black"/>
<path d="M228.554 87.7251C224.271 95.5768 226.056 93.4354 223.557 97.3612L252.044 96.2217C256.75 96.0335 261.413 97.1783 265.497 99.5241L276.021 105.57L267.25 94.7596C263.108 89.6541 256.814 86.7831 250.243 87.0021L228.554 87.7251Z" fill="black" stroke="black"/>
<path d="M124.341 154.464C120.246 151.163 113.789 141.259 120.727 128.054C111.934 133.556 100.347 146.541 124.341 154.464Z" fill="#441615" fill-opacity="0.6"/>
<path d="M297.791 154.464C301.886 151.163 308.342 141.259 301.405 128.054C310.197 133.556 321.785 146.541 297.791 154.464Z" fill="#441615" fill-opacity="0.6"/>
<path d="M272.095 54.1771C229.981 42.9974 169.466 47.2418 148.61 54.1771L141.171 83.0682C135.808 86.1506 124.796 96.3224 123.652 112.351L113.641 64.9593L110.065 50.7033L113.641 34.9061L121.864 24.5031L133.663 15.6413L144.389 8.32064L157.618 6.00886L170.49 2.92648L183.004 4.08237L196.591 1L210.177 2.92648L223.049 1L236.636 4.08237L249.507 2.92648L262.379 6.00886L275.608 8.32064L287.049 15.6413L298.491 22.5766L306.357 34.9061V42.9974L305.284 50.7033V64.9593V78.83L297.501 111.5C296.357 95.4716 284.189 86.1506 278.826 83.0682L272.095 54.1771Z" fill="black" stroke="black"/>
<rect x="198" y="325" width="25" height="66" fill="white" stroke="black" stroke-width="2"/>
<circle cx="210" cy="336" r="5" fill="black"/>
<circle cx="210" cy="391" r="5" fill="black"/>
<path d="M420 357.527C336.471 311.099 297.515 300.576 285 299.5C285 299.5 240.5 344.027 210.5 361C168 344.385 133 298 133 298C117 311.5 28.5849 344.07 2 357.885C140.737 427.239 338.474 386.544 420 357.527Z" fill="black"/>
<path d="M133 298C117 311.5 28.5849 344.07 2 357.885C140.737 427.239 338.474 386.544 420 357.527C336.472 311.099 297.515 300.576 285 299.5C285 299.5 240.5 344.027 210.5 361C168 344.385 133 298 133 298ZM133 298C134.466 297.833 132.339 297.702 133 298Z" stroke="black"/>
<ellipse cx="8.53695" cy="11.2623" rx="8.53695" ry="11.2623" transform="matrix(1 0 0.00467232 -0.999989 239 134.524)" fill="black"/>
<path d="M247.539 134.024C249.706 134.024 251.71 132.867 253.192 130.924C254.674 128.98 255.613 126.273 255.627 123.262C255.641 120.251 254.727 117.544 253.263 115.601C251.799 113.658 249.807 112.5 247.64 112.5C245.473 112.5 243.469 113.658 241.987 115.601C240.505 117.544 239.567 120.251 239.553 123.262C239.539 126.273 240.451 128.98 241.915 130.924C243.379 132.867 245.372 134.024 247.539 134.024Z" stroke="black" stroke-opacity="0.6"/>
<ellipse cx="8.53695" cy="11.2623" rx="8.53695" ry="11.2623" transform="matrix(1 0 0.00467232 -0.999989 170 134.524)" fill="black"/>
<path d="M178.539 134.024C180.706 134.024 182.71 132.867 184.192 130.924C185.674 128.98 186.613 126.273 186.627 123.262C186.641 120.251 185.727 117.544 184.263 115.601C182.799 113.658 180.807 112.5 178.64 112.5C176.473 112.5 174.469 113.658 172.987 115.601C171.505 117.544 170.567 120.251 170.553 123.262C170.539 126.273 171.451 128.98 172.915 130.924C174.379 132.867 176.372 134.024 178.539 134.024Z" stroke="black" stroke-opacity="0.6"/>
<path d="M186.22 195.4C186.49 195.519 186.808 195.752 187.044 195.947C187.115 196.007 187.036 196.055 187.084 196.099C187.178 196.186 187.299 196.207 187.391 196.298C187.422 196.328 187.317 196.416 187.351 196.445C187.536 196.606 187.753 196.682 187.961 196.816C188.973 197.469 190.052 197.984 191.192 198.476C191.56 198.636 191.987 198.911 192.406 199.002C192.455 199.012 192.463 198.898 192.475 198.893C192.66 198.808 192.541 199.004 192.624 199.063C192.946 199.295 193.343 199.434 193.708 199.503C193.71 199.503 193.712 199.504 193.714 199.504C193.861 199.524 193.779 199.278 193.892 199.439C193.9 199.451 193.828 199.551 193.865 199.576C193.95 199.631 194.134 199.665 194.205 199.696C194.34 199.756 194.364 199.761 194.494 199.801C194.672 199.856 194.869 199.973 195.071 200.002C195.114 200.008 195.091 199.876 195.163 199.875C195.234 199.874 195.407 199.932 195.458 199.975C195.51 200.019 195.46 200.103 195.465 200.127C195.504 200.327 195.774 200.137 195.802 200.138C196.312 200.163 196.676 200.403 197.13 200.512C197.472 200.593 197.857 200.633 198.178 200.71C198.563 200.804 198.881 200.938 199.265 201.004C199.305 201.012 199.286 200.863 199.336 200.872C199.866 200.962 200.37 201.073 200.877 201.26C200.927 201.279 200.838 201.389 200.888 201.415C201.189 201.573 201.666 201.901 201.939 201.397C202.152 201.452 202.412 201.515 202.59 201.652C202.689 201.728 202.599 201.823 202.673 201.828C202.686 201.829 202.703 201.827 202.727 201.822C202.763 201.815 202.735 201.691 202.789 201.688C203.016 201.678 203.251 201.751 203.478 201.72C203.524 201.714 203.527 201.607 203.542 201.59C203.669 201.451 203.808 201.728 203.844 201.752C204.117 201.928 204.338 201.901 204.609 201.938C204.672 201.946 204.615 201.796 204.676 201.799C204.994 201.817 205.319 201.867 205.621 201.964C205.688 201.985 205.612 202.099 205.644 202.116C205.783 202.188 205.839 201.963 205.972 202.027C206.001 202.04 205.973 202.141 205.978 202.153C206.043 202.34 206.142 202.095 206.164 202.092C206.443 202.043 206.592 202.324 206.86 202.311C206.892 202.309 206.833 202.171 206.922 202.174C207.517 202.192 208.136 202.278 208.716 202.423C208.806 202.445 208.734 202.539 208.739 202.552C208.82 202.748 208.897 202.497 208.928 202.49C209.166 202.436 209.373 202.663 209.55 202.368C210.343 202.498 211.139 202.438 211.93 202.559C212.125 202.589 212.319 202.629 212.513 202.687C212.526 202.69 212.501 202.815 212.526 202.822C212.827 202.897 212.772 202.701 212.974 202.465C213.025 202.405 213.174 202.695 213.188 202.716C213.236 202.795 213.184 202.981 213.2 202.997C213.336 203.116 213.318 202.498 213.502 202.499C213.508 202.5 213.483 202.613 213.499 202.625C213.547 202.661 213.595 202.616 213.642 202.655C213.749 202.746 213.788 203.046 213.953 202.871C213.974 202.849 213.942 202.498 214.106 202.514C214.172 202.521 214.462 202.514 214.543 202.535C214.624 202.557 214.57 202.671 214.575 202.676C214.796 202.823 214.713 202.886 214.826 203.106C214.939 203.325 214.902 202.799 214.946 202.74C214.989 202.681 215.152 202.802 215.192 202.844C215.232 202.886 215.184 202.959 215.22 202.982C215.455 203.136 215.317 202.719 215.391 202.634C215.568 202.433 215.718 202.82 215.886 202.853C215.931 202.862 215.892 202.775 215.932 202.765C216.089 202.729 216.188 202.848 216.364 202.73C216.393 202.711 216.53 202.472 216.63 202.64C216.644 202.664 216.61 202.763 216.678 202.782C216.78 202.811 216.961 202.825 217.068 202.788C217.146 202.76 217.048 202.604 217.15 202.65C217.195 202.67 217.117 202.767 217.202 202.797C217.286 202.827 217.501 202.813 217.582 202.805C217.664 202.798 217.613 202.679 217.619 202.67C217.656 202.622 217.809 202.555 217.823 202.554C218.517 202.501 219.156 202.662 219.833 202.537C219.885 202.527 219.839 202.402 219.847 202.4C220.023 202.331 219.91 202.682 220.047 202.785C220.006 202.527 220.084 202.568 220.209 202.528C220.269 202.508 220.227 202.411 220.231 202.4C220.308 202.24 220.389 202.431 220.409 202.469C220.483 202.612 220.532 202.431 220.582 202.525C220.633 202.62 220.553 202.774 220.674 202.76C220.699 202.665 220.586 202.431 220.674 202.383C220.811 202.308 221.002 202.285 221.203 202.282C221.493 202.277 221.795 202.313 221.961 202.305C222.243 202.291 222.331 202.262 222.497 202.275C222.797 202.297 222.667 202.132 222.836 202.026C223.005 201.92 222.978 202.371 223.017 202.462C223.056 202.553 223.071 202.452 223.111 202.499C223.151 202.547 223.089 202.621 223.168 202.63C223.248 202.639 223.433 202.441 223.445 202.338C223.471 202.121 223.346 201.915 223.557 201.963C223.569 201.965 223.549 202.086 223.594 202.091C223.957 202.128 224.318 202.077 224.674 202.097C224.723 202.1 224.703 202.235 224.732 202.238C225.035 202.27 224.896 202.072 225.013 201.805C225.033 202.13 225.156 202.309 225.379 202.271C225.512 202.248 225.463 202.113 225.531 201.999C225.551 201.965 225.662 202.042 225.667 201.974C225.682 201.75 225.549 201.528 225.791 201.58C225.801 201.582 225.793 201.705 225.828 201.706C226.057 201.709 226.039 201.481 226.267 201.406C226.44 201.349 226.809 201.413 227.024 201.388C227.098 201.744 227.282 201.617 227.307 201.354C227.446 201.333 227.589 201.285 227.728 201.287C227.776 201.288 227.771 201.398 227.779 201.407C227.908 201.56 227.91 201.308 227.937 201.292C228.223 201.126 228.543 201.235 228.797 200.98C228.807 200.971 228.758 200.722 228.887 200.878C228.895 200.889 228.826 201.027 228.97 200.997C229.114 200.967 229.418 201.023 229.58 200.854C229.62 200.813 229.677 200.582 229.821 200.707C229.84 200.724 229.846 200.797 229.877 200.83C229.975 200.935 229.934 200.681 230.068 200.866C230.176 201.015 230.325 201.115 230.459 201.043C230.493 201.025 230.525 200.996 230.556 200.955C230.561 200.949 230.547 200.741 230.609 200.724C230.71 200.697 230.863 200.691 230.965 200.656C231.014 200.639 230.942 200.53 230.95 200.525C231.25 200.349 231.527 200.371 231.898 200.286C231.967 200.27 232.09 200.04 232.262 200.119C232.451 200.204 232.536 200.835 232.797 200.573C232.903 200.467 232.761 199.68 233.147 199.956C233.55 199.675 234.023 199.687 234.392 199.344C234.409 199.329 234.373 199.103 234.419 199.083C234.487 199.053 234.57 199.126 234.621 199.107C234.834 199.032 234.972 198.859 235.162 198.769C235.234 198.735 235.261 198.841 235.348 198.799C235.433 198.757 235.421 198.604 235.57 198.595C235.683 198.588 235.916 198.78 236.049 198.737C235.907 198.495 235.989 198.453 236.086 198.304C236.104 198.276 236.024 198.211 236.03 198.193C236.052 198.119 236.142 198.158 236.159 198.082C236.163 198.064 236.111 197.983 236.112 197.963C236.113 197.795 236.357 197.89 236.401 197.906C236.562 197.969 236.536 197.836 236.633 197.837C236.731 197.837 236.672 197.964 236.769 197.937C236.971 197.882 237.165 197.721 237.322 197.605C237.385 197.558 237.265 197.49 237.272 197.48C237.378 197.358 237.589 197.362 237.494 197.11C238.001 197.545 237.531 196.998 237.79 196.949C237.811 196.946 238.033 197.165 238.009 197.246C237.984 197.328 237.837 197.325 237.805 197.444C237.798 197.472 237.879 197.781 237.875 197.807C237.848 198.006 237.543 197.653 237.522 197.637C237.287 197.472 237.351 197.818 237.328 197.862C237.229 198.061 237.052 198.108 236.955 198.262C236.891 198.363 237.052 198.622 236.976 198.662C236.722 198.796 236.412 198.49 236.381 198.945C236.374 199.042 236.599 199.295 236.282 199.182C236.261 199.176 236.005 199.051 236.005 199.227C236.005 199.249 236.054 199.332 236.045 199.347C235.985 199.443 235.885 199.412 235.812 199.497C235.738 199.581 235.652 199.692 235.529 199.722C235.454 199.74 235.285 199.626 235.234 199.603C235.087 199.537 235.089 199.772 234.963 199.663C234.837 199.553 234.835 199.289 234.647 199.273C234.756 199.5 234.862 199.737 234.968 199.968C234.633 200.128 234.289 200.202 233.969 200.36C233.929 200.38 234.026 200.485 233.985 200.509C233.81 200.612 233.609 200.594 233.429 200.712C233.29 200.804 233.178 201.006 233.038 201.101C232.836 200.872 232.642 201.053 232.463 201.093C232.4 201.107 232.376 201.034 232.325 201.026C232.133 200.999 232.297 201.21 232.267 201.264C232.136 201.495 231.921 200.959 231.703 201.052C231.692 201.057 231.647 201.399 231.636 201.423C231.552 201.584 231.58 201.329 231.495 201.334C231.339 201.344 231.218 201.307 231.078 201.449C231.037 201.49 230.978 201.711 230.836 201.601C230.817 201.587 230.793 201.488 230.781 201.485C230.685 201.469 230.65 201.522 230.634 201.597C230.615 201.69 230.624 201.817 230.583 201.892C230.507 202.029 230.276 201.869 230.224 201.818C230.088 201.687 230.271 201.731 230.271 201.714C230.271 201.513 230.161 201.581 230.064 201.593C229.959 201.297 229.842 201.352 229.966 201.606C229.98 201.634 230.04 201.585 230.064 201.593C230.071 201.912 229.944 201.99 229.711 201.758C229.602 201.649 229.627 201.479 229.425 201.596C229.334 201.649 229.43 201.846 229.358 201.927C229.191 202.112 228.875 201.988 228.672 202.073C228.598 202.104 228.702 202.199 228.653 202.224C228.52 202.291 228.376 202.236 228.251 202.314C228.24 202.321 228.3 202.433 228.257 202.445C227.936 202.539 227.633 202.528 227.288 202.603C227.122 202.639 226.832 202.771 226.659 202.792C226.359 202.831 225.96 202.726 225.712 202.817C225.551 202.875 225.609 202.99 225.553 203.086C225.443 203.273 225.144 203.028 225.103 202.989C225.102 202.988 225.242 202.934 225.153 202.885C225.086 202.763 225.105 202.989 225.103 202.989C225.074 202.965 224.785 202.986 224.733 203.019C224.704 203.036 224.741 203.149 224.726 203.156C224.362 203.323 223.979 203.413 223.577 203.416C223.57 203.415 223.561 203.283 223.545 203.282C223.31 203.257 223.182 203.437 223.011 203.556C222.838 203.675 222.686 203.663 222.547 203.453C222.41 203.499 222.196 203.426 222.072 203.379C221.949 203.333 221.962 203.589 221.952 203.595C221.731 203.74 221.561 203.711 221.354 203.691C221.278 203.684 221.2 203.677 221.111 203.68C220.953 203.685 220.645 203.753 220.476 203.796C220.343 203.831 220.256 203.779 220.135 203.828C220.118 203.835 220.145 203.946 220.14 203.951C220.012 204.099 220.056 203.816 220.023 203.769C219.903 203.598 219.831 203.508 219.659 203.607C219.62 203.63 219.531 204.038 219.456 204.067C219.36 204.104 219.386 203.959 219.287 204.001C219.279 204.004 219.287 204.092 219.224 204.093C218.931 204.098 218.609 204.068 218.304 204.095C218.263 204.099 218.325 204.235 218.265 204.243C217.983 204.276 217.67 204.288 217.39 204.235C217.322 204.222 217.36 204.122 217.344 204.093C217.246 203.921 217.131 204.183 217.11 204.189C216.612 204.333 216.218 204.114 215.706 204.238C215.679 204.245 215.467 204.524 215.367 204.291C215.36 204.275 215.261 204.036 215.18 204.202C215.175 204.212 215.237 204.336 215.133 204.325C215.03 204.314 214.865 204.399 214.721 204.264C214.676 204.222 214.568 203.982 214.436 204.175C214.427 204.189 214.222 204.623 214.147 204.324C214.134 204.275 214.146 203.959 213.987 204.121C213.956 204.153 214.012 204.223 213.931 204.267C213.807 204.336 213.644 204.25 213.491 204.391C213.464 204.415 213.35 204.63 213.26 204.466C213.246 204.44 213.274 204.335 213.227 204.323C213.001 204.264 212.762 204.331 212.533 204.254C212.452 204.227 212.497 204.057 212.413 204.01C212.329 203.963 212.16 203.915 212.069 203.991C211.978 204.067 212.069 204.341 211.935 204.36C211.918 204.362 211.9 204.364 211.883 204.366C211.316 204.429 210.765 204.258 210.205 204.208C210.119 204.201 210.186 204.302 210.059 204.297C209.592 204.283 208.78 204.325 208.391 204.089C208.079 203.901 208.495 203.804 208.253 203.719C208.137 203.678 207.985 203.984 207.955 203.992C207.666 204.071 207.482 203.916 207.226 203.937C207.173 203.941 207.213 204.073 207.168 204.076C207.014 204.085 206.859 204.014 206.713 204.011C206.647 204.01 206.65 204.108 206.591 204.095C206.449 204.065 206.326 204.012 206.196 203.906C206.184 203.897 206.281 203.784 206.176 203.769C206.005 203.745 205.803 203.633 205.597 203.705C205.536 203.727 205.509 203.949 205.4 203.782C205.377 203.747 205.441 203.484 205.269 203.698C205.24 203.734 204.958 204.018 204.86 203.803C204.834 203.746 204.779 203.518 204.705 203.544C204.695 203.549 204.719 203.673 204.659 203.677C204.449 203.692 204.236 203.652 204.021 203.663C203.963 203.666 204.031 203.8 203.946 203.801C203.711 203.802 203.429 203.733 203.208 203.663C203.126 203.636 203.198 203.542 203.194 203.53C203.122 203.336 203.03 203.572 202.996 203.582C202.782 203.638 202.646 203.501 202.457 203.504C202.404 203.504 202.423 203.626 202.412 203.635C202.408 203.637 202.405 203.64 202.402 203.642C202.297 203.709 202.399 203.523 202.338 203.49C202.161 203.397 201.952 203.374 201.762 203.359C201.692 203.354 201.748 203.501 201.686 203.494C201.318 203.459 200.931 203.381 200.587 203.244C200.522 203.218 200.582 203.122 200.572 203.096C200.505 202.914 200.323 203.114 200.287 203.129C200.121 203.2 200.08 203.098 199.946 203.091C199.297 203.059 198.507 202.836 197.92 202.668C197.152 202.449 196.561 202.207 195.822 202.045C195.775 202.034 195.787 202.182 195.746 202.174C195.211 202.072 194.706 201.878 194.176 201.768C194.133 201.758 194.158 201.903 194.087 201.892C193.939 201.871 193.768 201.813 193.633 201.729C193.568 201.688 193.695 201.608 193.63 201.569C193.477 201.479 193.305 201.417 193.132 201.385C193.131 201.385 193.131 201.385 193.131 201.385C193.059 201.374 193.125 201.534 193.032 201.507C192.399 201.324 191.778 201.142 191.203 200.751C191.164 200.724 191.219 200.452 191.11 200.469C191.078 200.538 191.047 200.623 191.017 200.698C190.107 200.416 189.241 199.969 188.367 199.566C188.329 199.548 188.336 199.71 188.263 199.678C187.84 199.487 187.423 199.336 187.065 198.999C187.029 198.965 187.164 198.746 187.023 198.719C186.998 198.715 186.797 198.652 186.724 198.677C186.713 198.681 186.693 198.805 186.631 198.777C186.274 198.615 185.934 198.402 185.631 198.147C185.581 198.105 185.703 198.028 185.668 197.997C185.423 197.781 185.077 197.69 184.881 197.435C184.752 197.264 184.931 197.115 184.957 196.876C184.961 196.843 184.862 196.774 184.924 196.665C185.081 196.388 185.314 196.125 185.475 195.827C185.509 195.763 185.339 195.747 185.509 195.647C185.521 195.641 185.645 195.651 185.7 195.614C185.738 195.589 185.777 195.463 185.838 195.438C185.898 195.414 185.877 195.527 185.964 195.508C186.051 195.488 186.103 195.349 186.22 195.4ZM221.517 203.172C221.396 203.062 221.428 203.51 221.534 203.39C221.539 203.384 221.523 203.177 221.517 203.172ZM234.144 199.894C233.934 199.774 233.968 200.079 234.123 200.175C234.279 200.271 234.209 199.93 234.144 199.894ZM235.392 199.092C235.174 199.035 235.456 199.606 235.551 199.406C235.556 199.395 235.405 199.095 235.392 199.092ZM185.401 197.075C185.403 197.07 185.331 197.02 185.326 197.024C185.212 197.121 185.357 197.222 185.401 197.075ZM236.553 198.199C236.463 198.155 236.396 198.318 236.508 198.373C236.598 198.417 236.665 198.252 236.553 198.199ZM215.896 203.072C215.894 203.065 215.832 203.061 215.834 203.099C215.842 203.22 215.927 203.184 215.896 203.072ZM238.476 196.644C238.195 196.882 237.684 196.631 238.004 196.417C238.062 196.378 238.01 196.642 238.106 196.616C238.286 196.566 238.132 196.255 238.371 196.266C238.416 196.267 238.494 196.63 238.476 196.645C238.476 196.644 238.476 196.644 238.476 196.644ZM221.396 202.643C221.393 202.637 221.307 202.641 221.305 202.647C221.274 202.794 221.449 202.786 221.396 202.643ZM212.282 202.805C212.278 202.792 212.079 202.776 212.073 202.787C211.963 203.018 212.365 203.052 212.282 202.805ZM227.03 201.396C227.09 201.236 227.194 201.195 227.306 201.354C227.214 201.366 227.123 201.385 227.03 201.396Z" fill="black"/>
<path d="M213.281 128.571C208.245 138.094 197.32 157.901 193.899 160.946C189.623 164.752 199.1 170.134 220.167 169.465" stroke="#54260A" stroke-width="2" stroke-linecap="round"/>
<path d="M237.333 369.865L214.641 324.785C245.375 308.184 268.45 282.551 276.146 271.809C283.217 280.639 285.893 296.01 286.347 302.592L237.333 369.865Z" fill="white" stroke="black" stroke-width="3"/>
<path d="M182.249 369.865L204.941 324.785C174.207 308.184 151.132 282.551 143.436 271.809C136.365 280.639 133.689 296.01 133.235 302.592L182.249 369.865Z" fill="white" stroke="black" stroke-width="3"/>
<path d="M209.059 189.744L207.862 175.37C190.236 181.386 169.41 188 169.41 195.63C176.269 190.924 198.272 189.781 209.059 189.744Z" fill="black" fill-opacity="0.8"/>
<path d="M213.85 189.374L215.047 175C232.673 181.016 253.498 187.63 253.498 195.26C246.639 190.554 224.637 189.411 213.85 189.374Z" fill="black" fill-opacity="0.8"/>
</svg>
