<svg width="762" height="601" viewBox="0 0 762 601" fill="none" xmlns="http://www.w3.org/2000/svg">
<mask id="mask0_63_469" style="mask-type:alpha" maskUnits="userSpaceOnUse" x="0" y="0" width="762" height="601">
<path d="M70.0999 205.593C17.4407 242.752 2.83287 235.823 0 409.219C7.76551 595.122 131.928 552.889 404.969 594.407C623.403 627.621 730.813 518.674 757.214 460.049C782.014 381.034 700.251 373.917 742.584 201.145C742.614 201.022 742.634 200.887 742.642 200.761C749.353 89.6543 731.305 44.3319 520.988 11.7019C307.696 -21.3898 298.155 25.1751 234.392 35.2571C63.3378 62.3036 144.237 153.277 70.0999 205.593Z" fill="#D9D9D9"/>
</mask>
<g mask="url(#mask0_63_469)">
<path d="M759.508 148.798L-3.90008 307.257L-4.978 302.066L758.43 143.607L759.508 148.798Z" fill="black"/>
<path d="M762.202 161.775L-24.9192 325.223L-26.2666 318.734L760.855 155.286L762.202 161.775Z" fill="black"/>
<path d="M764.628 173.454L-22.494 336.902L-23.5718 331.711L763.55 168.263L764.628 173.454Z" fill="black"/>
<path d="M767.053 185.134L-20.0687 348.582L-21.1466 343.391L765.975 179.943L767.053 185.134Z" fill="black"/>
<path d="M769.478 196.813L-17.6434 360.261L-18.7213 355.07L768.4 191.622L769.478 196.813Z" fill="black"/>
<path d="M772.173 209.79L-14.9487 373.238L-16.2961 366.75L770.826 203.302L772.173 209.79Z" fill="black"/>
<path d="M774.598 221.47L-12.5234 384.918L-13.6013 379.727L773.52 216.279L774.598 221.47Z" fill="black"/>
<path d="M777.023 233.149L-10.0981 396.597L-11.176 391.406L775.946 227.958L777.023 233.149Z" fill="black"/>
<path d="M744.162 251.253L-7.67288 408.277L-8.75077 403.086L743.084 246.062L744.162 251.253Z" fill="black"/>
<path d="M746.857 264.23L-4.97816 421.254L-6.3255 414.765L745.509 257.742L746.857 264.23Z" fill="black"/>
<path d="M749.282 275.91L-2.55289 432.933L-3.63078 427.742L748.204 270.719L749.282 275.91Z" fill="black"/>
<path d="M751.707 287.589L-0.127629 444.613L-1.20551 439.422L750.629 282.398L751.707 287.589Z" fill="black"/>
<path d="M754.132 299.269L2.29767 456.292L1.21975 451.101L753.054 294.078L754.132 299.269Z" fill="black"/>
<path d="M756.827 312.246L4.99239 469.269L3.64505 462.781L755.48 305.757L756.827 312.246Z" fill="black"/>
<path d="M759.252 323.925L7.41766 480.949L6.33977 475.758L758.174 318.734L759.252 323.925Z" fill="black"/>
<path d="M761.678 335.605L9.84292 492.628L8.76504 487.437L760.6 330.414L761.678 335.605Z" fill="black"/>
<path d="M764.103 347.284L12.2682 504.307L11.1903 499.117L763.025 342.093L764.103 347.284Z" fill="black"/>
<path d="M458.583 -26.3287L84.8717 51.5425L83.7938 46.3516L457.506 -31.5195L458.583 -26.3287Z" fill="black"/>
<path d="M766.798 360.261L14.9629 517.285L13.6156 510.796L765.45 353.773L766.798 360.261Z" fill="black"/>
<path d="M461.278 -13.3516L87.5664 64.5196L86.2191 58.031L459.931 -19.8402L461.278 -13.3516Z" fill="black"/>
<path d="M769.223 371.941L17.3882 528.964L16.3103 523.773L768.145 366.75L769.223 371.941Z" fill="black"/>
<path d="M543.687 -17.3097L89.9917 76.199L88.9138 71.0081L542.609 -22.5005L543.687 -17.3097Z" fill="black"/>
<path d="M771.648 383.62L19.8135 540.643L18.7356 535.453L770.57 378.429L771.648 383.62Z" fill="black"/>
<path d="M546.112 -5.63024L92.417 87.8784L91.3391 82.6876L545.034 -10.8211L546.112 -5.63024Z" fill="black"/>
<path d="M774.073 395.3L22.2387 552.323L21.1608 547.132L772.996 390.109L774.073 395.3Z" fill="black"/>
<path d="M643.633 -13.4165L94.8422 99.5579L93.7643 94.367L642.555 -18.6074L643.633 -13.4165Z" fill="black"/>
<path d="M776.768 408.277L24.9335 565.3L23.5861 558.811L775.421 401.788L776.768 408.277Z" fill="black"/>
<path d="M646.328 -0.439391L97.537 112.535L96.1896 106.046L644.981 -6.92799L646.328 -0.439391Z" fill="black"/>
<path d="M779.193 419.956L113.414 560.109L26.2808 571.789L778.116 414.765L779.193 419.956Z" fill="black"/>
<path d="M648.753 11.2401L67.9113 132.262L66.8335 127.071L647.675 6.04914L648.753 11.2401Z" fill="black"/>
<path d="M781.619 431.635L115.839 571.789L114.761 566.598L780.541 426.445L781.619 431.635Z" fill="black"/>
<path d="M651.178 22.9194L70.3366 143.941L69.2587 138.75L650.101 17.7286L651.178 22.9194Z" fill="black"/>
<path d="M784.044 443.315L118.264 583.468L117.186 578.277L782.966 438.124L784.044 443.315Z" fill="black"/>
<path d="M732.291 17.7286L72.7619 155.62L71.684 150.43L731.213 12.5377L732.291 17.7286Z" fill="black"/>
<path d="M786.739 456.292L120.959 596.445L119.612 589.957L785.391 449.803L786.739 456.292Z" fill="black"/>
<path d="M734.986 30.7057L75.4566 168.598L74.1092 162.109L733.638 24.2172L734.986 30.7057Z" fill="black"/>
<path d="M763.28 474.9L228.377 582.169L227.299 576.978L788.086 462.781L763.28 474.9Z" fill="black"/>
<path d="M737.411 42.3852L14.3548 194.188L13.2769 188.997L736.333 37.1943L737.411 42.3852Z" fill="black"/>
<path d="M765.706 486.579L230.802 593.849L229.724 588.658L764.628 481.388L765.706 486.579Z" fill="black"/>
<path d="M739.836 54.0646L16.7801 205.868L15.7022 200.677L738.758 48.8737L739.836 54.0646Z" fill="black"/>
<path d="M768.131 498.258L233.227 605.528L232.149 600.337L767.053 493.068L768.131 498.258Z" fill="black"/>
<path d="M742.261 65.744L19.2054 217.547L18.1275 212.356L741.183 60.5531L742.261 65.744Z" fill="black"/>
<path d="M770.826 511.236L235.922 618.505L234.575 612.017L769.478 504.747L770.826 511.236Z" fill="black"/>
<path d="M744.956 78.7212L1.96279 235.533L0.615414 229.045L743.609 72.2326L744.956 78.7212Z" fill="black"/>
<path d="M773.251 522.915L357.52 605.527L356.442 600.336L772.173 517.724L773.251 522.915Z" fill="black"/>
<path d="M747.381 90.4006L4.38806 247.213L3.31017 242.022L746.303 85.2098L747.381 90.4006Z" fill="black"/>
<path d="M709.515 546.685L359.945 617.207L358.867 612.016L708.437 541.495L709.515 546.685Z" fill="black"/>
<path d="M749.807 102.08L6.81332 258.892L5.73544 253.701L748.729 96.8891L749.807 102.08Z" fill="black"/>
<path d="M711.94 558.365L362.37 628.886L361.292 623.695L710.862 553.174L711.94 558.365Z" fill="black"/>
<path d="M752.232 113.759L9.23858 270.571L8.1607 265.381L751.154 108.569L752.232 113.759Z" fill="black"/>
<path d="M754.927 126.737L-8.48114 285.195L-9.82852 278.707L753.579 120.248L754.927 126.737Z" fill="black"/>
<path d="M757.352 138.416L-6.05588 296.875L-7.13376 291.684L756.274 133.225L757.352 138.416Z" fill="black"/>
</g>
<path d="M286.122 314.632L286.302 335.969C294.89 328.617 313.381 314.375 324.817 306.668C327.197 305.064 327.096 304.848 335.16 300.353C343.223 295.857 350.386 284.999 349.299 284.141C349.221 283.523 341.285 292.679 341.95 290.083C344.387 286.429 349.26 279.12 348.42 277.34C347.579 275.56 338.469 290.014 339.196 287.913C341.759 283.615 347.892 273.008 346.752 273.778C346.522 271.923 334.403 287.254 335.071 284.658C337.127 281.261 345.13 270.84 343.832 270.373C342.534 269.907 330.691 283.95 326.374 284.485C325.781 284.559 326.513 280.698 325.224 280.231C322.646 279.296 318.375 294.906 317.386 296.914C316.594 298.52 296.213 309.395 286.122 314.632Z" fill="#FFC195" stroke="black"/>
<circle cx="414.847" cy="190.625" r="148.5" transform="rotate(0.208899 414.847 190.625)" fill="url(#paint0_radial_63_469)" fill-opacity="0.8"/>
<g filter="url(#filter0_f_63_469)">
<path d="M415.728 136.534L415.539 188.393L470.523 188.593C471.144 187.772 472.018 185.141 470.55 181.185C464.805 175.607 456.786 161.255 470.669 148.464C474.181 145.39 483.668 141.103 493.524 148.548C499.275 152.684 507.301 165.02 493.405 181.268C492.575 183.117 491.407 187.188 493.378 188.676C495.349 190.165 531.674 189.433 549.59 188.881C549.59 188.881 550.065 58.617 416.014 58.1282L415.823 110.604C418.275 114.071 421.791 112.067 423.243 110.631C438.12 96.3626 452.503 104.77 457.835 110.758C464.717 120.661 460.644 130.935 457.747 134.835C437.299 152.047 431.796 136.592 423.155 134.709C416.242 133.202 415.323 135.298 415.728 136.534Z" fill="#8DB8FF" stroke="black"/>
<path d="M360.456 188.192L415.405 188.392L415.594 136.533C415.19 135.297 416.108 133.201 423.021 134.708C431.662 136.592 437.166 152.046 457.613 134.834C460.51 130.935 464.583 120.66 457.701 110.757C452.369 104.77 437.986 96.3622 423.109 110.631C421.657 112.066 418.141 114.07 415.689 110.604L415.88 58.1278C415.88 58.1278 284.933 57.6504 284.458 187.915L339.454 188.115C340.947 185.157 337.604 181.935 336.991 180.698C322.709 167.31 330.316 153.138 337.11 147.977C346.414 142.701 353.209 142.726 362.436 148.07C369.852 152.365 374.703 169.969 362.317 180.79C359.411 183.329 359.843 186.955 360.456 188.192Z" fill="#222222" stroke="black"/>
<path d="M415.116 267.879L414.922 320.972C283.976 320.495 284.458 187.761 284.458 187.761L339.455 187.961C340.948 185.004 337.605 181.781 336.992 180.544C322.709 167.157 330.316 152.984 337.111 147.824C346.415 142.547 353.21 142.572 362.437 147.916C369.853 152.211 374.704 169.815 362.318 180.636C359.412 183.175 359.843 186.801 360.457 188.038L415.406 188.238L415.21 241.949C415.199 245.036 410.06 242.754 408.415 241.925C394.137 227.549 379.815 236.264 374.441 241.801C370.862 245.492 367.606 254.123 374.352 266.495C392.202 283.847 407.085 267.849 408.325 266.619C409.317 265.635 415.129 264.175 415.116 267.879Z" fill="#FFA8A1" stroke="black"/>
<path d="M415.114 268.033L414.92 321.126C548.971 321.615 549.455 188.881 549.455 188.881C531.539 189.433 495.215 190.165 493.243 188.676C491.272 187.187 492.44 183.117 493.27 181.268C507.166 165.02 499.14 152.684 493.39 148.547C483.533 141.103 474.046 145.39 470.534 148.464C456.651 161.255 464.67 175.607 470.415 181.184C471.883 185.141 471.009 187.772 470.388 188.593L415.404 188.392L415.209 242.103C415.197 245.19 410.058 242.908 408.414 242.078C394.136 227.703 379.814 236.418 374.44 241.955C370.86 245.646 367.604 254.277 374.35 266.649C392.201 284.001 407.084 268.003 408.324 266.773C409.316 265.789 415.127 264.328 415.114 268.033Z" fill="#FFE17E" stroke="black"/>
</g>
<path d="M414.921 321.126C414.921 321.126 415.101 271.737 415.115 268.033C415.128 264.328 409.317 265.789 408.325 266.773C407.085 268.003 392.202 284.001 374.351 266.649C367.605 254.277 370.861 245.646 374.441 241.954C379.815 236.418 394.137 227.703 408.415 242.078C410.059 242.908 415.198 245.19 415.209 242.103C415.221 239.016 415.405 188.392 415.405 188.392M414.921 321.126C283.975 320.649 284.458 187.915 284.458 187.915M414.921 321.126C548.972 321.615 549.456 188.881 549.456 188.881M415.405 188.392L360.456 188.192C359.843 186.955 359.411 183.329 362.317 180.79C374.703 169.969 369.852 152.365 362.436 148.07C353.209 142.726 346.414 142.701 337.11 147.977C330.316 153.138 322.709 167.31 336.991 180.698C337.604 181.935 340.947 185.157 339.454 188.115L284.458 187.915M415.405 188.392L415.594 136.533C415.19 135.297 416.108 133.201 423.021 134.708C431.662 136.592 437.166 152.046 457.613 134.834C460.51 130.935 464.583 120.66 457.701 110.757C452.369 104.77 437.986 96.3622 423.109 110.631C421.657 112.066 418.141 114.07 415.689 110.604L415.88 58.1278M415.405 188.392L470.389 188.593C471.01 187.772 471.884 185.141 470.416 181.184C464.671 175.607 456.652 161.255 470.535 148.464C474.047 145.39 483.534 141.103 493.391 148.547C499.141 152.684 507.167 165.02 493.271 181.268C492.441 183.117 491.273 187.187 493.244 188.676C495.216 190.165 531.54 189.433 549.456 188.881M284.458 187.915C284.933 57.6504 415.88 58.1278 415.88 58.1278M415.88 58.1278C549.931 58.6166 549.456 188.881 549.456 188.881" stroke="black"/>
<path d="M208.865 487.376C208.072 485.373 215.267 468.566 218.963 460.413C202.322 453.519 171.545 438.14 169.539 439.733C167.032 441.723 145.589 426.145 147.076 429.651C148.563 433.156 131.492 452.594 129.47 458.586C127.448 464.579 90.2624 515.444 89.2479 519.44C88.4362 522.637 92.5544 526.786 94.715 528.46L210.214 528.881C210.095 515.881 209.658 489.379 208.865 487.376Z" fill="#26497A"/>
<path d="M146.952 463.65C140.409 475.293 125.617 500.573 118.788 508.548M165.428 470.218C163.41 475.044 157.672 485.689 150.857 489.665C144.043 493.64 138.629 506.62 136.773 512.613M184.904 476.789C181.708 484.777 170.344 493.236 159.759 516.697M198.884 482.34C194.354 490.657 184.483 509.987 181.244 520.776M218.963 460.413C215.267 468.566 208.072 485.373 208.865 487.376C209.658 489.379 210.095 515.881 210.214 528.881L94.715 528.46C92.5544 526.786 88.4362 522.637 89.2479 519.44C90.2624 515.444 127.448 464.579 129.47 458.586C131.492 452.594 148.563 433.156 147.076 429.651C145.589 426.145 167.032 441.723 169.539 439.733C171.545 438.14 202.322 453.519 218.963 460.413Z" stroke="black"/>
<path d="M325.591 353.313L328.523 374.449C336.091 366.049 352.589 349.54 362.935 340.421C365.088 338.524 364.96 338.323 372.376 332.824C379.791 327.326 385.493 315.634 384.305 314.924C384.148 314.32 377.459 324.424 377.784 321.764C379.729 317.826 383.619 309.949 382.555 308.293C381.492 306.636 374.324 322.145 374.773 319.968C376.76 315.375 381.473 304.065 380.442 304.976C379.974 303.166 369.935 319.933 370.262 317.272C371.863 313.638 378.454 302.271 377.107 301.976C375.76 301.681 365.828 317.136 361.616 318.223C361.038 318.373 361.265 314.45 359.927 314.153C357.249 313.559 355.029 329.589 354.307 331.708C353.729 333.403 334.922 346.817 325.591 353.313Z" fill="#FFC195" stroke="black"/>
<path d="M463.435 468.304L529.915 474.046C527.888 481.239 530.61 512.049 532.224 526.555L669.716 529.056C667.449 510.881 660.751 464.523 652.097 424.491C641.28 374.452 632.761 379.421 611.82 363.344C595.067 350.483 581.976 320.568 577.524 307.219C576.531 305.382 574.551 299.808 574.579 292.208C574.607 284.608 568.96 279.021 566.134 277.177C564.663 269.172 562.665 268.664 560.176 265.655C557.687 262.646 558.714 255.15 557.218 254.144C556.021 253.34 548.706 257.447 545.198 259.601L545.165 268.601C542.132 277.59 541.607 284.588 545.094 288.1C547.883 290.911 549.885 299.618 550.537 303.62C549.701 304.284 549.315 309.716 554.455 326.135C559.595 342.554 584.468 368.411 596.262 379.288C584.571 385.745 559.789 399.155 554.182 401.134C548.574 403.114 547.49 407.943 547.649 410.111C528.649 410.041 482.069 431.872 484.582 428.381C486.592 425.588 485.458 416.55 484.64 412.381C482.143 411.538 477.663 406.055 479.719 390.863C482.288 371.872 468.804 367.323 471.33 360.332C473.855 353.341 472.892 343.338 471.401 340.832C469.91 338.327 466.403 340.314 466.412 337.814C466.419 335.814 462.444 328.966 460.456 325.792L446.944 328.743C446.928 333.243 446.292 342.941 443.883 345.732C441.473 348.523 440.844 356.554 440.83 360.221C443.802 367.898 449.141 384.351 446.725 388.742C443.705 394.231 450.158 407.255 452.149 409.762C454.139 412.27 456.53 442.279 456.488 453.778C456.455 462.978 461.106 467.295 463.435 468.304Z" fill="url(#paint1_linear_63_469)"/>
<path d="M467.518 445.819C470.867 441.497 478.466 432.758 482.067 432.372M477.025 443.853C475.018 445.846 470.499 451.029 468.482 455.822M587.941 467.258C589.443 466.763 605.495 452.322 606.074 430.824M616.931 469.864C628.549 465.106 632.778 466.255 633.441 467.424M545.806 504.104C550.781 510.956 561.831 524.663 566.231 524.679M572.685 400.202C580.531 396.897 596.225 389.387 596.238 385.788M608.767 377.833C611.603 377.177 618.271 376.868 622.256 380.882M529.915 474.046L463.435 468.304C461.106 467.295 456.455 462.978 456.488 453.778C456.53 442.279 454.139 412.27 452.149 409.762C450.158 407.255 443.705 394.231 446.725 388.742C449.141 384.351 443.802 367.898 440.83 360.221C440.844 356.554 441.473 348.523 443.883 345.732C446.292 342.941 446.928 333.243 446.944 328.743L460.456 325.792C462.444 328.966 466.419 335.814 466.412 337.814C466.403 340.314 469.91 338.327 471.401 340.832C472.892 343.338 473.855 353.341 471.33 360.332C468.804 367.323 482.288 371.872 479.719 390.863C477.663 406.055 482.143 411.538 484.64 412.381C485.458 416.55 486.592 425.588 484.582 428.381C482.069 431.872 528.649 410.041 547.649 410.111C547.49 407.943 548.574 403.114 554.182 401.134C559.789 399.155 584.571 385.745 596.262 379.288C584.468 368.411 559.595 342.554 554.455 326.135C549.315 309.716 549.701 304.284 550.537 303.62C549.885 299.618 547.883 290.911 545.094 288.1C541.607 284.588 542.132 277.59 545.165 268.601L545.198 259.601C548.706 257.447 556.021 253.34 557.218 254.144C558.714 255.15 557.687 262.646 560.176 265.655C562.665 268.664 564.663 269.172 566.134 277.177C568.96 279.021 574.607 284.608 574.579 292.208C574.551 299.808 576.531 305.382 577.524 307.219C581.976 320.568 595.067 350.483 611.82 363.344C632.761 379.421 641.28 374.452 652.097 424.491C660.751 464.523 667.449 510.881 669.716 529.056L532.224 526.555C530.61 512.049 527.888 481.239 529.915 474.046Z" stroke="black"/>
<path d="M457.991 315.784C457.974 320.584 459.293 324.455 459.955 325.791L446.446 328.742L445.968 322.24C442.774 320.228 437.013 309.707 434.532 304.698C432.55 299.858 428.688 289.577 429.096 287.178C429.607 284.18 434.562 296.698 436.555 298.706C438.051 299.711 439.055 298.715 438.56 297.213C435.912 292.203 431.115 281.886 433.12 280.693C435.625 279.202 439.573 293.716 441.066 295.722C442.26 297.326 443.321 295.938 443.068 295.229C440.923 289.221 437.926 278.81 439.132 277.215C440.639 275.22 443.581 291.231 446.07 294.24C447.068 295.244 448.235 294.581 448.074 293.247C446.756 289.076 444.518 281.234 444.125 279.233C443.732 277.232 444.637 276.235 445.635 276.738C448.118 281.414 451.086 290.258 452.069 294.762C452.691 297.607 454.21 301.603 455.537 303.275L456.06 297.277C456.071 294.277 456.489 289.078 458.07 294.284C460.046 300.791 458.013 309.784 457.991 315.784Z" fill="#C79167" stroke="black"/>
<path d="M556.219 254.141L545.703 258.603C545.88 255.604 546.035 249.604 545.235 249.601C544.235 249.598 537.26 242.572 534.775 238.563C532.787 235.356 532.659 224.555 532.844 219.556C533.512 219.225 535.045 219.464 535.831 223.067C536.815 227.57 538.308 229.576 538.299 232.076C538.29 234.576 539.661 233.846 540.298 232.583C540.8 231.585 544.828 224.1 544.328 224.098L544.328 224.093C544.016 218.09 543.393 206.094 545.401 204.102C547.911 201.611 547.377 210.609 548.881 209.614C550.877 210.621 548.866 213.614 550.866 213.622C552.359 215.627 550.844 219.621 552.35 218.127C553.554 216.931 553.958 233.966 553.76 242.632L556.219 254.141Z" fill="#C79167" stroke="black"/>
<path d="M257.557 301.053C252.031 308.033 245.446 317.736 246.98 322.015C233.391 321.52 224.559 310.933 222.009 310.923C218.821 310.912 224.536 303.433 221.331 301.93C218.082 300.408 220.6 285.918 215.563 281.081C210.315 276.041 217.319 224.906 255.819 229.046C277.198 230.192 279.434 248.391 279.42 252.132C279.414 253.827 279.931 257.683 279.391 259.951C278.587 261.951 294.74 275.895 282.655 275.451C281.184 278.383 286.624 282.659 280.128 281.635C287.115 285.161 279.552 288.658 280.478 289.729C282.078 295.142 273.821 298.174 272.068 298.106C260.066 298.562 258.658 299.662 257.557 301.053Z" fill="#FFC195" stroke="black"/>
<path d="M263.737 385.576C255.281 400.745 230.697 442.123 219.462 460.915C206.815 455.369 180.522 444.273 176.522 444.259C171.522 444.24 166.515 446.222 151.066 432.166C147.738 430.82 139.48 428.323 133.077 429.1C125.073 430.071 141.121 417.129 142.124 416.133C143.128 415.137 145.681 400.646 151.214 391.666C156.747 382.686 163.792 370.212 165.811 365.219C166.606 363.252 195.985 317.329 200.005 311.843C203.221 307.455 233.356 307.132 250.005 312.026C259.202 312.859 271.686 308.105 278.51 310.63L289.017 308.668L313.462 323.757C309.164 331.176 279.018 337.808 275.274 338.763C278.75 339.803 291.09 344.296 289.888 344.171C289.633 344.145 289.312 344.084 288.93 343.993C298.83 347.339 310.375 351.093 313.357 352.757L343.917 336.368L348.334 358.884C346.727 360.879 330.403 385.819 327.237 385.808C311.707 393.751 298.124 389.002 289.72 390.171C281.316 391.34 268.896 387.595 263.737 385.576Z" fill="#E0E0E0"/>
<path d="M255.437 330.546C265.255 334.915 285.889 343.757 289.888 344.171C291.424 344.331 270.857 336.954 274.907 338.867M274.907 338.867C281.399 341.932 308.542 350.071 313.357 352.757L343.917 336.368L348.334 358.884C346.727 360.879 330.403 385.819 327.237 385.808C311.707 393.751 298.124 389.002 289.72 390.171C281.316 391.34 268.896 387.595 263.737 385.576C255.281 400.745 230.697 442.123 219.462 460.915C206.815 455.369 180.522 444.273 176.522 444.259C171.522 444.24 166.515 446.222 151.066 432.166C147.738 430.82 139.48 428.323 133.077 429.1C125.073 430.071 141.121 417.129 142.124 416.133C143.128 415.137 145.681 400.646 151.214 391.666C156.747 382.686 163.792 370.212 165.811 365.219C166.606 363.252 195.985 317.329 200.005 311.843C203.221 307.455 233.356 307.132 250.005 312.026C259.202 312.859 271.686 308.105 278.51 310.63L289.017 308.668L313.462 323.757C308.934 331.574 275.709 338.518 274.907 338.867ZM314.808 366.262C316.294 370.101 317.471 376.372 316.262 378.768M316.335 358.768C317.663 360.106 319.313 364.879 319.304 367.279M257.748 382.554C251.583 382.032 245.043 383.908 244.23 387.505C243.417 391.102 229.539 393.952 226.701 395.441M259.737 385.562C258.07 385.722 254.234 386.442 252.228 388.034" stroke="black"/>
<path d="M191.978 366.763C197.978 366.785 207.126 372.152 210.451 374.33C210.474 368.164 213.224 354.34 220.031 352.365C226.839 350.39 229.072 341.231 230.084 337.902C232.614 329.577 228.142 321.895 234.161 316.916C238.875 313.016 244.873 304.289 246.724 299.462C250.763 288.931 249.281 283.971 253.301 278.486C262.078 266.509 262.843 267.021 262.372 259.019C261.995 252.618 263.417 246.523 276.436 241.57C264.523 217.526 228.985 227.897 215.418 246.348C213.616 248.798 209.185 262.376 192.323 272.264C191.029 273.022 175.904 289.248 174.748 292.7C173.562 296.246 168.172 313.676 165.166 315.165C162.161 316.654 154.628 325.627 151.619 328.116C149.212 330.107 149.926 335.276 150.584 337.612C145.905 340.928 138.047 347.766 144.044 348.588C150.041 349.41 154.212 348.292 155.548 347.63C162.708 358.456 175.84 358.871 181.511 357.725C182.5 360.728 185.978 366.741 191.978 366.763Z" fill="url(#paint2_linear_63_469)"/>
<path d="M167.918 335.726C167.509 337.058 165.73 340.718 161.885 344.704M233.592 287.965C234.598 286.486 237.11 283.019 239.118 280.985C241.627 278.443 242.632 276.998 243.138 275.5M232.131 277.46C232.637 275.645 235.177 269.964 239.163 268.485C243.169 267 244.683 263.005 244.689 261.505M210.451 374.33C207.126 372.152 197.978 366.785 191.978 366.763C185.978 366.741 182.5 360.728 181.511 357.725C175.84 358.871 162.708 358.456 155.548 347.63C154.212 348.292 150.041 349.41 144.044 348.588C138.047 347.766 145.905 340.928 150.584 337.612C149.926 335.276 149.212 330.107 151.619 328.116C154.628 325.627 162.161 316.654 165.166 315.165C168.172 313.676 173.562 296.246 174.748 292.7C175.904 289.248 191.029 273.022 192.323 272.264C209.185 262.376 213.616 248.798 215.418 246.348C228.985 227.897 264.523 217.526 276.436 241.57C263.417 246.523 261.995 252.618 262.372 259.019C262.843 267.021 262.078 266.509 253.301 278.486C249.281 283.971 250.763 288.931 246.724 299.462C244.873 304.289 238.875 313.016 234.161 316.916C228.142 321.895 232.614 329.577 230.084 337.902C229.072 341.231 226.839 350.39 220.031 352.365C213.224 354.34 210.474 368.164 210.451 374.33Z" stroke="black"/>
<path d="M592.784 371.275C591.514 376.403 596.871 374.365 599.268 377.799L562.245 397.164C563.176 393.306 559.73 388.009 559.743 384.655C559.763 379.155 556.393 375.487 557.285 373.146C552.991 374.17 542.782 367.359 539.857 365.299C536.931 363.239 540.048 358.114 541.028 356.875C542.008 355.636 541.307 354.106 541.042 353.087C540.829 352.271 542.949 350.776 543.582 350.427C543.796 350.553 543.8 350.305 542.108 348.311C540.416 346.318 542.574 344.194 543.864 343.382C544.12 343.114 544.151 342.358 542.226 341.472C540.302 340.586 540.156 339.15 540.323 338.543C543.064 334.061 550.768 332.79 550.83 329.07C550.892 325.35 553.542 323.017 554.032 322.398C554.522 321.778 562.355 314.754 562.549 313.831C562.743 312.909 563.983 311.002 563.373 309.91C562.763 308.819 564.748 306.225 564.464 304.72C564.181 303.216 566.72 302.545 567.888 300.984C569.056 299.424 571.068 300.69 571.45 299.445C571.832 298.201 574.974 301.51 577.641 299.663C580.308 297.815 581.776 300.532 582.659 299.754C583.366 299.132 586.424 300.866 587.864 301.811C589.63 300.256 592.046 301.888 593.033 302.898C594.055 302.029 595.433 304.606 597.754 304.974C600.076 305.342 599.175 305.634 601.852 307.16C603.995 308.381 605.291 310.773 605.671 311.816C606.26 311.298 607.911 310.746 609.806 312.686C612.175 315.11 611.726 318.388 612.736 318.72C613.745 319.053 615.032 321.491 614.741 322.875C614.45 324.259 614.636 328.513 616.11 330.629C617.584 332.745 616.573 334.7 616.941 336.945C617.309 339.19 615.507 339.775 615.729 342.712C615.951 345.649 612.74 346.66 613.907 347.386C615.073 348.113 613.288 351.471 613.693 352.399C614.097 353.327 611.473 353.257 610.486 357.385C609.696 360.687 607.531 361.742 606.548 361.856C600.655 370.492 601.332 368.763 597.516 370.369C594.463 371.655 593.985 371.648 592.784 371.275Z" fill="#C79167" stroke="black"/>
<path d="M597.516 370.369C594.463 371.655 593.985 371.648 592.784 371.275C591.062 370.602 587.622 368.156 587.638 363.756C587.654 359.356 582.12 356.236 579.35 355.226C577.691 353.053 574.477 347.908 574.888 344.71C575.403 340.712 575.411 338.63 573.914 337.706C572.417 336.783 565.091 332.905 566.436 331.679C567.781 330.453 573.566 324.233 572.469 322.465C571.592 321.05 565.49 316.12 562.549 313.831C562.743 312.909 563.983 311.002 563.373 309.91C562.763 308.819 564.748 306.225 564.464 304.72C564.181 303.216 566.72 302.545 567.888 300.984C569.056 299.424 571.068 300.69 571.45 299.445C571.832 298.201 574.974 301.51 577.641 299.663C580.308 297.815 581.776 300.532 582.659 299.754C583.366 299.132 586.424 300.866 587.864 301.811C589.63 300.256 592.046 301.888 593.033 302.898C594.055 302.029 595.433 304.606 597.754 304.974C600.076 305.342 599.175 305.634 601.852 307.16C603.995 308.381 605.291 310.773 605.671 311.816C606.26 311.298 607.911 310.746 609.806 312.686C612.175 315.11 611.726 318.388 612.736 318.72C613.745 319.053 615.032 321.491 614.741 322.875C614.45 324.259 614.636 328.513 616.11 330.629C617.584 332.745 616.573 334.7 616.941 336.945C617.309 339.19 615.507 339.775 615.729 342.712C615.951 345.649 612.74 346.66 613.907 347.386C615.073 348.113 613.288 351.471 613.693 352.399C614.097 353.327 611.473 353.257 610.486 357.385C609.696 360.687 607.531 361.742 606.548 361.856C600.655 370.492 601.332 368.763 597.516 370.369Z" fill="black" stroke="black"/>
<defs>
<filter id="filter0_f_63_469" x="279.956" y="53.626" width="274.134" height="272.002" filterUnits="userSpaceOnUse" color-interpolation-filters="sRGB">
<feFlood flood-opacity="0" result="BackgroundImageFix"/>
<feBlend mode="normal" in="SourceGraphic" in2="BackgroundImageFix" result="shape"/>
<feGaussianBlur stdDeviation="2" result="effect1_foregroundBlur_63_469"/>
</filter>
<radialGradient id="paint0_radial_63_469" cx="0" cy="0" r="1" gradientUnits="userSpaceOnUse" gradientTransform="translate(414.847 190.625) rotate(90) scale(148.5)">
<stop stop-color="#999999"/>
<stop offset="0.9999" stop-color="white" stop-opacity="0.8"/>
</radialGradient>
<linearGradient id="paint1_linear_63_469" x1="555.968" y1="254.038" x2="554.967" y2="528.638" gradientUnits="userSpaceOnUse">
<stop stop-color="#9F2C2C"/>
<stop offset="1" stop-color="#6A4E4E"/>
</linearGradient>
<linearGradient id="paint2_linear_63_469" x1="199.914" y1="308.842" x2="173.143" y2="383.245" gradientUnits="userSpaceOnUse">
<stop stop-color="#EC4825"/>
<stop offset="1" stop-color="#862915"/>
</linearGradient>
</defs>
</svg>
