<svg width="3158" height="2284" viewBox="0 0 3158 2284" fill="none" xmlns="http://www.w3.org/2000/svg">
<mask id="mask0_63_482" style="mask-type:alpha" maskUnits="userSpaceOnUse" x="0" y="0" width="3159" height="2284">
<path d="M187.746 934.54C-8.55861 1112.91 -45.8519 1128.09 52.2049 1778.82C127.939 2200.52 1852.87 2612.3 2772.89 1886.85C3068.88 1653.47 3121.67 1555.71 3149.52 1392.11C3214.56 1009.97 2882.83 1033.44 2933.72 470.666C2891.37 49.4838 2352.07 -117.671 1879.61 87.3552C1355.9 -95.3854 977.052 87.3552 838.882 252.268C152.489 433.828 464.117 683.424 187.746 934.54Z" fill="#D9D9D9"/>
</mask>
<g mask="url(#mask0_63_482)">
<path d="M-68.9754 532.004L2662.07 2704.74L2650.97 2718.7L-80.075 545.956L-68.9754 532.004Z" fill="black"/>
<path d="M-965.266 1658.61L1765.78 3831.35L1754.68 3845.3L-976.365 1672.56L-965.266 1658.61Z" fill="black"/>
<path d="M-41.2265 497.125L2689.82 2669.87L2675.95 2687.31L-55.101 514.565L-41.2265 497.125Z" fill="black"/>
<path d="M-937.517 1623.73L1793.53 3796.47L1779.66 3813.91L-951.391 1641.17L-937.517 1623.73Z" fill="black"/>
<path d="M-16.2525 465.734L2714.8 2638.47L2703.7 2652.43L-27.3521 479.685L-16.2525 465.734Z" fill="black"/>
<path d="M-912.543 1592.34L1818.51 3765.08L1807.41 3779.03L-923.642 1606.29L-912.543 1592.34Z" fill="black"/>
<path d="M8.72154 434.342L2739.77 2607.08L2728.67 2621.03L-2.37803 448.294L8.72154 434.342Z" fill="black"/>
<path d="M-887.569 1560.94L1843.48 3733.68L1832.38 3747.64L-898.668 1574.9L-887.569 1560.94Z" fill="black"/>
<path d="M33.6956 402.951L2764.74 2575.69L2753.65 2589.64L22.596 416.903L33.6956 402.951Z" fill="black"/>
<path d="M-862.595 1529.55L1868.45 3702.29L1857.35 3716.24L-873.694 1543.5L-862.595 1529.55Z" fill="black"/>
<path d="M61.4445 368.072L2792.49 2540.81L2778.62 2558.25L47.57 385.511L61.4445 368.072Z" fill="black"/>
<path d="M-834.846 1494.67L1896.2 3667.41L1882.33 3684.85L-848.72 1512.11L-834.846 1494.67Z" fill="black"/>
<path d="M86.4185 336.68L2817.47 2509.42L2806.37 2523.37L75.319 350.632L86.4185 336.68Z" fill="black"/>
<path d="M-809.872 1463.28L1921.18 3636.02L1910.08 3649.97L-820.971 1477.23L-809.872 1463.28Z" fill="black"/>
<path d="M111.393 305.289L2842.44 2478.03L2831.34 2491.98L100.293 319.241L111.393 305.289Z" fill="black"/>
<path d="M-784.898 1431.89L1946.15 3604.63L1935.05 3618.58L-795.997 1445.84L-784.898 1431.89Z" fill="black"/>
<path d="M136.367 273.898L2867.42 2446.64L2856.32 2460.59L125.267 287.849L136.367 273.898Z" fill="black"/>
<path d="M-759.924 1400.5L1971.13 3573.24L1960.03 3587.19L-771.023 1414.45L-759.924 1400.5Z" fill="black"/>
<path d="M164.116 239.018L2895.16 2411.76L2881.29 2429.2L150.241 256.458L164.116 239.018Z" fill="black"/>
<path d="M-732.175 1365.62L1998.87 3538.36L1985 3555.8L-746.049 1383.06L-732.175 1365.62Z" fill="black"/>
<path d="M189.09 207.627L2920.14 2380.37L2909.04 2394.32L177.99 221.579L189.09 207.627Z" fill="black"/>
<path d="M-707.201 1334.23L2023.85 3506.97L2012.75 3520.92L-718.3 1348.18L-707.201 1334.23Z" fill="black"/>
<path d="M214.064 176.236L2945.11 2348.98L2934.01 2362.93L202.964 190.187L214.064 176.236Z" fill="black"/>
<path d="M-682.227 1302.84L2048.82 3475.58L2037.72 3489.53L-693.326 1316.79L-682.227 1302.84Z" fill="black"/>
<path d="M239.038 144.844L2970.09 2317.58L2958.99 2331.54L227.938 158.796L239.038 144.844Z" fill="black"/>
<path d="M-657.253 1271.45L2073.8 3444.19L2062.7 3458.14L-668.352 1285.4L-657.253 1271.45Z" fill="black"/>
<path d="M266.787 109.965L2997.84 2282.71L2983.96 2300.14L252.912 127.405L266.787 109.965Z" fill="black"/>
<path d="M-629.504 1236.57L2101.55 3409.31L2087.67 3426.75L-643.378 1254.01L-629.504 1236.57Z" fill="black"/>
<path d="M291.761 78.5735L3022.81 2251.31L3011.71 2265.27L280.661 92.5252L291.761 78.5735Z" fill="black"/>
<path d="M-604.53 1205.17L2126.52 3377.92L2115.42 3391.87L-615.629 1219.13L-604.53 1205.17Z" fill="black"/>
<path d="M316.735 47.1821L3047.78 2219.92L3036.68 2233.87L305.635 61.1339L316.735 47.1821Z" fill="black"/>
<path d="M-579.556 1173.78L2151.49 3346.52L2140.39 3360.48L-590.655 1187.74L-579.556 1173.78Z" fill="black"/>
<path d="M341.709 15.7908L3072.76 2188.53L3061.66 2202.48L330.609 29.7425L341.709 15.7908Z" fill="black"/>
<path d="M-554.582 1142.39L2176.47 3315.13L2165.37 3329.08L-565.681 1156.34L-554.582 1142.39Z" fill="black"/>
<path d="M369.458 -19.0885L3100.51 2153.65L3086.63 2171.09L355.583 -1.64888L369.458 -19.0885Z" fill="black"/>
<path d="M-526.833 1107.51L2204.22 3280.25L2190.34 3297.69L-540.707 1124.95L-526.833 1107.51Z" fill="black"/>
<path d="M394.432 -50.4799L3125.48 2122.26L3114.38 2136.21L383.332 -36.5282L394.432 -50.4799Z" fill="black"/>
<path d="M-501.859 1076.12L2229.19 3248.86L2218.09 3262.81L-512.958 1090.07L-501.859 1076.12Z" fill="black"/>
<path d="M419.406 -81.8713L3150.45 2090.87L3139.36 2104.82L408.306 -67.9196L419.406 -81.8713Z" fill="black"/>
<path d="M-476.885 1044.73L2254.16 3217.47L2243.06 3231.42L-487.984 1058.68L-476.885 1044.73Z" fill="black"/>
<path d="M444.38 -113.263L3175.43 2059.48L3164.33 2073.43L433.28 -99.3109L444.38 -113.263Z" fill="black"/>
<path d="M-451.911 1013.34L2279.14 3186.08L2268.04 3200.03L-463.01 1027.29L-451.911 1013.34Z" fill="black"/>
<path d="M472.129 -148.142L3203.18 2024.6L3189.3 2042.04L458.254 -130.702L472.129 -148.142Z" fill="black"/>
<path d="M-424.162 978.46L2306.89 3151.2L2293.01 3168.64L-438.036 995.899L-424.162 978.46Z" fill="black"/>
<path d="M497.103 -179.533L3228.15 1993.21L3217.05 2007.16L486.003 -165.582L497.103 -179.533Z" fill="black"/>
<path d="M-399.188 947.068L2331.86 3119.81L2320.76 3133.76L-410.287 961.02L-399.188 947.068Z" fill="black"/>
<path d="M522.077 -210.925L3253.13 1961.82L3242.03 1975.77L510.977 -196.973L522.077 -210.925Z" fill="black"/>
<path d="M-374.214 915.677L2356.84 3088.42L2345.74 3102.37L-385.313 929.628L-374.214 915.677Z" fill="black"/>
<path d="M547.051 -242.316L3278.1 1930.42L3267 1944.38L535.951 -228.364L547.051 -242.316Z" fill="black"/>
<path d="M-349.24 884.285L2381.81 3057.03L2370.71 3070.98L-360.339 898.237L-349.24 884.285Z" fill="black"/>
<path d="M574.8 -277.195L3305.85 1895.55L3291.97 1912.98L560.925 -259.756L574.8 -277.195Z" fill="black"/>
<path d="M-321.491 849.406L2409.56 3022.15L2395.68 3039.59L-335.365 866.846L-321.491 849.406Z" fill="black"/>
<path d="M599.774 -308.587L3330.82 1864.15L3319.72 1878.11L588.674 -294.635L599.774 -308.587Z" fill="black"/>
<path d="M-296.517 818.015L2434.53 2990.76L2423.43 3004.71L-307.616 831.966L-296.517 818.015Z" fill="black"/>
<path d="M624.748 -339.978L3355.8 1832.76L3344.7 1846.71L613.648 -326.026L624.748 -339.978Z" fill="black"/>
<path d="M-271.543 786.623L2459.51 2959.36L2448.41 2973.32L-282.642 800.575L-271.543 786.623Z" fill="black"/>
<path d="M649.722 -371.369L3380.77 1801.37L3369.67 1815.32L638.622 -357.418L649.722 -371.369Z" fill="black"/>
<path d="M-246.569 755.232L2484.48 2927.97L2473.38 2941.92L-257.668 769.184L-246.569 755.232Z" fill="black"/>
<path d="M677.471 -406.249L3408.52 1766.49L3394.65 1783.93L663.596 -388.809L677.471 -406.249Z" fill="black"/>
<path d="M-218.82 720.353L2512.23 2893.09L2498.35 2910.53L-232.694 737.792L-218.82 720.353Z" fill="black"/>
<path d="M702.445 -437.64L3433.49 1735.1L3422.39 1749.05L691.345 -423.688L702.445 -437.64Z" fill="black"/>
<path d="M-193.846 688.961L2537.2 2861.7L2526.1 2875.65L-204.945 702.913L-193.846 688.961Z" fill="black"/>
<path d="M727.419 -469.032L3458.47 1703.71L3447.37 1717.66L716.319 -455.08L727.419 -469.032Z" fill="black"/>
<path d="M-168.872 657.57L2562.18 2830.31L2551.08 2844.26L-179.971 671.522L-168.872 657.57Z" fill="black"/>
<path d="M752.393 -500.423L3483.44 1672.32L3472.34 1686.27L741.293 -486.471L752.393 -500.423Z" fill="black"/>
<path d="M-143.898 626.179L2587.15 2798.92L2576.05 2812.87L-154.997 640.13L-143.898 626.179Z" fill="black"/>
<path d="M780.142 -535.302L3511.19 1637.44L3497.32 1654.88L766.267 -517.863L780.142 -535.302Z" fill="black"/>
<path d="M-116.149 591.299L2614.9 2764.04L2601.03 2781.48L-130.023 608.739L-116.149 591.299Z" fill="black"/>
<path d="M805.116 -566.694L3536.16 1606.05L3525.07 1620L794.016 -552.742L805.116 -566.694Z" fill="black"/>
<path d="M-91.1746 559.908L2639.87 2732.65L2628.77 2746.6L-102.274 573.86L-91.1746 559.908Z" fill="black"/>
<path d="M830.09 -598.085L3561.14 1574.66L3550.04 1588.61L818.99 -584.133L830.09 -598.085Z" fill="black"/>
<path d="M857.839 -632.964L3588.89 1539.78L3575.01 1557.22L843.964 -615.525L857.839 -632.964Z" fill="black"/>
<path d="M882.813 -664.356L3613.86 1508.38L3602.76 1522.34L871.713 -650.404L882.813 -664.356Z" fill="black"/>
<path d="M907.787 -695.747L3638.84 1476.99L3627.74 1490.95L896.687 -681.795L907.787 -695.747Z" fill="black"/>
<path d="M932.761 -727.138L3663.81 1445.6L3652.71 1459.55L921.661 -713.187L932.761 -727.138Z" fill="black"/>
<path d="M960.51 -762.018L3691.56 1410.72L3677.68 1428.16L946.635 -744.578L960.51 -762.018Z" fill="black"/>
<path d="M985.484 -793.409L3716.53 1379.33L3705.43 1393.28L974.384 -779.457L985.484 -793.409Z" fill="black"/>
<path d="M1010.46 -824.8L3741.51 1347.94L3730.41 1361.89L999.358 -810.849L1010.46 -824.8Z" fill="black"/>
<path d="M1035.43 -856.192L3766.48 1316.55L3755.38 1330.5L1024.33 -842.24L1035.43 -856.192Z" fill="black"/>
<path d="M1063.18 -891.071L3794.23 1281.67L3780.36 1299.11L1049.31 -873.631L1063.18 -891.071Z" fill="black"/>
<path d="M1088.15 -922.462L3819.2 1250.28L3808.1 1264.23L1077.06 -908.511L1088.15 -922.462Z" fill="black"/>
<path d="M1113.13 -953.854L3844.18 1218.89L3833.08 1232.84L1102.03 -939.902L1113.13 -953.854Z" fill="black"/>
<path d="M1138.1 -985.245L3869.15 1187.5L3858.05 1201.45L1127 -971.293L1138.1 -985.245Z" fill="black"/>
<path d="M1165.85 -1020.12L3896.9 1152.62L3883.03 1170.06L1151.98 -1002.68L1165.85 -1020.12Z" fill="black"/>
<path d="M1190.83 -1051.52L3921.87 1121.22L3910.78 1135.18L1179.73 -1037.56L1190.83 -1051.52Z" fill="black"/>
<path d="M1215.8 -1082.91L3946.85 1089.83L3935.75 1103.78L1204.7 -1068.96L1215.8 -1082.91Z" fill="black"/>
<path d="M1240.77 -1114.3L3971.82 1058.44L3960.72 1072.39L1229.67 -1100.35L1240.77 -1114.3Z" fill="black"/>
<path d="M1268.52 -1149.18L3999.57 1023.56L3985.7 1041L1254.65 -1131.74L1268.52 -1149.18Z" fill="black"/>
<path d="M1293.5 -1180.57L4024.55 992.171L4013.45 1006.12L1282.4 -1166.62L1293.5 -1180.57Z" fill="black"/>
<path d="M1318.47 -1211.96L4049.52 960.78L4038.42 974.732L1307.37 -1198.01L1318.47 -1211.96Z" fill="black"/>
<path d="M1343.44 -1243.35L4074.49 929.388L4063.39 943.34L1332.35 -1229.4L1343.44 -1243.35Z" fill="black"/>
<path d="M1371.19 -1278.23L4102.24 894.509L4088.37 911.949L1357.32 -1260.79L1371.19 -1278.23Z" fill="black"/>
<path d="M1396.17 -1309.62L4127.22 863.118L4116.12 877.069L1385.07 -1295.67L1396.17 -1309.62Z" fill="black"/>
<path d="M1421.14 -1341.01L4152.19 831.726L4141.09 845.678L1410.04 -1327.06L1421.14 -1341.01Z" fill="black"/>
<path d="M1446.12 -1372.41L4177.16 800.335L4166.07 814.287L1435.02 -1358.45L1446.12 -1372.41Z" fill="black"/>
<path d="M1473.86 -1407.28L4204.91 765.456L4191.04 782.895L1459.99 -1389.85L1473.86 -1407.28Z" fill="black"/>
<path d="M1498.84 -1438.68L4229.89 734.064L4218.79 748.016L1487.74 -1424.72L1498.84 -1438.68Z" fill="black"/>
<path d="M1523.81 -1470.07L4254.86 702.673L4243.76 716.625L1512.71 -1456.12L1523.81 -1470.07Z" fill="black"/>
<path d="M1548.79 -1501.46L4279.84 671.282L4268.74 685.233L1537.69 -1487.51L1548.79 -1501.46Z" fill="black"/>
<path d="M1576.54 -1536.34L4307.58 636.402L4293.71 653.842L1562.66 -1518.9L1576.54 -1536.34Z" fill="black"/>
<path d="M1601.51 -1567.73L4332.56 605.011L4321.46 618.963L1590.41 -1553.78L1601.51 -1567.73Z" fill="black"/>
</g>
<path d="M1217.68 1428.75C1135.63 1464.01 1137.71 1515.44 1135.63 1538.95L1190.04 1840.53L1196.25 1874.95L1217.68 1993.72C1217.68 1993.72 1361.97 2017.26 1582.87 2017.26C1803.78 2017.26 1951.68 1993.72 1951.68 1993.72L1973.24 1874.22L1979.32 1840.53L2033.73 1538.95C2031.65 1515.44 2033.73 1461.37 1951.68 1428.75C1919.58 1415.53 1752.8 1340.59 1685.02 1268.3C1691.26 1229.51 1704.64 1174.85 1698.39 1158.1C1704.04 1156.93 1717.12 1149.46 1724.26 1129.01C1731.39 1108.56 1736.15 1082.88 1737.64 1072.59C1738.23 1068.77 1736.39 1057.08 1724.26 1040.85C1724.26 982.671 1729.22 856.604 1584.24 856.604C1439.26 856.604 1445.11 982.671 1445.11 1040.85C1432.98 1057.08 1431.13 1068.77 1431.73 1072.59C1433.21 1082.88 1437.97 1108.56 1445.11 1129.01C1452.24 1149.46 1465.32 1156.93 1470.97 1158.1C1464.73 1174.85 1478.1 1229.51 1484.35 1268.3C1416.57 1340.59 1254.25 1411.12 1217.68 1428.75Z" fill="url(#paint0_linear_63_482)"/>
<path d="M1617.55 703.453L1483.84 563.055C1483.84 563.055 1503.9 533.672 1545.26 533.672C1545.26 452.292 1448.18 300.084 1521.73 231C1613.1 266.656 1595.27 224.313 1691.09 251.057C1679.95 317.912 1580.45 342.428 1609.04 533.672C1642.07 540.767 1677.72 509.567 1677.72 509.567L1617.55 703.453Z" fill="url(#paint1_linear_63_482)"/>
<path d="M1909.38 906.674L1964.11 720.68C1964.11 720.68 1999.58 723.358 2020.27 759.179C2090.74 718.489 2174.02 558.315 2270.62 587.462C2285.43 684.419 2313.18 647.808 2337.93 744.169C2274.47 767.947 2203.48 694.033 2052.16 814.417C2062.52 846.564 2107.37 861.844 2107.37 861.844L1909.38 906.674Z" fill="url(#paint2_linear_63_482)"/>
<path d="M1879.29 1261.01L2067.74 1215.42C2067.74 1215.42 2083.15 1247.48 2062.47 1283.3C2132.95 1323.99 2313.3 1316.02 2336.36 1414.25C2259.8 1475.56 2305.38 1481.29 2234.31 1550.9C2181.98 1507.83 2210.5 1409.4 2030.58 1338.54C2007.93 1363.59 2017.12 1410.07 2017.12 1410.07L1879.29 1261.01Z" fill="url(#paint3_linear_63_482)"/>
<path d="M1557.39 1412.13L1691.09 1552.53C1691.09 1552.53 1671.04 1581.91 1629.68 1581.91C1629.68 1663.29 1726.75 1815.5 1653.21 1884.59C1561.84 1848.93 1579.67 1891.27 1483.84 1864.53C1494.98 1797.67 1594.48 1773.16 1565.89 1581.91C1532.87 1574.82 1497.21 1606.02 1497.21 1606.02L1557.39 1412.13Z" fill="url(#paint4_linear_63_482)"/>
<path d="M1265.56 1208.91L1210.83 1394.91C1210.83 1394.91 1175.35 1392.23 1154.67 1356.41C1084.19 1397.1 1000.91 1557.27 904.315 1528.12C889.508 1431.17 861.753 1467.78 837 1371.42C900.47 1347.64 971.453 1421.55 1122.78 1301.17C1112.41 1269.02 1067.56 1253.74 1067.56 1253.74L1265.56 1208.91Z" fill="url(#paint5_linear_63_482)"/>
<path d="M1295.64 854.572L1107.2 900.168C1107.2 900.168 1091.78 868.107 1112.46 832.286C1041.98 791.596 861.63 799.562 838.573 701.331C915.137 640.029 869.553 634.298 940.627 564.681C992.954 607.758 964.435 706.188 1144.35 777.048C1167.01 751.995 1157.82 705.516 1157.82 705.516L1295.64 854.572Z" fill="url(#paint6_linear_63_482)"/>
<path d="M1584.68 2052.5C1948.69 2052.5 2243.77 1999.8 2243.77 1934.8C2243.77 1896.23 2139.87 1861.99 1979.32 1840.53L1973.24 1874.22C2051.52 1890.43 2098.92 1911.62 2098.92 1934.8C2098.92 1985.8 1869.5 2027.15 1586.49 2027.15C1303.49 2027.15 1074.07 1985.8 1074.07 1934.8C1074.07 1911.97 1120.06 1891.07 1196.25 1874.95L1190.04 1840.53C1029.49 1861.99 925.589 1896.23 925.589 1934.8C925.589 1999.8 1220.67 2052.5 1584.68 2052.5Z" fill="url(#paint7_linear_63_482)"/>
<path d="M1586.49 2027.15C1869.5 2027.15 2098.92 1985.8 2098.92 1934.8C2098.92 1911.62 2051.52 1890.43 1973.24 1874.22L1951.68 1993.72C1951.68 1993.72 1803.78 2017.26 1582.87 2017.26C1361.97 2017.26 1217.68 1993.72 1217.68 1993.72L1196.25 1874.95C1120.06 1891.07 1074.07 1911.97 1074.07 1934.8C1074.07 1985.8 1303.49 2027.15 1586.49 2027.15Z" fill="url(#paint8_linear_63_482)"/>
<path d="M1190.04 1840.53L1135.63 1538.95C1137.71 1515.44 1135.63 1464.01 1217.68 1428.75C1254.25 1411.12 1416.57 1340.59 1484.35 1268.3C1478.1 1229.51 1464.73 1174.85 1470.97 1158.1C1465.32 1156.93 1452.24 1149.46 1445.11 1129.01C1437.97 1108.56 1433.21 1082.88 1431.73 1072.59C1431.13 1068.77 1432.98 1057.08 1445.11 1040.85C1445.11 982.671 1439.26 856.604 1584.24 856.604C1729.22 856.604 1724.26 982.671 1724.26 1040.85C1736.39 1057.08 1738.23 1068.77 1737.64 1072.59C1736.15 1082.88 1731.39 1108.56 1724.26 1129.01C1717.12 1149.46 1704.04 1156.93 1698.39 1158.1C1704.64 1174.85 1691.26 1229.51 1685.02 1268.3C1752.8 1340.59 1919.58 1415.53 1951.68 1428.75C2033.73 1461.37 2031.65 1515.44 2033.73 1538.95L1979.32 1840.53M1190.04 1840.53C1029.49 1861.99 925.589 1896.23 925.589 1934.8C925.589 1999.8 1220.67 2052.5 1584.68 2052.5C1948.69 2052.5 2243.77 1999.8 2243.77 1934.8C2243.77 1896.23 2139.87 1861.99 1979.32 1840.53M1190.04 1840.53L1196.25 1874.95M1196.25 1874.95L1217.68 1993.72C1217.68 1993.72 1361.97 2017.26 1582.87 2017.26C1803.78 2017.26 1951.68 1993.72 1951.68 1993.72L1973.24 1874.22M1196.25 1874.95C1120.06 1891.07 1074.07 1911.97 1074.07 1934.8C1074.07 1985.8 1303.49 2027.15 1586.49 2027.15C1869.5 2027.15 2098.92 1985.8 2098.92 1934.8C2098.92 1911.62 2051.52 1890.43 1973.24 1874.22M1973.24 1874.22L1979.32 1840.53M1483.84 563.055L1617.55 703.453L1677.72 509.567C1677.72 509.567 1642.07 540.767 1609.04 533.672C1580.45 342.428 1679.95 317.912 1691.09 251.057C1595.27 224.313 1613.1 266.656 1521.73 231C1448.18 300.084 1545.26 452.292 1545.26 533.672C1503.9 533.672 1483.84 563.055 1483.84 563.055ZM1964.11 720.68L1909.38 906.674L2107.37 861.844C2107.37 861.844 2062.52 846.564 2052.16 814.417C2203.48 694.033 2274.47 767.947 2337.93 744.169C2313.18 647.808 2285.43 684.419 2270.62 587.462C2174.02 558.315 2090.74 718.489 2020.27 759.179C1999.58 723.358 1964.11 720.68 1964.11 720.68ZM2067.74 1215.42L1879.29 1261.01L2017.12 1410.07C2017.12 1410.07 2007.93 1363.59 2030.58 1338.54C2210.5 1409.4 2181.98 1507.83 2234.31 1550.9C2305.38 1481.29 2259.8 1475.56 2336.36 1414.25C2313.3 1316.02 2132.95 1323.99 2062.47 1283.3C2083.15 1247.48 2067.74 1215.42 2067.74 1215.42ZM1691.09 1552.53L1557.39 1412.13L1497.21 1606.02C1497.21 1606.02 1532.87 1574.82 1565.89 1581.91C1594.48 1773.16 1494.98 1797.67 1483.84 1864.53C1579.67 1891.27 1561.84 1848.93 1653.21 1884.59C1726.75 1815.5 1629.68 1663.29 1629.68 1581.91C1671.04 1581.91 1691.09 1552.53 1691.09 1552.53ZM1210.83 1394.91L1265.56 1208.91L1067.56 1253.74C1067.56 1253.74 1112.41 1269.02 1122.78 1301.17C971.453 1421.55 900.47 1347.64 837 1371.42C861.753 1467.78 889.508 1431.17 904.315 1528.12C1000.91 1557.27 1084.19 1397.1 1154.67 1356.41C1175.35 1392.23 1210.83 1394.91 1210.83 1394.91ZM1107.2 900.168L1295.64 854.572L1157.82 705.516C1157.82 705.516 1167.01 751.995 1144.35 777.048C964.435 706.188 992.954 607.758 940.627 564.681C869.553 634.298 915.137 640.029 838.573 701.331C861.63 799.562 1041.98 791.596 1112.46 832.286C1091.78 868.107 1107.2 900.168 1107.2 900.168Z" stroke="black" stroke-width="2"/>
<defs>
<linearGradient id="paint0_linear_63_482" x1="1550.71" y1="518.634" x2="2060.95" y2="1931.28" gradientUnits="userSpaceOnUse">
<stop stop-color="#EB8C84"/>
<stop offset="0.548077" stop-color="#FBBE8E"/>
<stop offset="1" stop-color="#F7D37B"/>
</linearGradient>
<linearGradient id="paint1_linear_63_482" x1="1577.15" y1="212.558" x2="1577.15" y2="703.025" gradientUnits="userSpaceOnUse">
<stop stop-color="white"/>
<stop offset="0.721154" stop-color="#E0E0E0"/>
</linearGradient>
<linearGradient id="paint2_linear_63_482" x1="1577.15" y1="212.558" x2="1577.15" y2="703.025" gradientUnits="userSpaceOnUse">
<stop stop-color="white"/>
<stop offset="0.721154" stop-color="#E0E0E0"/>
</linearGradient>
<linearGradient id="paint3_linear_63_482" x1="1577.15" y1="212.558" x2="1577.15" y2="703.025" gradientUnits="userSpaceOnUse">
<stop stop-color="white"/>
<stop offset="0.721154" stop-color="#E0E0E0"/>
</linearGradient>
<linearGradient id="paint4_linear_63_482" x1="1577.15" y1="212.558" x2="1577.15" y2="703.025" gradientUnits="userSpaceOnUse">
<stop stop-color="white"/>
<stop offset="0.721154" stop-color="#E0E0E0"/>
</linearGradient>
<linearGradient id="paint5_linear_63_482" x1="1577.15" y1="212.558" x2="1577.15" y2="703.025" gradientUnits="userSpaceOnUse">
<stop stop-color="white"/>
<stop offset="0.721154" stop-color="#E0E0E0"/>
</linearGradient>
<linearGradient id="paint6_linear_63_482" x1="1577.15" y1="212.558" x2="1577.15" y2="703.025" gradientUnits="userSpaceOnUse">
<stop stop-color="white"/>
<stop offset="0.721154" stop-color="#E0E0E0"/>
</linearGradient>
<linearGradient id="paint7_linear_63_482" x1="1577.15" y1="212.558" x2="1577.15" y2="703.025" gradientUnits="userSpaceOnUse">
<stop/>
<stop offset="0.721154" stop-color="#E0E0E0"/>
</linearGradient>
<linearGradient id="paint8_linear_63_482" x1="1577.15" y1="212.558" x2="1577.15" y2="703.025" gradientUnits="userSpaceOnUse">
<stop/>
</linearGradient>
</defs>
</svg>
